<svg xmlns="http://www.w3.org/2000/svg" data-testid="geist-icon" height="16" stroke-linejoin="round" style="color:currentColor" viewBox="0 0 16 16" width="16"><path d="M1.5 10.5002V12.2502C1.5001 13.4928 2.50743 14.5002 3.75 14.5002H5.25V16.0002H3.75C1.67905 16.0002 0.000104111 14.3212 0 12.2502V10.5002H1.5ZM16 12.2502C15.9999 14.3212 14.321 16.0002 12.25 16.0002H10.75V14.5002H12.25C13.4926 14.5002 14.4999 13.4928 14.5 12.2502V10.5002H16V12.2502ZM8 2.00024C8.62132 2.00024 9.125 2.50392 9.125 3.12524C9.12494 3.45778 8.97942 3.75526 8.75 3.96118V5.00708C11.119 5.13681 13 7.09886 13 9.50024V12.0002C12.9999 12.5178 12.6066 12.944 12.1025 12.9954L12 13.0002H4C3.44778 13.0002 3.0001 12.5524 3 12.0002V9.50024C3 7.09886 4.88101 5.13681 7.25 5.00708V3.96118C7.02058 3.75526 6.87506 3.45778 6.875 3.12524C6.875 2.50392 7.37868 2.00024 8 2.00024ZM7.5 6.50024C5.84315 6.50024 4.5 7.84339 4.5 9.50024V11.5002H11.5V9.50024C11.5 7.84339 10.1569 6.50024 8.5 6.50024H7.5ZM6.5 8.50024C7.05228 8.50024 7.5 8.94796 7.5 9.50024C7.4999 10.0524 7.05222 10.5002 6.5 10.5002C5.94778 10.5002 5.5001 10.0524 5.5 9.50024C5.5 8.94796 5.94772 8.50024 6.5 8.50024ZM9.5 8.50024C10.0523 8.50024 10.5 8.94796 10.5 9.50024C10.4999 10.0524 10.0522 10.5002 9.5 10.5002C8.94778 10.5002 8.5001 10.0524 8.5 9.50024C8.5 8.94796 8.94771 8.50024 9.5 8.50024ZM5.25 1.50024H2.25C1.83579 1.50024 1.5 1.83603 1.5 2.25024V5.50024H0V2.25024C0 1.0076 1.00736 0.000244141 2.25 0.000244141H5.25V1.50024ZM13.75 0.000244141C14.9926 0.000244141 16 1.0076 16 2.25024V5.50024H14.5V2.25024C14.5 1.83603 14.1642 1.50024 13.75 1.50024H10.75V0.000244141H13.75Z" fill="currentColor"></path></svg>