<svg xmlns="http://www.w3.org/2000/svg" data-testid="geist-icon" height="16" stroke-linejoin="round" style="color:currentColor" viewBox="0 0 16 16" width="16"><path d="M10 0C11.268 0 12.3324 0.859091 12.6504 2.02637C14.118 2.22209 15.25 3.4789 15.25 5C15.25 5.58891 15.0791 6.13812 14.7861 6.60156C15.529 7.24324 16 8.19094 16 9.25C15.9999 10.332 15.5087 11.2994 14.7373 11.9414C14.7456 12.0433 14.75 12.1462 14.75 12.25C14.75 14.3211 13.0711 16 11 16C9.7732 16 8.68416 15.4108 8 14.5C7.31584 15.4108 6.2268 16 5 16C2.92893 16 1.25 14.3211 1.25 12.25C1.25 12.1462 1.25341 12.0433 1.26172 11.9414C0.490629 11.2994 0.000127702 10.3317 0 9.25C0 8.1912 0.470336 7.24323 1.21289 6.60156C0.92009 6.13821 0.75 5.58873 0.75 5C0.75 3.47923 1.88154 2.22251 3.34863 2.02637C3.6665 0.858965 4.73188 0 6 0C6.78898 0 7.49851 0.333987 8 0.866211C8.50149 0.333987 9.21102 0 10 0ZM10 1.5C9.30964 1.5 8.75 2.05964 8.75 2.75V5C8.75 7.07107 7.07107 8.75 5 8.75V7.25C6.24264 7.25 7.25 6.24264 7.25 5V2.75C7.25 2.05964 6.69036 1.5 6 1.5C5.30964 1.5 4.75 2.05964 4.75 2.75C4.75 2.97883 4.81116 3.19098 4.91699 3.37402C5.12435 3.73249 5.00191 4.19194 4.64355 4.39941C4.28509 4.60678 3.82564 4.48434 3.61816 4.12598C3.51401 3.94592 3.43065 3.75258 3.36914 3.5498C2.72528 3.71844 2.25 4.30326 2.25 5C2.25 5.33086 2.35641 5.63645 2.53809 5.88477C2.64489 5.85428 2.75355 5.82796 2.86426 5.80762C3.27156 5.7328 3.66233 6.00195 3.7373 6.40918C3.81212 6.81648 3.54297 7.20726 3.13574 7.28223C2.20525 7.45314 1.5 8.27042 1.5 9.25C1.50023 10.3544 2.39557 11.25 3.5 11.25C3.62499 11.25 3.74669 11.2384 3.86426 11.2168C4.27151 11.142 4.66228 11.4112 4.7373 11.8184C4.81212 12.2256 4.54296 12.6164 4.13574 12.6914C3.92912 12.7294 3.71641 12.75 3.5 12.75C3.2574 12.75 3.02069 12.7247 2.79199 12.6777C2.99188 13.7157 3.90371 14.5 5 14.5C6.24264 14.5 7.25 13.4926 7.25 12.25V12C7.25 9.92893 8.92893 8.25 11 8.25V9.75C9.75736 9.75 8.75 10.7574 8.75 12V12.25C8.75 13.4926 9.75736 14.5 11 14.5C12.0962 14.5 13.0071 13.7156 13.207 12.6777C12.9786 12.7246 12.7423 12.75 12.5 12.75C12.2836 12.75 12.0709 12.7294 11.8643 12.6914C11.457 12.6164 11.1879 12.2256 11.2627 11.8184C11.3377 11.4112 11.7285 11.142 12.1357 11.2168C12.2533 11.2384 12.375 11.25 12.5 11.25C13.6044 11.25 14.4998 10.3544 14.5 9.25C14.5 8.27042 13.7947 7.45314 12.8643 7.28223C12.457 7.20726 12.1879 6.81648 12.2627 6.40918C12.3377 6.00195 12.7284 5.7328 13.1357 5.80762C13.2461 5.82791 13.3544 5.85439 13.4609 5.88477C13.6428 5.63637 13.75 5.33107 13.75 5C13.75 4.30293 13.2742 3.71812 12.6299 3.5498C12.5684 3.75249 12.4859 3.946 12.3818 4.12598C12.1744 4.48434 11.7149 4.60678 11.3564 4.39941C10.9981 4.19194 10.8756 3.73249 11.083 3.37402C11.1888 3.19098 11.25 2.97883 11.25 2.75C11.25 2.05964 10.6904 1.5 10 1.5Z" fill="currentColor"></path></svg>