<svg xmlns="http://www.w3.org/2000/svg" data-testid="geist-icon" height="16" stroke-linejoin="round" style="color:currentColor" viewBox="0 0 16 16" width="16"><path fill-rule="evenodd" clip-rule="evenodd" d="M3 1C1.61929 1 0.5 2.11929 0.5 3.5V5C0.5 6.38071 1.61929 7.5 3 7.5H13C14.3807 7.5 15.5 6.38071 15.5 5V3.5C15.5 2.11929 14.3807 1 13 1H3ZM2 3.5C2 2.94772 2.44772 2.5 3 2.5H13C13.5523 2.5 14 2.94772 14 3.5V5C14 5.55228 13.5523 6 13 6H3C2.44772 6 2 5.55229 2 5V3.5ZM3 8.5C1.61929 8.5 0.5 9.61929 0.5 11V12.5C0.5 13.8807 1.61929 15 3 15H13C14.3807 15 15.5 13.8807 15.5 12.5V11C15.5 9.61929 14.3807 8.5 13 8.5H3ZM2 11C2 10.4477 2.44772 10 3 10H13C13.5523 10 14 10.4477 14 11V12.5C14 13.0523 13.5523 13.5 13 13.5H3C2.44772 13.5 2 13.0523 2 12.5V11ZM5 4.25C5 4.66421 4.66421 5 4.25 5C3.83579 5 3.5 4.66421 3.5 4.25C3.5 3.83579 3.83579 3.5 4.25 3.5C4.66421 3.5 5 3.83579 5 4.25ZM6.75 5C7.16421 5 7.5 4.66421 7.5 4.25C7.5 3.83579 7.16421 3.5 6.75 3.5C6.33579 3.5 6 3.83579 6 4.25C6 4.66421 6.33579 5 6.75 5Z" fill="currentColor"></path></svg>