<svg xmlns="http://www.w3.org/2000/svg" data-testid="geist-icon" height="16" stroke-linejoin="round" style="color:currentColor" viewBox="0 0 16 16" width="16"><path fill-rule="evenodd" clip-rule="evenodd" d="M12.625 6C13.5225 6 14.25 6.72754 14.25 7.625V12.625C14.25 13.5225 13.5225 14.25 12.625 14.25H8.625C7.72754 14.25 7 13.5225 7 12.625V7.625C7 6.72754 7.72754 6 8.625 6H12.625ZM8.625 7.25C8.41789 7.25 8.25 7.41789 8.25 7.625V12.625C8.25 12.8321 8.41789 13 8.625 13H12.625C12.8321 13 13 12.8321 13 12.625V7.625C13 7.41789 12.8321 7.25 12.625 7.25H8.625ZM8.69043 1.99121C9.58781 1.99121 10.3153 2.71886 10.3154 3.61621V4.70605H9.06543V3.61621C9.0653 3.40922 8.89746 3.24121 8.69043 3.24121H4.69043C4.48349 3.24131 4.31556 3.40928 4.31543 3.61621V9.61621C4.31543 9.82326 4.48341 9.99111 4.69043 9.99121H5.80176V11.2412H4.69043C3.79305 11.2411 3.06543 10.5136 3.06543 9.61621V3.61621C3.06556 2.71892 3.79313 1.99131 4.69043 1.99121H8.69043Z" fill="currentColor"></path></svg>