<svg xmlns="http://www.w3.org/2000/svg" data-testid="geist-icon" height="16" stroke-linejoin="round" style="color:currentColor" viewBox="0 0 16 16" width="16"><path fill-rule="evenodd" clip-rule="evenodd" d="M0.5 3.25C0.5 1.86929 1.61929 0.75 3 0.75H13C14.3807 0.75 15.5 1.86929 15.5 3.25V4.75C15.5 5.24434 15.3565 5.70517 15.1089 6.09311C14.6903 5.81311 14.2373 5.58044 13.7576 5.40277C13.9087 5.22759 14 4.99946 14 4.75V3.25C14 2.69772 13.5523 2.25 13 2.25H3C2.44772 2.25 2 2.69772 2 3.25V4.75C2 5.30229 2.44772 5.75 3 5.75H8.46611C7.74768 6.12985 7.10902 6.64041 6.58178 7.25H3C1.61929 7.25 0.5 6.13071 0.5 4.75V3.25ZM5.86958 8.25H3C1.61929 8.25 0.5 9.36929 0.5 10.75V12.25C0.5 13.6307 1.61929 14.75 3 14.75H5.86958C5.59976 14.2835 5.38623 13.7804 5.23829 13.25H3C2.44772 13.25 2 12.8023 2 12.25V10.75C2 10.1977 2.44772 9.75 3 9.75H5.23829C5.38623 9.21955 5.59975 8.71645 5.86958 8.25ZM4.25 4.75C4.66421 4.75 5 4.41421 5 4C5 3.58579 4.66421 3.25 4.25 3.25C3.83579 3.25 3.5 3.58579 3.5 4C3.5 4.41421 3.83579 4.75 4.25 4.75ZM7.5 4C7.5 4.41421 7.16421 4.75 6.75 4.75C6.33579 4.75 6 4.41421 6 4C6 3.58579 6.33579 3.25 6.75 3.25C7.16421 3.25 7.5 3.58579 7.5 4ZM13.2307 12C13.2 12.815 13.0938 13.6278 12.9124 14.4279C13.8564 13.9717 14.5462 13.0724 14.7118 12H13.2307ZM11.8047 14.7359C11.7044 14.7452 11.6028 14.75 11.5 14.75C11.3972 14.75 11.2956 14.7452 11.1953 14.7359C10.9494 13.839 10.8077 12.9211 10.77 12H12.23C12.1923 12.9211 12.0506 13.839 11.8047 14.7359ZM13.2307 11C13.2 10.185 13.0938 9.37224 12.9124 8.57213C13.8564 9.02834 14.5462 9.92764 14.7118 11H13.2307ZM12.23 11C12.1923 10.0789 12.0506 9.16097 11.8047 8.2641C11.7044 8.25477 11.6028 8.25 11.5 8.25C11.3972 8.25 11.2956 8.25477 11.1953 8.2641C10.9494 9.16097 10.8077 10.0789 10.77 11H12.23ZM9.76925 11C9.80005 10.185 9.90616 9.37224 10.0876 8.57213C9.1436 9.02834 8.45381 9.92764 8.28822 11H9.76925ZM10.0876 14.4279C9.90616 13.6278 9.80005 12.815 9.76925 12H8.28822C8.45381 13.0724 9.1436 13.9717 10.0876 14.4279ZM11.5 16C13.9853 16 16 13.9853 16 11.5C16 9.01472 13.9853 7 11.5 7C9.01472 7 7 9.01472 7 11.5C7 13.9853 9.01472 16 11.5 16Z" fill="currentColor"></path>
  </svg>