<svg xmlns="http://www.w3.org/2000/svg" data-testid="geist-icon" height="16" stroke-linejoin="round" style="color:currentColor" viewBox="0 0 16 16" width="16"><path fill-rule="evenodd" clip-rule="evenodd" d="M13.5 6.5V13.5C13.5 14.0523 13.0523 14.5 12.5 14.5H9V12.5H7V10.5H9V8.5H7V6.5H5V8.5H7V10.5H5V12.5H7V14.5H4.5C3.94772 14.5 3.5 14.0523 3.5 13.5V1.5H8V5V6.5H9.5H13.5ZM12.8787 5L9.5 1.62132V5H12.8787ZM8 0H9.58579C9.851 0 10.1054 0.105357 10.2929 0.292893L14.7071 4.70711C14.8946 4.89464 15 5.149 15 5.41421V13.5C15 14.8807 13.8807 16 12.5 16H4.5C3.11929 16 2 14.8807 2 13.5V1.5V0H3.5H8Z" fill="currentColor"></path></svg>