<svg xmlns="http://www.w3.org/2000/svg" data-testid="geist-icon" height="16" stroke-linejoin="round" style="color:currentColor" viewBox="0 0 16 16" width="16"><g clip-path="url(#clip0_7556_6043468)"><path fill-rule="evenodd" clip-rule="evenodd" d="M13 12V6.5H9.49998H7.99998V5V1.5H2.99998V6H1.49998V1.5V0H2.99998H7.99998H9.08577C9.35098 0 9.60534 0.105357 9.79288 0.292893L14.2071 4.70711C14.3946 4.89464 14.5 5.149 14.5 5.41421V6.5V12C14.5 13.3807 13.3807 14.5 12 14.5H9.99998V13H12C12.5523 13 13 12.5523 13 12ZM9.49998 2.12132L12.3787 5H9.49998V2.12132ZM1.06066 9H1.81066H6.0595C6.61178 9 7.0595 9.44772 7.0595 10V14.25V15H5.5595V14.25V11.5618L1.59099 15.5303L1.06066 16.0607L0 15L0.53033 14.4697L4.5 10.5H1.81066H1.06066V9Z" fill="currentColor"></path></g><defs><clipPath id="clip0_7556_6043468"><rect width="16" height="16" fill="white"></rect></clipPath></defs></svg>