<svg xmlns="http://www.w3.org/2000/svg" data-testid="geist-icon" height="16" stroke-linejoin="round" style="color:currentColor" viewBox="0 0 16 16" width="16"><g clip-path="url(#clip0_7556_6044469)"><path fill-rule="evenodd" clip-rule="evenodd" d="M13 12V6.5H9.49997H7.99997V5V1.5H2.99997V6H1.49997V1.5V0H2.99997H7.99997H9.08576C9.35097 0 9.60533 0.105357 9.79286 0.292893L14.2071 4.70711C14.3946 4.89464 14.5 5.149 14.5 5.41421V6.5V12C14.5 13.3807 13.3807 14.5 12 14.5H8.49997V13H12C12.5523 13 13 12.5523 13 12ZM9.49997 2.12132L12.3787 5H9.49997V2.12132ZM5.93945 16H5.18945H0.940613C0.388328 16 -0.0593872 15.5523 -0.0593872 15V10.75V10H1.44061V10.75V13.4382L5.40912 9.46967L5.93945 8.93934L7.00011 10L6.46978 10.5303L2.50011 14.5H5.18945H5.93945V16Z" fill="currentColor"></path></g><defs><clipPath id="clip0_7556_6044469"><rect width="16" height="16" fill="currentColor"></rect></clipPath></defs></svg>