<svg xmlns="http://www.w3.org/2000/svg" data-testid="geist-icon" height="16" stroke-linejoin="round" style="color:currentColor" viewBox="0 0 16 16" width="16"><path fill-rule="evenodd" clip-rule="evenodd" d="M7 2H9V0.75V0H10.5V0.75V2H13C13.5523 2 14 2.44772 14 3V5.5H15.25H16V7H15.25H14V9H15.25H16V10.5H15.25H14V13C14 13.5523 13.5523 14 13 14H10.5V15.25V16H9V15.25V14H7V15.25V16H5.5V15.25V14H3C2.44772 14 2 13.5523 2 13V10.5H0.75H0V9H0.75H2V7H0.75H0V5.5H0.75H2V3C2 2.44772 2.44772 2 3 2H5.5V0.75V0H7V0.75V2ZM3.5 8.98228V3.5H12.5V9H10C9.56114 9 9.29513 8.85208 9.13685 8.68588C8.96919 8.50984 8.875 8.26309 8.875 8C8.875 7.73691 8.96919 7.49016 9.13685 7.31412C9.29513 7.14792 9.56114 7 10 7V5.5C8.82792 5.5 7.9118 5.74294 7.16034 6.13019C6.41599 6.51379 5.87229 7.01955 5.42887 7.4794C5.29221 7.62111 5.17056 7.75171 5.05789 7.87267L5.05789 7.87267C4.78031 8.17066 4.55724 8.41014 4.2986 8.6132C4.04734 8.81045 3.80061 8.93775 3.5 8.98228ZM3.5 10.4907V12.5H12.5V10.5H10C9.18886 10.5 8.51737 10.2104 8.05065 9.72037C7.59331 9.24016 7.375 8.61191 7.375 8C7.375 7.91436 7.37928 7.8284 7.38788 7.74258C7.06615 7.96886 6.78522 8.23377 6.50863 8.5206C6.41912 8.61343 6.32548 8.71405 6.22828 8.8185L6.22819 8.8186C5.92315 9.14637 5.58298 9.5119 5.22484 9.79305C4.75982 10.1581 4.20727 10.437 3.5 10.4907Z" fill="currentColor"></path></svg>