<svg xmlns="http://www.w3.org/2000/svg" data-testid="geist-icon" height="16" stroke-linejoin="round" style="color:currentColor" viewBox="0 0 16 16" width="16"><g clip-path="url(#clip0_7556_6046467)"><path fill-rule="evenodd" clip-rule="evenodd" d="M13.5 3V5H2.49999V1.5H5.99999L7.33332 2.5C7.76606 2.82456 8.2924 3 8.83332 3H13.5ZM0.999991 5V1.5V0H2.49999H6.16666C6.38303 0 6.59356 0.0701779 6.76666 0.2L8.23332 1.3C8.40642 1.42982 8.61695 1.5 8.83332 1.5H13.5H15V3V5H16L15.8333 6.5L15.2471 11.7761C15.1064 13.0422 14.0363 14 12.7624 14H7.99999V12.5H12.7624C13.2719 12.5 13.7 12.1169 13.7563 11.6104L14.3241 6.5H14H7.99999H1.99999H1.67589H0.166657L-9.29832e-06 5H0.999991ZM5.93933 16H5.18933H0.940491C0.388206 16 -0.0595093 15.5523 -0.0595093 15V10.75V10H1.44049V10.75V13.4382L5.409 9.46967L5.93933 8.93934L6.99999 10L6.46966 10.5303L2.49999 14.5H5.18933H5.93933V16Z" fill="currentColor"></path></g><defs><clipPath id="clip0_7556_6046467"><rect width="16" height="16" fill="currentColor"></rect></clipPath></defs></svg>