<svg xmlns="http://www.w3.org/2000/svg" data-testid="geist-icon" height="16" stroke-linejoin="round" style="color:currentColor" viewBox="0 0 16 16" width="16"><g clip-path="url(#clip0_7556_6045466)"><path fill-rule="evenodd" clip-rule="evenodd" d="M13.5 3V5H2.5V1.5H6L7.33333 2.5C7.76607 2.82456 8.29241 3 8.83333 3H13.5ZM1 5V1.5V0H2.5H6.16667C6.38304 0 6.59357 0.0701779 6.76667 0.2L8.23333 1.3C8.40643 1.42982 8.61696 1.5 8.83333 1.5H13.5H15V3V5H16L15.8333 6.5L15.2471 11.7761C15.1064 13.0422 14.0363 14 12.7624 14H10V12.5H12.7624C13.2719 12.5 13.7 12.1169 13.7563 11.6104L14.3241 6.5H14H10H2H1.6759H0.166667L0 5H1ZM1.06066 9H1.81066H6.0595C6.61178 9 7.0595 9.44772 7.0595 10V14.25V15H5.5595V14.25V11.5618L1.59099 15.5303L1.06066 16.0607L0 15L0.53033 14.4697L4.5 10.5H1.81066H1.06066V9Z" fill="currentColor"></path></g><defs><clipPath id="clip0_7556_6045466"><rect width="16" height="16" fill="currentColor"></rect></clipPath></defs></svg>