<svg xmlns="http://www.w3.org/2000/svg" data-testid="geist-icon" height="16" stroke-linejoin="round" style="color:currentColor" viewBox="0 0 16 16" width="16"><path d="M13.75 0C14.9926 0 16 1.00736 16 2.25V8H14.5V2.25C14.5 1.83579 14.1642 1.5 13.75 1.5H2.25C1.83579 1.5 1.5 1.83579 1.5 2.25V13.75C1.5 14.1642 1.83579 14.5 2.25 14.5H8V16H2.25C1.00736 16 0 14.9926 0 13.75V2.25C0 1.00736 1.00736 0 2.25 0H13.75ZM9.99707 5H9.24707C8.42078 5 7.75103 5.66982 7.75098 6.49609V7H9.5V8.5H7.75098V9.50488C7.75071 11.1589 6.40892 12.4997 4.75488 12.5H4.00488V11H4.75488C5.5805 10.9997 6.25071 10.3305 6.25098 9.50488V8.5H4.5V7H6.25098V6.49609C6.25103 4.84139 7.59235 3.5 9.24707 3.5H9.99707V5Z" fill="currentColor"></path>
<path d="M12.4901 15.5817C14.4177 15.5817 15.9802 14.32 15.9802 12.7639C15.9802 11.7991 15.382 10.9468 14.4623 10.4414C14.0881 10.2334 13.7941 10.0468 13.5494 9.89159C13.0886 9.59875 12.8042 9.41821 12.4901 9.41821C12.171 9.41821 11.8114 9.64659 11.3365 9.94788C11.069 10.1213 10.7959 10.2859 10.5175 10.4414C9.59821 10.9468 9 11.7991 9 12.7639C9 14.32 10.5625 15.5817 12.4901 15.5817ZM12.0826 10.3813C12.1797 10.1605 12.229 9.92164 12.2276 9.68042C12.2276 9.63842 12.2862 9.62617 12.2944 9.67225C12.4857 10.4816 12.0319 10.8827 11.6962 11.0168C11.66 11.0308 11.6381 10.9818 11.6661 10.9562C11.8444 10.7965 11.9864 10.6005 12.0826 10.3813ZM12.6811 10.3515C12.6535 10.1144 12.576 9.88574 12.4536 9.68071V9.67634C12.4338 9.64046 12.4787 9.59963 12.5076 9.62617C13.0781 10.2401 12.8876 10.8089 12.6692 11.0953C12.6452 11.125 12.6024 11.0944 12.6143 11.0585C12.686 10.8302 12.7088 10.5893 12.6811 10.3515ZM13.1977 10.1885C13.0807 9.982 12.9209 9.8029 12.729 9.66321V9.65913C12.6963 9.63434 12.722 9.57921 12.7619 9.59555C13.5167 9.91171 13.5687 10.5204 13.4771 10.8774C13.4752 10.8859 13.4702 10.8933 13.4631 10.8981C13.4562 10.903 13.4476 10.905 13.4392 10.9035C13.4308 10.9021 13.4234 10.8975 13.4185 10.8905C13.4134 10.8836 13.4111 10.8749 13.412 10.8663C13.3888 10.6279 13.3158 10.3969 13.1977 10.1885ZM11.7183 10.3515C11.5387 10.5102 11.3453 10.5726 11.1181 10.6423C11.0842 10.6423 11.0615 10.6196 11.0729 10.5898C11.5824 10.3253 11.7638 10.11 11.945 9.78163C11.945 9.78163 11.9902 9.7475 11.9998 9.80642C11.9998 9.8948 11.8983 10.1929 11.7183 10.3515ZM13.1565 13.6197C13.1152 13.7951 13.0198 13.9532 12.8838 14.0715C12.7831 14.1721 12.6513 14.2356 12.5099 14.2517C12.3643 14.2381 12.2279 14.1744 12.124 14.0715C11.9894 13.9527 11.8952 13.7947 11.8548 13.6197C11.8535 13.6093 11.8545 13.5988 11.8577 13.5889C11.861 13.5789 11.8663 13.5698 11.8735 13.5622C11.8807 13.5548 11.8894 13.5491 11.8991 13.5456C11.9089 13.5421 11.9192 13.5409 11.9295 13.5421H13.0827C13.0929 13.5409 13.1033 13.5422 13.1129 13.5457C13.1225 13.5493 13.1312 13.555 13.1382 13.5625C13.1453 13.5701 13.1506 13.5791 13.1538 13.589C13.157 13.5989 13.1579 13.6094 13.1565 13.6197ZM11.569 12.9868C11.4637 13.0588 11.3362 13.0911 11.2093 13.0781C11.0824 13.0651 10.9642 13.0075 10.8757 12.9156C10.7856 12.8221 10.7298 12.7009 10.7175 12.5716C10.7051 12.4424 10.737 12.3128 10.8077 12.2039C10.8681 12.1112 10.9542 12.0391 11.0545 11.9965C11.1547 11.9539 11.2654 11.9427 11.3721 11.9645C11.4786 11.9863 11.5766 12.0403 11.6533 12.119C11.7303 12.1978 11.7825 12.2987 11.8035 12.4078C11.8247 12.5173 11.8138 12.6305 11.772 12.7339C11.7307 12.8362 11.66 12.9244 11.569 12.9868ZM14.0397 12.9882C13.9342 13.0598 13.8068 13.0916 13.68 13.0782C13.5533 13.0647 13.4354 13.0068 13.3473 12.9147C13.2447 12.808 13.1876 12.6655 13.188 12.5175C13.188 12.4058 13.2201 12.2964 13.2811 12.2036C13.3415 12.1109 13.4275 12.0385 13.5281 11.9963C13.6284 11.9537 13.7393 11.9427 13.846 11.9648C13.9528 11.9869 14.0508 12.0409 14.1275 12.1202C14.2042 12.1995 14.2558 12.3002 14.2768 12.4098C14.2976 12.5194 14.2861 12.6327 14.2439 12.7359C14.2022 12.8383 14.1312 12.9261 14.0397 12.9882Z" fill="currentColor"></path>
</svg>