<svg xmlns="http://www.w3.org/2000/svg" data-testid="geist-icon" height="16" stroke-linejoin="round" style="color:currentColor" viewBox="0 0 16 16" width="16"><path d="M13.75 0C14.9926 0 16 1.00736 16 2.25V8H14.5V2.25C14.5 1.83579 14.1642 1.5 13.75 1.5H2.25C1.83579 1.5 1.5 1.83579 1.5 2.25V13.75C1.5 14.1642 1.83579 14.5 2.25 14.5H8V16H2.25C1.00736 16 0 14.9926 0 13.75V2.25C0 1.00736 1.00736 0 2.25 0H13.75ZM9.99707 5H9.24707C8.42078 5 7.75103 5.66982 7.75098 6.49609V7H9.5V8.5H7.75098V9.50488C7.75071 11.1589 6.40892 12.4997 4.75488 12.5H4.00488V11H4.75488C5.5805 10.9997 6.25071 10.3305 6.25098 9.50488V8.5H4.5V7H6.25098V6.49609C6.25103 4.84139 7.59235 3.5 9.24707 3.5H9.99707V5Z" fill="currentColor"></path>
<path d="M12.3359 8.74316C14.3238 8.74316 15.9354 10.3559 15.9355 12.3438C15.9353 14.3315 14.3237 15.9434 12.3359 15.9434C10.3483 15.9431 8.73659 14.3313 8.73633 12.3438C8.73649 10.3561 10.3483 8.74339 12.3359 8.74316ZM11.7539 13.1494H12.374C12.4014 13.1497 12.4238 13.1718 12.4238 13.1992V14.0176C12.4238 14.045 12.4014 14.0671 12.374 14.0674H10.1338C10.6461 14.7212 11.4409 15.1434 12.3359 15.1436C13.2309 15.1436 14.0255 14.7211 14.5381 14.0674H13.4902C13.3972 14.0674 13.3196 14.0434 13.2568 13.998C13.1949 13.9532 13.15 13.89 13.1152 13.8193C13.0467 13.6797 13.0121 13.4946 12.9756 13.3213C12.9381 13.1434 12.8974 12.9753 12.8193 12.8516C12.781 12.7909 12.7345 12.7417 12.6758 12.708C12.617 12.6743 12.543 12.6543 12.4482 12.6543H11.7539V13.1494ZM9.73828 11.3027C9.60929 11.6245 9.53715 11.9759 9.53711 12.3438C9.53716 12.6239 9.57962 12.8942 9.65625 13.1494H10.4639V11.3145H9.76953C9.75751 11.3145 9.74686 11.3098 9.73828 11.3027ZM12.3359 9.54492C11.5475 9.54504 10.8368 9.87197 10.3281 10.3965H13.2666C13.7346 10.3966 14.1435 10.7079 14.29 11.0986C14.3636 11.2949 14.3715 11.5126 14.2861 11.7207C14.2087 11.9092 14.0555 12.0851 13.8145 12.2305C13.8212 12.2356 13.829 12.2402 13.8359 12.2461C13.8784 12.2824 13.9275 12.3341 13.9756 12.3965C14.0718 12.5216 14.1699 12.6963 14.209 12.8916C14.2404 13.048 14.3992 13.1479 14.5566 13.1396C14.6335 13.1356 14.7068 13.1057 14.7607 13.0459C14.8145 12.9861 14.8535 12.8921 14.8535 12.7529V12.6045C14.8535 12.577 14.8758 12.5539 14.9033 12.5537H15.125C15.1302 12.4843 15.1357 12.4145 15.1357 12.3438C15.1356 10.7978 13.882 9.54492 12.3359 9.54492ZM11.7539 11.8096H12.6709C12.9549 11.8095 13.0672 11.6713 13.0674 11.5625C13.0674 11.4537 12.9551 11.3145 12.6709 11.3145H11.7539V11.8096Z" fill="var(--ds-gray-1000)"></path></svg>