<svg xmlns="http://www.w3.org/2000/svg" data-testid="geist-icon" height="16" stroke-linejoin="round" style="color:currentColor" viewBox="0 0 16 16" width="16">
  <path fill-rule="evenodd" clip-rule="evenodd" d="M12.25 9.5L16 16H8.5L12.25 9.5Z" fill="var(--ds-gray-1000)"></path>
  <path fill-rule="evenodd" clip-rule="evenodd" d="M2.25 0C1.00736 0 0 1.00736 0 2.25V13.75C0 14.9926 1.00736 16 2.25 16H6V14.5H2.25C1.83579 14.5 1.5 14.1642 1.5 13.75V2.25C1.5 1.83579 1.83579 1.5 2.25 1.5H13.75C14.1642 1.5 14.5 1.83579 14.5 2.25V9H16V2.25C16 1.00736 14.9926 0 13.75 0H2.25ZM9.24618 5C8.41986 5 7.75 5.66986 7.75 6.49618V7H8.75H9.5V8.5H8.75H7.75V9.50439C7.75 11.1588 6.40882 12.5 4.75439 12.5H4.00439V11H4.75439C5.58039 11 6.25 10.3304 6.25 9.50439V8.5H5.25H4.5V7H5.25H6.25V6.49618C6.25 4.84144 7.59144 3.5 9.24618 3.5H9.99618V5H9.24618Z" fill="currentColor"></path>
</svg>