<svg xmlns="http://www.w3.org/2000/svg" data-testid="geist-icon" height="16" stroke-linejoin="round" style="color:currentColor" viewBox="0 0 16 16" width="16"><g clip-path="url(#clip0_351_605)">
<path fill-rule="evenodd" clip-rule="evenodd" d="M0 2.25C0 1.00736 1.00736 0 2.25 0H13.75C14.9926 0 16 1.00735 16 2.25V8H14.5V2.25C14.5 1.83579 14.1642 1.5 13.75 1.5H2.25C1.83578 1.5 1.5 1.83578 1.5 2.25V13.75C1.5 14.1642 1.83579 14.5 2.25 14.5H8V16H2.25C1.00735 16 0 14.9926 0 13.75V2.25ZM6.25 6.49618C6.25 4.84144 7.59144 3.5 9.24618 3.5H9.99618V5H9.24618C8.41987 5 7.75 5.66986 7.75 6.49618V7H8.75H9.5V8.5H8.75H7.75V9.50439C7.75 11.1588 6.40883 12.5 4.75439 12.5H4.00439V11H4.75439C5.5804 11 6.25 10.3304 6.25 9.50439V8.5H5.25H4.5V7H5.25H6.25V6.49618Z" fill="currentColor"></path>
<path d="M14 15C14 15.5523 13.5523 16 13 16H12.5C11.9477 16 11.5 15.5523 11.5 15V13.5C11.5 12.9477 11.9477 12.5 12.5 12.5C13.0523 12.5 13.5 12.0523 13.5 11.5V11H14.25C15.2165 11 16 11.7835 16 12.75C16 13.7165 15.2165 14.5 14.25 14.5H14V15Z" fill="#FFC700"></path>
<path d="M11 10C11 9.44772 11.4477 9 12 9H12.5C13.0523 9 13.5 9.44772 13.5 10V11.5C13.5 12.0523 13.0523 12.5 12.5 12.5C11.9477 12.5 11.5 12.9477 11.5 13.5V14H10.75C9.7835 14 9 13.2165 9 12.25C9 11.2835 9.7835 10.5 10.75 10.5H11V10Z" fill="#338ED8"></path>
</g>
<defs>
<clipPath id="clip0_351_605">
<rect width="16" height="16" fill="white"></rect>
</clipPath></defs></svg>