<svg xmlns="http://www.w3.org/2000/svg" data-testid="geist-icon" height="16" stroke-linejoin="round" style="color:currentColor" viewBox="0 0 16 16" width="16"><path d="M13.75 0C14.9926 0 16 1.00736 16 2.25V8H14.5V2.25C14.5 1.83579 14.1642 1.5 13.75 1.5H2.25C1.83579 1.5 1.5 1.83579 1.5 2.25V13.75C1.5 14.1642 1.83579 14.5 2.25 14.5H8V16H2.25C1.00736 16 0 14.9926 0 13.75V2.25C0 1.00736 1.00736 0 2.25 0H13.75ZM9.99707 5H9.24707C8.42078 5 7.75103 5.66982 7.75098 6.49609V7H9.5V8.5H7.75098V9.50488C7.75071 11.1589 6.40892 12.4997 4.75488 12.5H4.00488V11H4.75488C5.5805 10.9997 6.25071 10.3305 6.25098 9.50488V8.5H4.5V7H6.25098V6.49609C6.25103 4.84139 7.59235 3.5 9.24707 3.5H9.99707V5Z" fill="currentColor"></path>
<path d="M15.182 11.3017C15.1688 11.2873 15.1548 11.273 15.1408 11.2594C15.1268 11.2459 15.1136 11.2306 15.0996 11.2171C15.0856 11.2036 15.0724 11.1884 15.0584 11.1748C15.0444 11.1613 15.0312 11.146 15.0171 11.1325C15.0031 11.119 14.9899 11.1037 14.9759 11.0902C14.9619 11.0767 14.9487 11.0615 14.9347 11.0479C14.9207 11.0344 14.9075 11.0191 14.8935 11.0056C15.3024 11.418 15.5366 11.979 15.5455 12.5673C15.5455 13.9691 14.159 15.1094 12.4543 15.1094C11.4997 15.1094 10.6457 14.7516 10.0778 14.1907L10.119 14.233L10.1602 14.2753L10.2014 14.3176L10.2426 14.3599L10.2838 14.4022L10.3251 14.4445L10.3663 14.4868C10.9334 15.0714 11.8064 15.4478 12.784 15.4478C14.4887 15.4478 15.8753 14.3075 15.8753 12.9099C15.8753 12.3127 15.6247 11.7467 15.182 11.3017Z" fill="black" style="fill:black;fill-opacity:1;"></path>
<path d="M15.3395 12.5672C15.3395 13.854 14.0477 14.8971 12.4543 14.8971C10.8609 14.8971 9.56915 13.854 9.56915 12.5672C9.56915 11.7695 10.0638 11.0648 10.8238 10.6469C11.5838 10.229 12.057 9.8009 12.4543 9.8009C12.8516 9.8009 13.1913 10.1503 14.0848 10.6469C14.8449 11.0648 15.3395 11.7695 15.3395 12.5672Z" fill="#FBF0DF" style="fill:#FBF0DF;fill:color(display-p3 0.9843 0.9412 0.8745);fill-opacity:1;"></path>
<path d="M15.3394 12.5673C15.339 12.402 15.3169 12.2376 15.2735 12.0784C15.0484 14.8955 11.7 15.0308 10.3836 14.1882C10.9754 14.659 11.7056 14.909 12.4543 14.8972C14.0452 14.8972 15.3394 13.8524 15.3394 12.5673Z" fill="#F6DECE" style="fill:#F6DECE;fill:color(display-p3 0.9647 0.8706 0.8078);fill-opacity:1;"></path>
<path d="M11.3439 10.4921C11.7124 10.2653 12.2021 9.83982 12.6835 9.83897C12.6094 9.81441 12.5321 9.80157 12.4543 9.8009C12.2548 9.8009 12.0422 9.90665 11.7742 10.0657C11.6811 10.1215 11.5846 10.1833 11.4824 10.2476C11.2904 10.3694 11.0703 10.5073 10.823 10.6452C10.0382 11.0809 9.56915 11.7991 9.56915 12.5672C9.56915 12.6011 9.56915 12.6349 9.56915 12.6679C10.0687 10.8567 10.9763 10.7188 11.3439 10.4921Z" fill="#FFFEFC" style="fill:#FFFEFC;fill:color(display-p3 1.0000 0.9961 0.9882);fill-opacity:1;"></path>
<path fill-rule="evenodd" clip-rule="evenodd" d="M12.2169 10.0149C12.218 10.2147 12.1772 10.4124 12.0971 10.5944C12.017 10.7765 11.8995 10.9387 11.7528 11.0699C11.7297 11.091 11.7478 11.1316 11.7775 11.1198C12.0553 11.009 12.4304 10.6773 12.2721 10.0082C12.2655 9.9701 12.2169 9.98026 12.2169 10.0149ZM12.404 10.0149C12.5049 10.1838 12.5689 10.3731 12.5918 10.5698C12.6148 10.7665 12.5959 10.9659 12.5367 11.1545C12.5268 11.1841 12.5623 11.2095 12.5821 11.1849C12.7626 10.9481 12.92 10.4777 12.4485 9.9701C12.4246 9.94811 12.3875 9.98195 12.404 10.0116V10.0149ZM12.6315 10.0006C12.7895 10.1153 12.9216 10.2635 13.019 10.4351C13.1164 10.6068 13.1768 10.7978 13.1962 10.9954C13.1953 11.0026 13.1972 11.0097 13.2014 11.0155C13.2056 11.0212 13.2118 11.0251 13.2186 11.0263C13.2255 11.0275 13.2326 11.0259 13.2384 11.0219C13.2442 11.0179 13.2483 11.0117 13.2498 11.0047C13.3256 10.7095 13.2827 10.2061 12.6587 9.94473C12.6258 9.93119 12.6043 9.97687 12.6315 9.99718V10.0006ZM11.1098 10.8804C11.2977 10.8228 11.4717 10.7252 11.6204 10.594C11.7691 10.4628 11.8892 10.301 11.9729 10.119C11.9877 10.0885 12.0347 10.1004 12.0273 10.1342C11.8847 10.811 11.4074 10.9523 11.1106 10.9337C11.0793 10.9345 11.0801 10.8897 11.1098 10.8804Z" fill="#CCBEA7" style="fill:#CCBEA7;fill:color(display-p3 0.8000 0.7451 0.6549);fill-opacity:1;"></path>
<path d="M12.4543 15.1095C10.7496 15.1095 9.36304 13.9691 9.36304 12.5673C9.36304 11.7213 9.87247 10.932 10.7257 10.4591C10.973 10.3238 11.1848 10.1876 11.3736 10.0683C11.4775 10.0023 11.5755 9.94056 11.6703 9.88303C11.9597 9.70707 12.207 9.58948 12.4543 9.58948C12.7016 9.58948 12.9176 9.69099 13.1879 9.85511C13.2704 9.90334 13.3528 9.95579 13.441 10.0133C13.6463 10.1436 13.8779 10.2908 14.1829 10.4591C15.0361 10.932 15.5455 11.7205 15.5455 12.5673C15.5455 13.9691 14.159 15.1095 12.4543 15.1095ZM12.4543 9.80097C12.2548 9.80097 12.0421 9.90672 11.7742 10.0658C11.681 10.1216 11.5846 10.1834 11.4824 10.2476C11.2903 10.3695 11.0702 10.5074 10.8229 10.6453C10.0382 11.0809 9.56912 11.7992 9.56912 12.5673C9.56912 13.8524 10.8633 14.898 12.4543 14.898C14.0452 14.898 15.3394 13.8524 15.3394 12.5673C15.3394 11.7992 14.8704 11.0809 14.0848 10.647C13.7732 10.4778 13.53 10.3187 13.333 10.1935C13.2432 10.1368 13.1607 10.0844 13.0857 10.0378C12.8359 9.88557 12.6538 9.80097 12.4543 9.80097Z" fill="black" style="fill:black;fill-opacity:1;"></path>
<path d="M13.0354 13.1848C12.9984 13.3405 12.9141 13.48 12.7947 13.5833C12.7051 13.6724 12.5891 13.7284 12.465 13.7423C12.3372 13.7306 12.2171 13.6745 12.1246 13.5833C12.0064 13.4795 11.9233 13.34 11.8872 13.1848C11.8859 13.1756 11.8868 13.1662 11.8897 13.1574C11.8926 13.1486 11.8974 13.1406 11.9038 13.134C11.9101 13.1273 11.9179 13.1223 11.9264 13.1192C11.935 13.1162 11.9441 13.1152 11.9531 13.1163H12.9703C12.9792 13.1153 12.9883 13.1164 12.9967 13.1195C13.0052 13.1227 13.0128 13.1277 13.0191 13.1343C13.0254 13.1409 13.0301 13.1489 13.0329 13.1576C13.0357 13.1664 13.0366 13.1757 13.0354 13.1848Z" fill="#B71422" style="fill:#B71422;fill:color(display-p3 0.7176 0.0784 0.1333);fill-opacity:1;"></path>
<path d="M12.1246 13.59C12.2169 13.6813 12.3366 13.7379 12.4642 13.7507C12.5915 13.7377 12.7109 13.6811 12.803 13.59C12.8325 13.5618 12.86 13.5316 12.8854 13.4995C12.8346 13.4404 12.7726 13.3925 12.7031 13.3589C12.6337 13.3253 12.5583 13.3067 12.4815 13.3041C12.3994 13.3061 12.319 13.3285 12.2472 13.3695C12.1753 13.4105 12.1143 13.4687 12.0693 13.5393C12.0883 13.557 12.1048 13.5739 12.1246 13.59Z" fill="#FF6164" style="fill:#FF6164;fill:color(display-p3 1.0000 0.3804 0.3922);fill-opacity:1;"></path>
<path d="M12.1378 13.5233C12.1786 13.469 12.2309 13.425 12.2908 13.3946C12.3506 13.3641 12.4164 13.3479 12.4832 13.3473C12.6066 13.351 12.7242 13.402 12.8129 13.4903C12.8318 13.4691 12.85 13.4471 12.8673 13.4251C12.7624 13.3226 12.6238 13.2643 12.479 13.2618C12.4016 13.2625 12.3254 13.2808 12.2557 13.3153C12.186 13.3498 12.1246 13.3997 12.0759 13.4615C12.0954 13.4832 12.1161 13.5038 12.1378 13.5233Z" fill="black" style="fill:black;fill-opacity:1;"></path>
<path d="M12.4617 13.7931C12.3244 13.7807 12.1951 13.7211 12.0949 13.6239C11.9673 13.5131 11.8775 13.3634 11.8385 13.1966C11.8357 13.1818 11.8362 13.1665 11.8399 13.1519C11.8436 13.1372 11.8505 13.1236 11.86 13.112C11.8713 13.098 11.8855 13.0869 11.9017 13.0794C11.9178 13.0719 11.9354 13.0683 11.9531 13.0689H12.9703C12.988 13.0685 13.0055 13.0722 13.0217 13.0797C13.0378 13.0871 13.0521 13.0982 13.0635 13.112C13.0729 13.1237 13.0796 13.1373 13.0832 13.1519C13.0867 13.1666 13.0871 13.1819 13.0841 13.1966C13.0451 13.3634 12.9553 13.5131 12.8277 13.6239C12.7277 13.7209 12.5988 13.7805 12.4617 13.7931ZM11.9531 13.167C11.9399 13.167 11.9366 13.173 11.9358 13.1746C11.9706 13.3193 12.0495 13.4488 12.1608 13.5443C12.2423 13.6267 12.3482 13.6788 12.4617 13.6924C12.575 13.6789 12.6807 13.6275 12.7626 13.546C12.8736 13.4503 12.9521 13.3208 12.9868 13.1764C12.985 13.1736 12.9825 13.1715 12.9796 13.1702C12.9767 13.1688 12.9735 13.1683 12.9703 13.1687L11.9531 13.167Z" fill="black" style="fill:black;fill-opacity:1;"></path>
<path d="M13.7089 13.2373C13.9753 13.2373 14.1911 13.107 14.1911 12.9463C14.1911 12.7856 13.9753 12.6553 13.7089 12.6553C13.4426 12.6553 13.2267 12.7856 13.2267 12.9463C13.2267 13.107 13.4426 13.2373 13.7089 13.2373Z" fill="#FEBBD0" style="fill:#FEBBD0;fill:color(display-p3 0.9961 0.7333 0.8157);fill-opacity:1;"></path>
<path d="M11.2137 13.2373C11.48 13.2373 11.6959 13.107 11.6959 12.9463C11.6959 12.7856 11.48 12.6553 11.2137 12.6553C10.9474 12.6553 10.7314 12.7856 10.7314 12.9463C10.7314 13.107 10.9474 13.2373 11.2137 13.2373Z" fill="#FEBBD0" style="fill:#FEBBD0;fill:color(display-p3 0.9961 0.7333 0.8157);fill-opacity:1;"></path>
<path fill-rule="evenodd" clip-rule="evenodd" d="M11.4404 12.8295C11.5302 12.8297 11.6181 12.8025 11.693 12.7513C11.7677 12.7002 11.8261 12.6275 11.8606 12.5423C11.8951 12.4572 11.9042 12.3634 11.8868 12.2729C11.8694 12.1825 11.8262 12.0993 11.7627 12.034C11.6992 11.9688 11.6183 11.9243 11.5301 11.9062C11.442 11.8882 11.3506 11.8974 11.2676 11.9326C11.1845 11.9679 11.1135 12.0276 11.0636 12.1043C11.0137 12.181 10.987 12.2711 10.987 12.3633C10.987 12.4868 11.0347 12.6053 11.1197 12.6926C11.2047 12.78 11.3201 12.8293 11.4404 12.8295ZM13.4823 12.8295C13.5722 12.8302 13.6604 12.8034 13.7355 12.7526C13.8106 12.7018 13.8693 12.6292 13.9042 12.5441C13.9391 12.459 13.9486 12.3651 13.9314 12.2745C13.9143 12.1839 13.8713 12.1005 13.8079 12.035C13.7445 11.9694 13.6636 11.9247 13.5754 11.9064C13.4872 11.8882 13.3957 11.8972 13.3125 11.9324C13.2293 11.9676 13.1582 12.0273 13.1081 12.104C13.0581 12.1808 13.0313 12.271 13.0313 12.3633C13.0311 12.4865 13.0785 12.6046 13.163 12.692C13.2475 12.7794 13.3623 12.8288 13.4823 12.8295Z" fill="black" style="fill:black;fill-opacity:1;"></path>
<path fill-rule="evenodd" clip-rule="evenodd" d="M11.3002 12.3929C11.334 12.3931 11.3671 12.383 11.3952 12.3639C11.4234 12.3447 11.4454 12.3174 11.4585 12.2854C11.4715 12.2535 11.475 12.2182 11.4685 12.1842C11.462 12.1502 11.4458 12.1189 11.422 12.0943C11.3982 12.0697 11.3678 12.053 11.3346 12.0462C11.3015 12.0393 11.2672 12.0427 11.2359 12.056C11.2047 12.0692 11.178 12.0916 11.1592 12.1205C11.1404 12.1493 11.1304 12.1832 11.1304 12.2178C11.1304 12.2641 11.1483 12.3085 11.1801 12.3414C11.2119 12.3742 11.2551 12.3927 11.3002 12.3929ZM13.3421 12.3929C13.3759 12.3931 13.4089 12.383 13.4371 12.3639C13.4653 12.3447 13.4873 12.3174 13.5003 12.2854C13.5134 12.2535 13.5169 12.2182 13.5104 12.1842C13.5039 12.1502 13.4877 12.1189 13.4639 12.0943C13.44 12.0697 13.4096 12.053 13.3765 12.0462C13.3434 12.0393 13.309 12.0427 13.2778 12.056C13.2466 12.0692 13.2199 12.0916 13.2011 12.1205C13.1823 12.1493 13.1723 12.1832 13.1723 12.2178C13.1723 12.2638 13.1899 12.308 13.2214 12.3408C13.2529 12.3735 13.2956 12.3923 13.3404 12.3929H13.3421Z" fill="white" style="fill:white;fill-opacity:1;"></path></svg>