<svg xmlns="http://www.w3.org/2000/svg" data-testid="geist-icon" height="16" stroke-linejoin="round" style="color:currentColor" viewBox="0 0 16 16" width="16"><path fill-rule="evenodd" clip-rule="evenodd" d="M0 2.25C0 1.00736 1.00736 0 2.25 0H13.75C14.9926 0 16 1.00735 16 2.25V8H14.5V2.25C14.5 1.83579 14.1642 1.5 13.75 1.5H2.25C1.83578 1.5 1.5 1.83578 1.5 2.25V13.75C1.5 14.1642 1.83579 14.5 2.25 14.5H8V16H2.25C1.00735 16 0 14.9926 0 13.75V2.25ZM6.25 6.49618C6.25 4.84144 7.59144 3.5 9.24618 3.5H9.99618V5H9.24618C8.41987 5 7.75 5.66986 7.75 6.49618V7H8.75H9.5V8.5H8.75H7.75V9.50439C7.75 11.1588 6.40883 12.5 4.75439 12.5H4.00439V11H4.75439C5.5804 11 6.25 10.3304 6.25 9.50439V8.5H5.25H4.5V7H5.25H6.25V6.49618Z" fill="currentColor"></path>
  <path d="M15.7246 11.3857L14.548 10.0483H10.4518L9.27511 11.3857C8.92434 11.7843 8.94634 12.3876 9.3252 12.7597L12.4999 15.8775L15.6745 12.7597C16.0533 12.3876 16.0753 11.7844 15.7246 11.3857Z" fill="#CA2A30"></path>
  <path fill-rule="evenodd" clip-rule="evenodd" d="M12.4661 9.48831C13.6686 9.49258 14.8004 9.91649 14.7973 10.5166C14.7941 11.1166 13.7447 11.5332 12.5424 11.5287C11.3401 11.5242 10.1984 11.1295 10.2017 10.5296C10.2045 9.92962 11.2638 9.48383 12.4661 9.48831Z" fill="#F87274"></path></svg>