<svg xmlns="http://www.w3.org/2000/svg" data-testid="geist-icon" height="16" stroke-linejoin="round" style="color:currentColor" viewBox="0 0 16 16" width="16">
<path d="M10.5713 1.06055C11.7428 -0.110799 13.6419 -0.110799 14.8135 1.06055C15.985 2.23212 15.985 4.13214 14.8135 5.30371L7.47949 12.6357C7.28634 14.5255 5.6908 16 3.75 16H0V12.25C1.43257e-07 10.4118 1.3228 8.88311 3.06836 8.5625L10.5713 1.06055ZM14.25 11.75C14.25 12.3023 14.6977 12.75 15.25 12.75H16V14.25H15.25C14.6977 14.25 14.25 14.6977 14.25 15.25V16H12.75V15.25C12.75 14.6977 12.3023 14.25 11.75 14.25H11V12.75H11.75C12.3023 12.75 12.75 12.3023 12.75 11.75V11H14.25V11.75ZM3.29297 10.0459C2.26941 10.257 1.5 11.1639 1.5 12.25V14.5H3.75C4.83635 14.5 5.74227 13.73 5.95312 12.7061L3.29297 10.0459ZM4.56055 9.19238L6.68164 11.3135L7.9668 10.0273L5.8457 7.90625L4.56055 9.19238ZM13.7529 2.12109C13.1672 1.53553 12.2176 1.53553 11.6318 2.12109L6.90625 6.8457L9.02734 8.9668L13.7529 4.24219C14.3385 3.65639 14.3387 2.70682 13.7529 2.12109ZM3.25 0V0.75C3.25 1.30228 3.69772 1.75 4.25 1.75H5V3.25H4.25C3.69772 3.25 3.25 3.69772 3.25 4.25V5H1.75V4.25C1.75 3.69772 1.30228 3.25 0.75 3.25H0V1.75H0.75C1.30228 1.75 1.75 1.30228 1.75 0.75V0H3.25Z" fill="currentColor"></path>
</svg>