<svg xmlns="http://www.w3.org/2000/svg" data-testid="geist-icon" height="16" stroke-linejoin="round" style="color:currentColor" viewBox="0 0 16 16" width="16">
<path d="M5.70557 8.63209V10.2557C6.94029 10.2557 8.1264 9.77931 9.0014 8.93347C9.8764 8.08764 10.3722 6.9307 10.3722 5.73486H8.70001C8.70001 6.50292 8.37918 7.24181 7.82501 7.78625C7.26112 8.32097 6.50279 8.63209 5.70557 8.63209Z" fill="currentColor"></path>
<path d="M5.70533 13.1042C4.91783 13.1042 4.15949 12.8028 3.60533 12.2584C3.05116 11.7139 2.73033 10.9848 2.73033 10.2167C2.73033 9.44867 3.04144 8.7195 3.60533 8.17505C4.15949 7.63061 4.91783 7.32922 5.70533 7.32922V5.71533C5.09283 5.71533 4.49005 5.832 3.93588 6.05561C3.37199 6.27922 2.86644 6.60978 2.42894 7.02783C2.00116 7.44589 1.65116 7.94172 1.41783 8.48617C1.18449 9.03061 1.06783 9.61394 1.05811 10.207C1.05811 10.8001 1.17477 11.3834 1.40811 11.9278C1.64144 12.4723 1.98172 12.9681 2.40949 13.3862C2.83727 13.8042 3.35255 14.1348 3.91644 14.3584C4.48033 14.582 5.0831 14.6987 5.68588 14.6987H5.6956V13.1042H5.70533Z" fill="currentColor"></path>
<path d="M5.70557 13.1043V14.7182C6.93057 14.7182 8.11668 14.2418 8.98196 13.4057C9.84723 12.5696 10.3431 11.4224 10.3431 10.2266H8.68057C8.68057 10.9946 8.36946 11.7238 7.80557 12.2682C7.2514 12.7932 6.49307 13.0946 5.70557 13.1043Z" fill="currentColor"></path>
<path d="M5.70557 4.12094V5.73483C6.93057 5.73483 8.11668 5.25844 8.98196 4.42233C9.84723 3.5765 10.3431 2.439 10.3431 1.24316H8.68057C8.68057 2.01122 8.36946 2.74039 7.80557 3.28483C7.2514 3.80983 6.49307 4.12094 5.70557 4.12094Z" fill="currentColor"></path>
<path d="M10.3623 4.12094V5.73483C11.5873 5.73483 12.7734 5.25844 13.6387 4.42233C14.504 3.5765 14.9998 2.439 14.9998 1.24316H13.3373C13.3373 2.01122 13.0262 2.74039 12.4623 3.28483C11.9081 3.80983 11.1595 4.12094 10.3623 4.12094Z" fill="currentColor"></path>
</svg>