<svg xmlns="http://www.w3.org/2000/svg" data-testid="geist-icon" height="16" stroke-linejoin="round" style="color:currentColor" viewBox="0 0 16 16" width="16">
<path d="M5.54004 8.65132V10.243C6.75193 10.243 7.90955 9.77276 8.77777 8.94072C9.64598 8.10868 10.1163 6.98723 10.1163 5.81152H8.47027C8.47027 6.57121 8.16278 7.29473 7.60205 7.81928C7.07751 8.34382 6.31782 8.65132 5.54004 8.65132Z" fill="#3BE081"></path>
<path d="M5.54007 13.0286C4.7623 13.0286 4.02069 12.7392 3.47806 12.1965C2.93542 11.672 2.62793 10.9485 2.62793 10.2069C2.62793 9.46527 2.93542 8.74176 3.47806 8.21721C4.02069 7.69266 4.7623 7.38517 5.54007 7.38517V5.81152C4.94317 5.81152 4.34627 5.92005 3.80364 6.13711C3.261 6.35416 2.75454 6.67974 2.32044 7.09576C1.88633 7.51178 1.56075 7.98207 1.3256 8.5247C1.09046 9.06734 0.981934 9.62806 0.981934 10.2069C0.981934 10.7857 1.09046 11.3645 1.3256 11.889C1.56075 12.4317 1.88633 12.902 2.30235 13.318C2.71837 13.734 3.22483 14.0596 3.76746 14.2766C4.3101 14.4937 4.907 14.6203 5.5039 14.6203H5.52199V13.0286H5.54007Z" fill="#0037FF"></path>
<path d="M5.54004 13.0282V14.6019C6.75193 14.6019 7.89146 14.1316 8.74159 13.3177C9.59172 12.5037 10.0801 11.3642 10.0801 10.2065H8.45218C8.45218 10.9481 8.14469 11.6717 7.60205 12.1962C7.05942 12.7208 6.31782 13.0282 5.54004 13.0282Z" fill="#00CCFF"></path>
<path d="M5.54004 4.21965V5.7933C6.75193 5.7933 7.89146 5.32301 8.74159 4.50906C9.59172 3.67702 10.0801 2.55557 10.0801 1.39795H8.45218C8.45218 2.13955 8.14469 2.86307 7.60205 3.38761C7.05942 3.93025 6.31782 4.21965 5.54004 4.21965Z" fill="#861DFF"></path>
<path d="M10.46 4.45452V6.02816C11.6718 6.02816 12.8114 5.55788 13.6615 4.74392C14.5116 3.91188 15 2.79044 15 1.63281H13.3721C13.3721 2.37441 13.0646 3.09793 12.522 3.62248C11.9613 4.14702 11.2377 4.45452 10.46 4.45452Z" fill="#FF8110"></path>

</svg>