<svg xmlns="http://www.w3.org/2000/svg" data-testid="geist-icon" height="16" stroke-linejoin="round" style="color:currentColor" viewBox="0 0 16 16" width="16"><path d="M14.13 5.26096C14.0999 5.22807 14.0679 5.19523 14.0358 5.16429C14.0038 5.13332 13.9737 5.09853 13.9416 5.06759C13.9096 5.03666 13.8794 5.00187 13.8474 4.9709C13.8154 4.93996 13.7852 4.90517 13.7532 4.87423C13.7212 4.8433 13.691 4.80847 13.659 4.77753C13.627 4.7466 13.5968 4.71181 13.5648 4.68087C13.5328 4.64994 13.5026 4.61511 13.4706 4.58417C14.4052 5.52678 14.9406 6.80909 14.961 8.15372C14.961 11.3578 11.7918 13.9644 7.89529 13.9644C5.71341 13.9644 3.76137 13.1464 2.46318 11.8644L3.12265 12.5412C4.41895 13.8773 6.41432 14.7378 8.64895 14.7378C12.5454 14.7378 15.7147 12.1312 15.7147 8.93683C15.7147 7.57169 15.1419 6.27808 14.13 5.26096Z" fill="black" style="fill:black;fill-opacity:1;"></path>
<path d="M14.49 8.15373C14.49 11.0948 11.5375 13.479 7.89534 13.479C4.25319 13.479 1.30068 11.0948 1.30068 8.15373C1.30068 6.33028 2.43119 4.71954 4.16841 3.76433C5.90564 2.80909 6.98716 1.83066 7.89534 1.83066C8.80351 1.83066 9.57979 2.62926 11.6222 3.76433C13.3595 4.71954 14.49 6.33028 14.49 8.15373Z" fill="#FBF0DF" style="fill:#FBF0DF;fill:color(display-p3 0.9843 0.9412 0.8745);fill-opacity:1;"></path>
<path d="M14.49 8.15373C14.489 7.77591 14.4385 7.39996 14.3394 7.03608C13.825 13.4751 6.17145 13.7845 3.1624 11.8586C4.51507 12.9346 6.18411 13.506 7.89534 13.479C11.5318 13.479 14.49 11.091 14.49 8.15373Z" fill="#F6DECE" style="fill:#F6DECE;fill:color(display-p3 0.9647 0.8706 0.8078);fill-opacity:1;"></path>
<path d="M5.35734 3.41046C6.19956 2.89224 7.31875 1.91961 8.41915 1.91768C8.24984 1.86152 8.07322 1.83218 7.89534 1.83066C7.43936 1.83066 6.95325 2.07237 6.34087 2.4359C6.12795 2.56352 5.90751 2.70467 5.67388 2.85163C5.23485 3.13008 4.73179 3.44527 4.16653 3.76046C2.37278 4.75629 1.30068 6.39796 1.30068 8.15373C1.30068 8.23108 1.30068 8.30844 1.30068 8.38384C2.4425 4.24389 4.51699 3.92867 5.35734 3.41046Z" fill="#FFFEFC" style="fill:#FFFEFC;fill:color(display-p3 1.0000 0.9961 0.9882);fill-opacity:1;"></path>
<path fill-rule="evenodd" clip-rule="evenodd" d="M7.35278 2.31988C7.35542 2.77646 7.26204 3.22825 7.07894 3.64439C6.89587 4.06053 6.62744 4.43122 6.29199 4.73117C6.23925 4.77951 6.2807 4.8723 6.34853 4.84523C6.98349 4.59192 7.84079 3.83392 7.47905 2.30441C7.46397 2.2174 7.35278 2.2406 7.35278 2.31988ZM7.78051 2.31988C8.01106 2.70592 8.15752 3.13856 8.20986 3.58814C8.26224 4.03773 8.21924 4.4936 8.08385 4.92454C8.06123 4.99221 8.14226 5.05022 8.1875 4.99413C8.60011 4.4527 8.95998 3.3776 7.88225 2.2174C7.82759 2.16712 7.74281 2.24447 7.78051 2.31215V2.31988ZM8.30053 2.28701C8.66158 2.54932 8.96359 2.88804 9.18623 3.28031C9.4089 3.67259 9.54698 4.10931 9.59119 4.56099C9.58928 4.57728 9.59355 4.59368 9.60311 4.60682C9.61267 4.61995 9.6268 4.62881 9.64254 4.63153C9.65832 4.63425 9.67447 4.63069 9.68771 4.62149C9.70095 4.61233 9.71026 4.59828 9.71368 4.58228C9.88703 3.90741 9.78904 2.75689 8.36272 2.15939C8.28736 2.12845 8.23837 2.23287 8.30053 2.27928V2.28701ZM4.82235 4.29803C5.25177 4.16636 5.64942 3.94331 5.98932 3.64348C6.32922 3.34364 6.60375 2.97369 6.79506 2.55772C6.82901 2.48811 6.93637 2.51518 6.91941 2.59253C6.59346 4.13947 5.50251 4.46237 4.82422 4.41985C4.75261 4.42177 4.75452 4.31929 4.82235 4.29803Z" fill="#CCBEA7" style="fill:#CCBEA7;fill:color(display-p3 0.8000 0.7451 0.6549);fill-opacity:1;"></path>
<path d="M7.89529 13.9644C3.9988 13.9644 0.82959 11.3578 0.82959 8.15375C0.82959 6.2201 1.99401 4.41596 3.94413 3.33506C4.50939 3.02568 4.99362 2.71436 5.42511 2.44171C5.66254 2.29088 5.88672 2.14973 6.10344 2.01824C6.76477 1.61604 7.33003 1.34726 7.89529 1.34726C8.46055 1.34726 8.9542 1.5793 9.5722 1.95443C9.76063 2.06465 9.94903 2.18453 10.1506 2.31602C10.6198 2.61381 11.1492 2.95026 11.8464 3.33506C13.7965 4.41596 14.961 6.21812 14.961 8.15372C14.961 11.3578 11.7918 13.9644 7.89529 13.9644ZM7.89534 1.83066C7.43936 1.83066 6.95325 2.07237 6.34087 2.4359C6.12795 2.56352 5.90751 2.70467 5.67388 2.85163C5.23485 3.13008 4.73179 3.44527 4.16653 3.76046C2.37278 4.75629 1.30068 6.39796 1.30068 8.15373C1.30068 11.091 4.2588 13.481 7.89529 13.481C11.5317 13.481 14.49 11.091 14.49 8.15373C14.49 6.39796 13.4179 4.75629 11.6222 3.76433C10.91 3.37759 10.3541 3.01408 9.90382 2.72789C9.69843 2.59834 9.51004 2.47845 9.33856 2.3721C8.76764 2.02404 8.35128 1.83066 7.89534 1.83066Z" fill="black" style="fill:black;fill-opacity:1;"></path>
<path d="M9.22342 9.56532C9.13879 9.92111 8.94609 10.24 8.67324 10.4761C8.46837 10.6799 8.20317 10.8078 7.91955 10.8396C7.62743 10.8128 7.35293 10.6846 7.1414 10.4761C6.87131 10.2389 6.68137 9.92012 6.59876 9.56532C6.596 9.54428 6.59802 9.52284 6.60461 9.50268C6.61115 9.48253 6.62215 9.46421 6.63672 9.44909C6.65125 9.43398 6.66897 9.42246 6.68854 9.41547C6.70807 9.40849 6.72893 9.40617 6.74949 9.40871H9.07456C9.09498 9.40646 9.11561 9.40904 9.13492 9.41617C9.15423 9.42331 9.1717 9.43486 9.18605 9.44994C9.20036 9.46502 9.21117 9.48323 9.21765 9.50324C9.22412 9.52321 9.22611 9.54443 9.22342 9.56532Z" fill="#B71422" style="fill:#B71422;fill:color(display-p3 0.7176 0.0784 0.1333);fill-opacity:1;"></path>
<path d="M7.14176 10.4916C7.35285 10.7002 7.62636 10.8297 7.91804 10.8589C8.20905 10.8292 8.48186 10.6998 8.69244 10.4916C8.75982 10.4271 8.82275 10.358 8.88087 10.2847C8.76479 10.1495 8.62299 10.0402 8.46424 9.96337C8.30546 9.88653 8.13306 9.84387 7.95761 9.83798C7.76988 9.84254 7.58608 9.89385 7.42196 9.9875C7.25784 10.0811 7.11837 10.2143 7.01553 10.3755C7.05886 10.4162 7.09656 10.4548 7.14176 10.4916Z" fill="#FF6164" style="fill:#FF6164;fill:color(display-p3 1.0000 0.3804 0.3922);fill-opacity:1;"></path>
<path d="M7.17169 10.3388C7.26507 10.2149 7.38465 10.1143 7.52141 10.0446C7.65816 9.97496 7.80849 9.938 7.96117 9.93656C8.24332 9.9451 8.51215 10.0617 8.71482 10.2633C8.75815 10.215 8.7996 10.1647 8.83918 10.1144C8.59948 9.88018 8.28271 9.74696 7.95171 9.74125C7.77487 9.74284 7.60052 9.78454 7.44122 9.86344C7.28192 9.94234 7.1416 10.0565 7.03037 10.1976C7.07491 10.2473 7.1221 10.2944 7.17169 10.3388Z" fill="black" style="fill:black;fill-opacity:1;"></path>
<path d="M7.91204 10.9556C7.59808 10.9274 7.30261 10.7911 7.07357 10.5689C6.78189 10.3157 6.57661 9.97363 6.4876 9.59239C6.4812 9.55848 6.48231 9.5235 6.49077 9.49003C6.49922 9.45659 6.51489 9.42548 6.53659 9.39903C6.56242 9.36703 6.595 9.3415 6.6319 9.32444C6.66883 9.30733 6.70903 9.29913 6.74949 9.30042H9.07456C9.11499 9.29954 9.15508 9.30796 9.1919 9.32503C9.22875 9.34205 9.26138 9.36736 9.28749 9.39903C9.30897 9.42559 9.32435 9.45674 9.33251 9.49021C9.34064 9.52368 9.34138 9.55863 9.33457 9.59239C9.24556 9.97363 9.04028 10.3157 8.7486 10.5689C8.52008 10.7907 8.22535 10.927 7.91204 10.9556ZM6.74949 9.52471C6.71933 9.52471 6.71182 9.53825 6.70991 9.54211C6.78958 9.8727 6.96974 10.1687 7.2243 10.3871C7.41045 10.5753 7.65248 10.6944 7.91204 10.7255C8.17091 10.6948 8.41268 10.5772 8.59975 10.391C8.85354 10.1722 9.033 9.87627 9.11226 9.54601C9.10814 9.53979 9.10244 9.5349 9.09579 9.53185C9.08917 9.52876 9.08181 9.52766 9.07456 9.52857L6.74949 9.52471Z" fill="black" style="fill:black;fill-opacity:1;"></path>
<path d="M10.7631 9.68522C11.3718 9.68522 11.8653 9.3874 11.8653 9.02002C11.8653 8.65265 11.3718 8.35483 10.7631 8.35483C10.1543 8.35483 9.66084 8.65265 9.66084 9.02002C9.66084 9.3874 10.1543 9.68522 10.7631 9.68522Z" fill="#FEBBD0" style="fill:#FEBBD0;fill:color(display-p3 0.9961 0.7333 0.8157);fill-opacity:1;"></path>
<path d="M5.05995 9.68522C5.66872 9.68522 6.16222 9.3874 6.16222 9.02002C6.16222 8.65265 5.66872 8.35483 5.05995 8.35483C4.45121 8.35483 3.95772 8.65265 3.95772 9.02002C3.95772 9.3874 4.45121 9.68522 5.05995 9.68522Z" fill="#FEBBD0" style="fill:#FEBBD0;fill:color(display-p3 0.9961 0.7333 0.8157);fill-opacity:1;"></path>
<path fill-rule="evenodd" clip-rule="evenodd" d="M5.57759 8.75319C5.78302 8.7536 5.98392 8.69144 6.15492 8.57458C6.32588 8.45773 6.45925 8.29147 6.53811 8.09682C6.61697 7.90218 6.63782 7.68789 6.59795 7.48106C6.55812 7.27428 6.4594 7.08426 6.31426 6.93504C6.16915 6.78585 5.98418 6.68419 5.78272 6.64292C5.58127 6.60165 5.37246 6.62265 5.18263 6.70321C4.99284 6.78379 4.83056 6.92036 4.71643 7.09563C4.60226 7.27086 4.54131 7.47694 4.54131 7.68774C4.54131 7.97 4.65044 8.24071 4.84472 8.44044C5.039 8.6402 5.30258 8.75268 5.57759 8.75319ZM10.2447 8.75319C10.4504 8.75474 10.6518 8.69353 10.8236 8.57741C10.9953 8.46126 11.1295 8.29541 11.2093 8.10087C11.289 7.90633 11.3106 7.69186 11.2714 7.48467C11.2322 7.27748 11.1339 7.08691 10.9891 6.93714C10.8442 6.78736 10.6592 6.68511 10.4576 6.64336C10.256 6.60165 10.0469 6.62229 9.85673 6.70269C9.66661 6.7831 9.50399 6.91967 9.3896 7.09504C9.27518 7.27042 9.21408 7.47669 9.21408 7.68774C9.21357 7.96916 9.32178 8.23928 9.51495 8.43897C9.70813 8.63869 9.97053 8.75165 10.2447 8.75319Z" fill="black" style="fill:black;fill-opacity:1;"></path>
<path fill-rule="evenodd" clip-rule="evenodd" d="M5.25759 7.75539C5.33479 7.7558 5.41042 7.73262 5.47479 7.68889C5.53919 7.64512 5.58947 7.58277 5.61926 7.50965C5.64909 7.43657 5.65707 7.35602 5.64225 7.27822C5.62739 7.20047 5.59039 7.12896 5.53592 7.0728C5.48144 7.01663 5.41196 6.97831 5.33627 6.96271C5.26053 6.94711 5.18204 6.95491 5.11065 6.98515C5.03929 7.01538 4.97827 7.06669 4.93531 7.13257C4.89239 7.19841 4.86943 7.27587 4.86943 7.35513C4.86943 7.46095 4.91026 7.56247 4.98302 7.63747C5.05577 7.7125 5.15449 7.75488 5.25759 7.75539ZM9.9247 7.75539C10.0019 7.7558 10.0775 7.73262 10.1419 7.68889C10.2063 7.64512 10.2566 7.58277 10.2864 7.50965C10.3162 7.43657 10.3242 7.35602 10.3094 7.27822C10.2945 7.20047 10.2575 7.12896 10.2031 7.0728C10.1486 7.01663 10.0791 6.97831 10.0034 6.96271C9.92768 6.94711 9.84915 6.95491 9.77779 6.98515C9.7064 7.01538 9.64538 7.06669 9.60242 7.13257C9.55949 7.19841 9.53658 7.27587 9.53658 7.35513C9.53658 7.46029 9.57689 7.56122 9.6488 7.63614C9.72074 7.71103 9.81847 7.75388 9.92095 7.75539H9.9247Z" fill="white" style="fill:white;fill-opacity:1;"></path></svg>