<svg xmlns="http://www.w3.org/2000/svg" data-testid="geist-icon" height="16" stroke-linejoin="round" style="color:currentColor" viewBox="0 0 16 16" width="16">
<path d="M3.48542 8.61743C3.3675 8.82382 3.03092 8.82382 2.91299 8.61743L2.63095 8.12388C2.58591 8.04506 2.58591 7.95226 2.63095 7.87344L2.91299 7.37989C3.03092 7.1735 3.3675 7.1735 3.48542 7.37989L3.76746 7.87344C3.81249 7.95226 3.81249 8.04506 3.76746 8.12388L3.48542 8.61743ZM3.48542 11.4166C3.3675 11.623 3.03092 11.623 2.91299 11.4166L2.63095 10.923C2.58591 10.8442 2.58591 10.7514 2.63095 10.6726L2.91299 10.179C3.03092 9.97266 3.3675 9.97266 3.48542 10.179L3.76746 10.6726C3.81249 10.7514 3.81249 10.8442 3.76746 10.923L3.48542 11.4166Z" fill="currentColor"></path>
<path d="M0 10.3545C0 10.105 0.344685 9.98008 0.546275 10.1565L2.01296 11.4398C2.21455 11.6162 2.07177 11.9178 1.78668 11.9178H0.32C0.143269 11.9178 0 11.7925 0 11.6378V10.3545ZM0 9.00268C0 9.07694 0.0337142 9.14817 0.0937258 9.20067L3.10532 11.8358C3.16533 11.8883 3.24672 11.9178 3.33158 11.9178H4.98573C5.27082 11.9178 5.4136 11.6162 5.212 11.4398L0.546275 7.35732C0.344685 7.18092 0 7.30585 0 7.5553V9.00268ZM0 6.20352C0 6.27778 0.0337142 6.349 0.0937258 6.40151L6.30435 11.8358C6.36435 11.8883 6.44576 11.9178 6.53062 11.9178H8.18477C8.46986 11.9178 8.61264 11.6162 8.41104 11.4398L0.546275 4.55816C0.344688 4.38177 0 4.5067 0 4.75615V6.20352ZM3.19904 6.20352C3.19904 6.27778 3.23277 6.349 3.29277 6.40151L9.05085 11.4398C9.25245 11.6162 9.59712 11.4913 9.59712 11.2418V9.79446C9.59712 9.72021 9.56339 9.64898 9.50339 9.59648L3.74531 4.55816C3.54371 4.38177 3.19904 4.5067 3.19904 4.75615V6.20352ZM6.94435 4.55816C6.74275 4.38177 6.39808 4.5067 6.39808 4.75615V6.20352C6.39808 6.27778 6.43181 6.349 6.49181 6.40151L9.05085 8.64067C9.25245 8.81707 9.59712 8.69213 9.59712 8.44268V6.9953C9.59712 6.92105 9.56339 6.84982 9.50339 6.79732L6.94435 4.55816Z" fill="currentColor"></path>
<path d="M13.6077 10.3885L10.5956 7.75299C10.394 7.57659 10.0493 7.70152 10.0493 7.95097V11.6376C10.0493 11.7922 10.1926 11.9176 10.3693 11.9176H15.0351C15.2118 11.9176 15.3551 11.7922 15.3551 11.6376V11.3018C15.3551 11.1472 15.2112 11.0237 15.036 11.0037C14.4981 10.9425 13.9951 10.7275 13.6077 10.3885ZM11.5848 11.0218C11.3023 11.0218 11.073 10.8212 11.073 10.574C11.073 10.3267 11.3023 10.1261 11.5848 10.1261C11.8674 10.1261 12.0967 10.3267 12.0967 10.574C12.0967 10.8212 11.8674 11.0218 11.5848 11.0218Z" fill="currentColor"></path>
<path d="M0 11.6378C0 11.7925 0.143269 11.9178 0.32 11.9178H1.78668C2.07177 11.9178 2.21455 11.6162 2.01296 11.4398L0.546275 10.1565C0.344685 9.98008 0 10.105 0 10.3545V11.6378ZM3.19904 6.87933L0.546275 4.55816C0.344685 4.38177 0 4.50669 0 4.75615V6.20352C0 6.27778 0.0337142 6.349 0.0937258 6.4015L3.19904 9.11866V6.87933ZM0.546275 7.35732C0.344685 7.18092 0 7.30585 0 7.5553V9.00268C0 9.07694 0.0337142 9.14817 0.0937258 9.20067L3.19904 11.9178V9.67849L0.546275 7.35732Z" fill="currentColor"></path>
<path d="M6.39826 6.9953C6.39826 6.92105 6.36456 6.84982 6.30453 6.79732L3.74549 4.55816C3.54392 4.38177 3.19922 4.50669 3.19922 4.75615V6.20352C3.19922 6.27778 3.23294 6.349 3.29294 6.4015L6.39826 9.11866V6.9953ZM3.19922 11.9178H4.9859C5.27099 11.9178 5.41378 11.6162 5.21218 11.4398L3.19922 9.67849V11.9178ZM3.19922 6.87933V9.00268C3.19922 9.07694 3.23294 9.14817 3.29294 9.20067L6.39826 11.9178V9.79446C6.39826 9.72021 6.36456 9.64898 6.30453 9.59648L3.19922 6.87933Z" fill="currentColor"></path></svg>