<svg xmlns="http://www.w3.org/2000/svg" data-testid="geist-icon" height="16" stroke-linejoin="round" style="color:currentColor" viewBox="0 0 16 16" width="16"><path d="M14.3038 7.872L12.5118 7.456L12.1918 7.328L3.96777 7.392V11.36L14.3038 11.392V7.872Z" fill="white"></path>
<path d="M10.9441 11.008C10.9956 10.8717 11.0138 10.7251 10.9971 10.5804C10.9804 10.4356 10.9293 10.297 10.8481 10.176C10.7648 10.0761 10.6625 9.99351 10.5472 9.93311C10.4319 9.87271 10.3058 9.83564 10.1761 9.82402L4.60814 9.76002C4.57614 9.76002 4.54414 9.72802 4.51214 9.72802C4.50469 9.72243 4.49864 9.71518 4.49447 9.70685C4.49031 9.69852 4.48814 9.68933 4.48814 9.68002C4.48814 9.6707 4.49031 9.66151 4.49447 9.65318C4.49864 9.64485 4.50469 9.6376 4.51214 9.63202C4.54414 9.56802 4.57614 9.53602 4.64014 9.53602L10.2401 9.47202C10.5957 9.43256 10.9343 9.29911 11.2211 9.08539C11.5079 8.87167 11.7326 8.5854 11.8721 8.25602L12.1921 7.42402C12.1921 7.39202 12.2241 7.36002 12.1921 7.32802C12.0182 6.55311 11.596 5.85618 10.9898 5.34312C10.3835 4.83006 9.62638 4.52893 8.83338 4.48548C8.04037 4.44202 7.25486 4.65863 6.5962 5.10238C5.93754 5.54612 5.44174 6.19276 5.18414 6.94402C4.84973 6.70518 4.44182 6.59187 4.03214 6.62402C3.65616 6.66594 3.30563 6.8345 3.03813 7.102C2.77062 7.3695 2.60206 7.72004 2.56014 8.09602C2.53883 8.28846 2.54965 8.48311 2.59214 8.67202C1.9838 8.68883 1.40603 8.94233 0.981719 9.37859C0.557411 9.81485 0.320056 10.3994 0.32014 11.008C0.314889 11.1263 0.325653 11.2447 0.35214 11.36C0.353609 11.385 0.364196 11.4086 0.381891 11.4263C0.399586 11.444 0.42316 11.4545 0.448141 11.456H10.7201C10.7841 11.456 10.8481 11.424 10.8481 11.36L10.9441 11.008Z" fill="#F48120"></path>
<path d="M12.7038 7.42401H12.5438C12.5118 7.42401 12.4798 7.45601 12.4478 7.48801L12.2238 8.25601C12.1723 8.3923 12.1542 8.53893 12.1709 8.68366C12.1876 8.82839 12.2386 8.96703 12.3198 9.08801C12.4032 9.18798 12.5054 9.27052 12.6207 9.33092C12.7361 9.39132 12.8621 9.42839 12.9918 9.44001L14.1758 9.50401C14.2078 9.50401 14.2398 9.53601 14.2718 9.53601C14.2792 9.5416 14.2853 9.54885 14.2895 9.55718C14.2936 9.56551 14.2958 9.5747 14.2958 9.58401C14.2958 9.59333 14.2936 9.60251 14.2895 9.61084C14.2853 9.61918 14.2792 9.62642 14.2718 9.63201C14.2398 9.69601 14.2078 9.72801 14.1438 9.72801L12.9278 9.79201C12.5723 9.83147 12.2337 9.96492 11.9468 10.1786C11.66 10.3924 11.4353 10.6786 11.2958 11.008L11.2318 11.296C11.1998 11.328 11.2318 11.392 11.2958 11.392H15.5198C15.5328 11.3939 15.5461 11.3927 15.5586 11.3885C15.5711 11.3843 15.5825 11.3773 15.5918 11.368C15.6011 11.3587 15.6081 11.3473 15.6123 11.3348C15.6165 11.3223 15.6177 11.3091 15.6158 11.296C15.692 11.0249 15.735 10.7455 15.7438 10.464C15.7387 9.65932 15.4168 8.88903 14.8478 8.32001C14.2788 7.751 13.5085 7.42908 12.7038 7.42401Z" fill="#FAAD3F"></path>
</svg>