<svg xmlns="http://www.w3.org/2000/svg" data-testid="geist-icon" height="16" stroke-linejoin="round" style="color:currentColor" viewBox="0 0 16 16" width="16"><path d="M5.82611 6.08707L14.2751 1.33301C14.2751 1.33301 13.4785 2.0337 13.5136 3.55046C13.5509 5.16689 14.2751 5.76796 14.2751 5.76796L13.2823 5.31562L5.51023 8.35816C5.51023 8.35816 5.32153 7.82946 5.31845 7.43097C5.31043 6.44786 5.82611 6.08707 5.82611 6.08707Z" fill="#029DD1"></path>
<path d="M4.02883 9.19457L13.2599 5.81787C13.2599 5.81787 12.4633 6.51857 12.4984 8.03537C12.5357 9.6518 13.2599 10.2528 13.2599 10.2528L11.9702 9.75637L3.68479 11.3873C3.68479 11.3873 3.5241 10.9 3.52109 10.5385C3.5132 9.55531 4.02883 9.19457 4.02883 9.19457Z" fill="#0047BD"></path>
<path d="M2.23293 11.9333L11.9726 10.186C11.9726 10.186 11.1761 10.8867 11.2111 12.4035C11.2484 14.0199 11.9726 14.621 11.9726 14.621H2.30566C2.30566 14.621 1.73376 14.2736 1.72519 13.2267C1.7173 12.2436 2.23293 11.9333 2.23293 11.9333Z" fill="#4817A1"></path></svg>