<svg xmlns="http://www.w3.org/2000/svg" data-testid="geist-icon" height="16" stroke-linejoin="round" style="color:currentColor" viewBox="0 0 16 16" width="16">
<path d="M10.4387 12.1562H5.56129C4.40959 12.1562 3.30503 11.7184 2.49065 10.9389C1.67627 10.1595 1.21875 9.1023 1.21875 8C1.21875 6.8977 1.67627 5.84052 2.49065 5.06109C3.30503 4.28164 4.40959 3.84375 5.56129 3.84375H10.4387C11.5904 3.84375 12.695 4.28164 13.5093 5.06109C14.3237 5.84052 14.7812 6.8977 14.7812 8C14.7812 9.1023 14.3237 10.1595 13.5093 10.9389C12.695 11.7184 11.5904 12.1562 10.4387 12.1562ZM10.4576 4.93837C9.82494 4.93837 9.20649 5.11792 8.68042 5.45434C8.15439 5.79078 7.74437 6.26892 7.50226 6.82837C7.26014 7.38781 7.19679 8.00339 7.32021 8.5973C7.44365 9.19118 7.74833 9.73672 8.19567 10.1649C8.64306 10.5931 9.21303 10.8847 9.83354 11.0028C10.4541 11.1209 11.0973 11.0603 11.6818 10.8286C12.2663 10.5968 12.7659 10.2044 13.1174 9.70096C13.4689 9.19746 13.6565 8.60552 13.6565 8C13.6567 7.59733 13.5739 7.19857 13.4128 6.82658C13.2517 6.4546 13.0155 6.11672 12.7176 5.83228C12.4198 5.54783 12.0663 5.32248 11.6773 5.16909C11.2883 5.01568 10.8715 4.93728 10.4507 4.93837H10.4576Z" fill="currentColor"></path></svg>