<svg xmlns="http://www.w3.org/2000/svg" data-testid="geist-icon" height="16" stroke-linejoin="round" style="color:currentColor" viewBox="0 0 16 16" width="16">
<path d="M7.97723 14.618C12.0892 14.618 15.4222 11.9264 15.4222 8.60708C15.4222 6.54891 14.1461 4.73091 12.1844 3.65267C11.3861 3.20905 10.759 2.81086 10.237 2.47986C9.25394 1.85519 8.64731 1.47006 7.97723 1.47006C7.29656 1.47006 6.52942 1.95723 5.51651 2.59994C4.94586 2.96994 4.36319 3.32104 3.76943 3.65267C1.80832 4.73091 0.532227 6.54891 0.532227 8.60708C0.532227 11.9264 3.86524 14.618 7.97723 14.618ZM7.10804 3.5245C7.31503 3.0534 7.42039 2.54396 7.41727 2.0294C7.41727 1.93981 7.54232 1.91368 7.55974 2.01198C7.96789 3.73853 6.99978 4.59403 6.28365 4.88023C6.2065 4.91009 6.15984 4.80557 6.21957 4.75081C6.59987 4.41015 6.90282 3.99201 7.10804 3.5245ZM8.38476 3.46104C8.32588 2.95511 8.16048 2.4674 7.89945 2.03002V2.02069C7.85715 1.94416 7.95296 1.85706 8.01456 1.91368C9.23154 3.22336 8.82526 4.43661 8.35925 5.04759C8.30823 5.11106 8.21677 5.04573 8.24228 4.9692C8.39526 4.48208 8.44381 3.96818 8.38476 3.46104ZM9.48664 3.11324C9.23704 2.67272 8.89614 2.29067 8.48679 1.99269V1.98398C8.41711 1.9311 8.47186 1.81351 8.5571 1.84835C10.1673 2.52279 10.278 3.82128 10.0827 4.58283C10.0787 4.60082 10.068 4.61663 10.0528 4.627C10.038 4.63744 10.0197 4.64159 10.0019 4.63856C9.98404 4.63553 9.96813 4.62556 9.95762 4.61082C9.94674 4.59594 9.94185 4.57751 9.94394 4.55918C9.89446 4.05049 9.73866 3.55787 9.48664 3.11324ZM6.33094 3.46104C5.94768 3.7995 5.53517 3.93265 5.05049 4.08135C4.97832 4.08135 4.92979 4.03282 4.95406 3.96936C6.041 3.40504 6.428 2.94587 6.81437 2.2453C6.81437 2.2453 6.91081 2.1725 6.93134 2.29818C6.93134 2.4867 6.71482 3.12257 6.33094 3.46104ZM9.39891 10.4326C9.31077 10.8068 9.10728 11.144 8.81717 11.3963C8.60236 11.6109 8.32122 11.7464 8.01954 11.7808C7.70893 11.7517 7.41803 11.6159 7.19639 11.3963C6.90907 11.1429 6.70827 10.8059 6.62212 10.4326C6.61932 10.4105 6.62143 10.388 6.62832 10.3668C6.6352 10.3456 6.64668 10.3262 6.66194 10.31C6.67721 10.2941 6.69593 10.282 6.71665 10.2746C6.73737 10.2671 6.75953 10.2645 6.7814 10.2671H9.2415C9.26323 10.2646 9.28523 10.2673 9.30575 10.2749C9.32628 10.2824 9.34475 10.2947 9.35971 10.3106C9.37492 10.3267 9.38633 10.346 9.39311 10.3671C9.39989 10.3882 9.40187 10.4106 9.39891 10.4326ZM6.01238 9.08243C5.78772 9.23606 5.51588 9.30511 5.24513 9.27732C4.97438 9.24953 4.72223 9.12669 4.53346 8.93062C4.34125 8.73122 4.22228 8.47257 4.19595 8.19687C4.16963 7.92116 4.2375 7.64467 4.3885 7.4125C4.51729 7.21465 4.70083 7.06097 4.91486 6.97013C5.12854 6.87911 5.36485 6.85524 5.59241 6.90169C5.81951 6.94835 6.02856 7.06346 6.19219 7.23144C6.35645 7.39943 6.46782 7.61471 6.51262 7.8474C6.55783 8.08089 6.53449 8.32248 6.44542 8.543C6.35723 8.7613 6.2066 8.94934 6.01238 9.08243ZM11.2829 9.08554C11.0578 9.23817 10.786 9.30617 10.5156 9.27747C10.2453 9.24877 9.99378 9.12522 9.80581 8.92875C9.5869 8.70107 9.46508 8.39719 9.4661 8.08134C9.4661 7.84305 9.53454 7.60973 9.66458 7.41188C9.79337 7.21402 9.97691 7.05972 10.1916 6.96951C10.4056 6.87878 10.6421 6.85535 10.8697 6.90231C11.0975 6.9496 11.3065 7.0647 11.4701 7.23393C11.6338 7.40317 11.7439 7.61782 11.7887 7.85176C11.8329 8.08555 11.8085 8.32714 11.7184 8.54735C11.6295 8.76577 11.4779 8.95301 11.2829 9.08554Z" fill="currentColor"></path>
</svg>