<svg xmlns="http://www.w3.org/2000/svg" data-testid="geist-icon" height="16" stroke-linejoin="round" style="color:currentColor" viewBox="0 0 16 16" width="16"><path fill-rule="evenodd" clip-rule="evenodd" d="M13.4695 3.39273C14.0722 3.55407 14.5459 4.02773 14.7073 4.63046C14.9988 5.72183 15 8.00023 15 8.00023C15 8.00023 15 10.2786 14.7073 11.37C14.5459 11.9728 14.0722 12.4464 13.4695 12.6077C12.3782 12.9005 7.99998 12.9005 7.99998 12.9005C7.99998 12.9005 3.62183 12.9005 2.53045 12.6077C1.92773 12.4464 1.45407 11.9728 1.29272 11.37C1 10.2786 1 8.00023 1 8.00023C1 8.00023 1 5.72183 1.29272 4.63046C1.45407 4.02773 1.92773 3.55407 2.53045 3.39273C3.62183 3.10001 7.99998 3.10001 7.99998 3.10001C7.99998 3.10001 12.3782 3.10001 13.4695 3.39273ZM10.2362 8.00046L6.59906 10.1002V5.90068L10.2362 8.00046Z" fill="currentColor"></path></svg>