<svg xmlns="http://www.w3.org/2000/svg" data-testid="geist-icon" height="16" stroke-linejoin="round" style="color:currentColor" viewBox="0 0 16 16" width="16"><path d="M8.11693 14.9655C8.05958 14.9645 8.00358 14.948 7.95493 14.9176C7.90629 14.8872 7.86683 14.8442 7.84082 14.7931C7.81531 14.7437 7.80445 14.6881 7.8095 14.6327C7.81455 14.5774 7.83531 14.5246 7.86934 14.4807L11.1418 9.97409L5.40767 12.3191C5.36897 12.3366 5.32699 12.3457 5.28452 12.3457C5.21857 12.345 5.15456 12.3232 5.10185 12.2836C5.04914 12.2439 5.0105 12.1885 4.99156 12.1253C4.97283 12.0626 4.97539 11.9955 4.99884 11.9344C5.02229 11.8733 5.06531 11.8217 5.12119 11.7876L10.1605 8.81196L1.28609 8.30187C1.20907 8.29683 1.13685 8.26268 1.08408 8.20635C1.03132 8.15001 1.00195 8.07572 1.00195 7.99853C1.00195 7.92135 1.03132 7.84705 1.08408 7.79072C1.13685 7.73439 1.20907 7.70024 1.28609 7.6952L10.1657 7.18511L5.12313 4.21011C5.06801 4.17559 5.02581 4.12385 5.00308 4.06292C4.98035 4.00199 4.97835 3.93525 4.99739 3.87307C5.01602 3.80984 5.0545 3.75427 5.10714 3.71459C5.15978 3.67491 5.22379 3.65321 5.28971 3.6527C5.33213 3.65248 5.37412 3.66132 5.41285 3.67862L11.1438 6.02492L7.87063 1.51899C7.83691 1.47478 7.81635 1.42195 7.8113 1.36657C7.80626 1.3112 7.81694 1.25552 7.84211 1.20594C7.86815 1.15462 7.9078 1.11145 7.95673 1.08116C8.00566 1.05086 8.06197 1.03461 8.11952 1.03418C8.15926 1.03444 8.19855 1.04266 8.23507 1.05836C8.27158 1.07405 8.30458 1.09691 8.33211 1.12557L14.8557 7.64853C14.9483 7.74147 15.0003 7.86733 15.0003 7.99853C15.0003 8.12974 14.9483 8.2556 14.8557 8.34853L8.32952 14.8741C8.30199 14.9028 8.26899 14.9256 8.23247 14.9413C8.19596 14.957 8.15667 14.9652 8.11693 14.9655Z" fill="currentColor"></path></svg>