<svg xmlns="http://www.w3.org/2000/svg" data-testid="geist-icon" height="16" stroke-linejoin="round" style="color:currentColor" viewBox="0 0 16 16" width="16"><path d="M10.8604 0C13.6988 0.000189651 15.9998 2.30118 16 5.13965V10.8604C15.9998 13.6988 13.6988 15.9998 10.8604 16H5.13965C2.30118 15.9998 0.000189911 13.6988 0 10.8604V5.13965C0.000189654 2.30118 2.30118 0.000189909 5.13965 0H10.8604ZM12.6357 8.74023C12.4893 8.59396 12.2528 8.59391 12.1064 8.74023L8.83496 12.0107C8.68903 12.1572 8.68882 12.3947 8.83496 12.541C8.98138 12.6874 9.21976 12.6874 9.36621 12.541L12.6357 9.27051C12.7822 9.12406 12.7822 8.88668 12.6357 8.74023ZM12.5977 3.53613C12.4512 3.38978 12.2138 3.38972 12.0674 3.53613L3.68359 11.9199C3.53742 12.0664 3.53732 12.3038 3.68359 12.4502C3.82991 12.5964 4.06743 12.5962 4.21387 12.4502L12.5977 4.06543C12.7438 3.91901 12.7439 3.68252 12.5977 3.53613ZM4.25293 3.34961C3.70087 3.34987 3.25391 3.79749 3.25391 4.34961C3.25402 4.90163 3.70094 5.34935 4.25293 5.34961C4.80514 5.34961 5.25281 4.9018 5.25293 4.34961C5.25293 3.79732 4.80521 3.34961 4.25293 3.34961Z" fill="currentColor"></path></svg>