<svg xmlns="http://www.w3.org/2000/svg" data-testid="geist-icon" height="16" stroke-linejoin="round" style="color:currentColor" viewBox="0 0 16 16" width="16">
<path d="M3.48542 8.70599C3.3675 8.94186 3.03092 8.94186 2.91299 8.70599L2.63095 8.14192C2.58591 8.05184 2.58591 7.94579 2.63095 7.85571L2.91299 7.29165C3.03092 7.05578 3.3675 7.05578 3.48542 7.29165L3.76746 7.85571C3.81249 7.94579 3.81249 8.05184 3.76746 8.14192L3.48542 8.70599ZM3.48542 11.9051C3.3675 12.1409 3.03092 12.1409 2.91299 11.9051L2.63095 11.341C2.58591 11.2509 2.58591 11.1448 2.63095 11.0548L2.91299 10.4907C3.03092 10.2548 3.3675 10.2548 3.48542 10.4907L3.76746 11.0548C3.81249 11.1448 3.81249 11.2509 3.76746 11.341L3.48542 11.9051Z" fill="#1D4AFF"></path>
<path d="M0 10.6904C0 10.4053 0.344685 10.2625 0.546275 10.4641L2.01296 11.9308C2.21455 12.1324 2.07177 12.4771 1.78668 12.4771H0.32C0.143269 12.4771 0 12.3338 0 12.1571V10.6904ZM0 9.1455C0 9.23037 0.0337142 9.31177 0.0937258 9.37177L3.10532 12.3834C3.16532 12.4434 3.24672 12.4771 3.33158 12.4771H4.98573C5.27082 12.4771 5.4136 12.1324 5.212 11.9308L0.546275 7.26509C0.344685 7.06349 0 7.20627 0 7.49136V9.1455ZM0 5.94646C0 6.03133 0.0337142 6.11272 0.0937258 6.17273L6.30435 12.3834C6.36435 12.4434 6.44576 12.4771 6.53062 12.4771H8.18477C8.46986 12.4771 8.61264 12.1324 8.41104 11.9308L0.546275 4.06605C0.344688 3.86446 0 4.00723 0 4.29232V5.94646ZM3.19904 5.94646C3.19904 6.03133 3.23277 6.11272 3.29277 6.17273L9.05085 11.9308C9.25245 12.1324 9.59712 11.9896 9.59712 11.7045V10.0504C9.59712 9.96553 9.56339 9.88413 9.50339 9.82413L3.74531 4.06605C3.54371 3.86446 3.19904 4.00723 3.19904 4.29232V5.94646ZM6.94435 4.06605C6.74275 3.86446 6.39808 4.00723 6.39808 4.29232V5.94646C6.39808 6.03133 6.43181 6.11272 6.49181 6.17273L9.05085 8.73177C9.25245 8.93337 9.59712 8.79059 9.59712 8.5055V6.85136C9.59712 6.76649 9.56339 6.68509 9.50339 6.62509L6.94435 4.06605Z" fill="#F9BD2B"></path>
<path d="M13.6077 10.73L10.5956 7.71791C10.394 7.51631 10.0493 7.65909 10.0493 7.94418V12.1574C10.0493 12.3342 10.1926 12.4774 10.3693 12.4774H15.0351C15.2118 12.4774 15.3551 12.3342 15.3551 12.1574V11.7737C15.3551 11.597 15.2112 11.4559 15.036 11.433C14.4981 11.363 13.9951 11.1174 13.6077 10.73ZM11.5848 11.4537C11.3023 11.4537 11.073 11.2244 11.073 10.9419C11.073 10.6593 11.3023 10.43 11.5848 10.43C11.8674 10.43 12.0967 10.6593 12.0967 10.9419C12.0967 11.2244 11.8674 11.4537 11.5848 11.4537Z" fill="black"></path>
<path d="M0 12.1571C0 12.3338 0.143269 12.4771 0.32 12.4771H1.78668C2.07177 12.4771 2.21455 12.1324 2.01296 11.9308L0.546275 10.4641C0.344685 10.2625 0 10.4053 0 10.6904V12.1571ZM3.19904 6.71881L0.546275 4.06605C0.344685 3.86446 0 4.00723 0 4.29232V5.94646C0 6.03132 0.0337142 6.11272 0.0937258 6.17273L3.19904 9.27804V6.71881ZM0.546275 7.26508C0.344685 7.06348 0 7.20627 0 7.49136V9.1455C0 9.23036 0.0337142 9.31177 0.0937258 9.37177L3.19904 12.4771V9.91785L0.546275 7.26508Z" fill="#1D4AFF"></path>
<path d="M6.39826 6.85136C6.39826 6.76649 6.36456 6.68508 6.30453 6.62508L3.74549 4.06605C3.54392 3.86446 3.19922 4.00723 3.19922 4.29232V5.94646C3.19922 6.03132 3.23294 6.11272 3.29294 6.17273L6.39826 9.27804V6.85136ZM3.19922 12.4771H4.9859C5.27099 12.4771 5.41378 12.1324 5.21218 11.9308L3.19922 9.91785V12.4771ZM3.19922 6.71881V9.1455C3.19922 9.23036 3.23294 9.31177 3.29294 9.37177L6.39826 12.4771V10.0504C6.39826 9.96553 6.36456 9.88412 6.30453 9.82412L3.19922 6.71881Z" fill="#F54E00"></path></svg>