<svg xmlns="http://www.w3.org/2000/svg" data-testid="geist-icon" height="14" stroke-linejoin="round" style="color:currentColor" viewBox="0 0 14 14" width="14"><path fill-rule="evenodd" clip-rule="evenodd" d="M2.25 5C2.59736 5 2.92634 4.92129 3.22006 4.78073L7.00001 8.56067L10.7799 4.78073C11.0737 4.92129 11.4027 5 11.75 5C12.9927 5 14 3.99264 14 2.75C14 1.50736 12.9927 0.5 11.75 0.5C10.5074 0.5 9.50001 1.50736 9.50001 2.75C9.50001 3.09736 9.57872 3.42634 9.71929 3.72006L7.00001 6.43934L4.28073 3.72006C4.42129 3.42634 4.5 3.09736 4.5 2.75C4.5 1.50736 3.49264 0.5 2.25 0.5C1.00736 0.5 0 1.50736 0 2.75C0 3.99264 1.00736 5 2.25 5ZM3 2.75C3 3.16422 2.66422 3.5 2.25 3.5C1.83579 3.5 1.5 3.16422 1.5 2.75C1.5 2.33579 1.83579 2 2.25 2C2.66422 2 3 2.33579 3 2.75ZM11.75 3.5C12.1642 3.5 12.5 3.16422 12.5 2.75C12.5 2.33579 12.1642 2 11.75 2C11.3358 2 11 2.33579 11 2.75C11 3.16422 11.3358 3.5 11.75 3.5Z" fill="currentColor"></path><path fill-rule="evenodd" clip-rule="evenodd" d="M2.25 13.5C3.49264 13.5 4.5 12.4927 4.5 11.25C4.5 10.2703 3.8739 9.43691 3 9.12804V6.5H1.5V9.12804C0.626106 9.43691 0 10.2703 0 11.25C0 12.4927 1.00736 13.5 2.25 13.5ZM3 11.25C3 11.6642 2.66422 12 2.25 12C1.83579 12 1.5 11.6642 1.5 11.25C1.5 10.8358 1.83579 10.5 2.25 10.5C2.66422 10.5 3 10.8358 3 11.25Z" fill="currentColor"></path><path fill-rule="evenodd" clip-rule="evenodd" d="M11.75 13.5C12.9927 13.5 14 12.4927 14 11.25C14 10.2703 13.3739 9.43691 12.5 9.12804V6.5H11V9.12804C10.1261 9.43691 9.50001 10.2703 9.50001 11.25C9.50001 12.4927 10.5074 13.5 11.75 13.5ZM12.5 11.25C12.5 11.6642 12.1642 12 11.75 12C11.3358 12 11 11.6642 11 11.25C11 10.8358 11.3358 10.5 11.75 10.5C12.1642 10.5 12.5 10.8358 12.5 11.25Z" fill="currentColor"></path></svg>