<svg xmlns="http://www.w3.org/2000/svg" data-testid="geist-icon" height="16" stroke-linejoin="round" style="color:currentColor" viewBox="0 0 16 16" width="16"><path d="M8 5.75C8.41421 5.75 8.75 6.08579 8.75 6.5C8.75 6.91421 8.41421 7.25 8 7.25H6C5.58579 7.25 5.25 6.91421 5.25 6.5C5.25 6.08579 5.58579 5.75 6 5.75H8ZM9 3.25C9.41421 3.25 9.75 3.58579 9.75 4C9.75 4.41421 9.41421 4.75 9 4.75H6C5.58579 4.75 5.25 4.41421 5.25 4C5.25 3.58579 5.58579 3.25 6 3.25H9Z" fill="currentColor"></path>
    <path d="M14.25 2.68164C14.25 2.16726 13.8327 1.75 13.3184 1.75C12.9859 1.75004 12.8361 1.82836 12.7646 1.88477C12.6897 1.94403 12.612 2.04987 12.5518 2.26172C12.4897 2.4802 12.4608 2.76074 12.4521 3.10742C12.4493 3.2236 12.4507 3.33692 12.4512 3.4502H14.25V2.68164ZM1.84668 10.8643C2.10595 11.6682 2.85979 12.25 3.75 12.25H7.58691C7.41335 11.8382 7.32221 11.3677 7.28027 10.8643H1.84668ZM4.18164 9.36426H8.75V10.1143C8.75 11.0245 8.87758 11.5619 9.06836 11.8584C9.21137 12.0807 9.44093 12.25 10 12.25C10.5279 12.25 10.9561 11.8219 10.9561 11.2939V4.2002C10.9561 3.87789 10.9429 3.44556 10.9521 3.07031C10.9618 2.68165 10.9948 2.25275 11.1084 1.85254C11.1181 1.81852 11.1296 1.78416 11.1406 1.75H5.63184C4.83102 1.75 4.18164 2.39938 4.18164 3.2002V9.36426ZM15.75 4.9502H12.4561V11.2939C12.4561 12.6503 11.3563 13.75 10 13.75H3.75C1.817 13.75 0.250001 12.183 0.25 10.25V9.36426H2.68164V3.2002C2.68164 1.57095 4.0026 0.25 5.63184 0.25H13.3184C14.6612 0.25 15.75 1.33883 15.75 2.68164V4.9502Z" fill="currentColor"></path></svg>