<svg xmlns="http://www.w3.org/2000/svg" data-testid="geist-icon" height="16" stroke-linejoin="round" style="color:currentColor" viewBox="0 0 16 16" width="16"><path d="M6.75 0C6.75 0.467199 6.89472 0.796975 7.12207 1.06152C7.36434 1.34336 7.73031 1.58445 8.21387 1.79688C8.69588 2.00859 9.24663 2.17117 9.82227 2.3252C10.3749 2.47308 10.9838 2.62025 11.4873 2.78809L12 2.95898V9.52734C11.9999 11.48 10.9162 13.2715 9.18652 14.1777L6.34766 15.6641L6 15.8467L5.65234 15.6641L2.81348 14.1777C1.0838 13.2715 6.42212e-05 11.48 0 9.52734V2.95898L0.512695 2.78809C1.01621 2.62025 1.62506 2.47308 2.17773 2.3252C2.75337 2.17117 3.30412 2.00859 3.78613 1.79688C4.26969 1.58445 4.63566 1.34336 4.87793 1.06152C5.10528 0.796975 5.25 0.467199 5.25 0H6.75ZM5 8.93945L4 7.93945L2.93945 9L4.46973 10.5303C4.76262 10.8232 5.23738 10.8232 5.53027 10.5303L9.06055 7L8 5.93945L5 8.93945Z" fill="currentColor"></path></svg>