<svg xmlns="http://www.w3.org/2000/svg" data-testid="geist-icon" height="16" stroke-linejoin="round" style="color:currentColor" viewBox="0 0 16 16" width="16"><path d="M12.75 2.75C14.5449 2.75 16 4.20507 16 6C16 7.35166 15.175 8.511 14.001 9.00098L15.5 10.5L14 12L15.5 13.5L13 16L11.5 14.5V9.00098C10.3255 8.5112 9.5 7.35197 9.5 6C9.5 4.20507 10.9551 2.75 12.75 2.75ZM5 7.5C6.96963 7.5 8.78237 8.5756 9.72559 10.3047L9.9082 10.6406L10 10.8086V14H0V10.8086L0.0917969 10.6406L0.274414 10.3047C1.21763 8.5756 3.03037 7.5 5 7.5ZM12.75 4.25C12.1977 4.25 11.75 4.69772 11.75 5.25C11.75 5.80228 12.1977 6.25 12.75 6.25C13.3023 6.25 13.75 5.80228 13.75 5.25C13.75 4.69772 13.3023 4.25 12.75 4.25ZM5.25 0C6.76878 0 8 1.23122 8 2.75V3.25C8 4.76878 6.76878 6 5.25 6H4.75C3.23122 6 2 4.76878 2 3.25V2.75C2 1.23122 3.23122 8.05319e-09 4.75 0H5.25Z" fill="currentColor"></path></svg>