<svg xmlns="http://www.w3.org/2000/svg" data-testid="geist-icon" height="16" stroke-linejoin="round" style="color:currentColor" viewBox="0 0 16 16" width="16"><path d="M2.80273 10.1533L0.820312 8.1709V8.16992C0.775339 8.12478 0.75 8.06373 0.75 8C0.75 7.93627 0.77534 7.87522 0.820312 7.83008V7.8291L2.80273 5.84668V3.04395C2.8027 3.01229 2.80822 2.98043 2.82031 2.95117C2.83242 2.9219 2.85065 2.89545 2.87305 2.87305C2.89545 2.85065 2.9219 2.83242 2.95117 2.82031C2.98043 2.80822 3.01229 2.8027 3.04395 2.80273H5.84766L7.83008 0.820312C7.87522 0.77534 7.93627 0.75 8 0.75C8.06373 0.75 8.12478 0.775339 8.16992 0.820312H8.1709L10.1533 2.80273H12.9561C12.9877 2.8027 13.0196 2.80822 13.0488 2.82031C13.0781 2.83242 13.1046 2.85065 13.127 2.87305C13.1494 2.89545 13.1676 2.9219 13.1797 2.95117C13.1918 2.98044 13.1973 3.01229 13.1973 3.04395V5.84766L15.1797 7.83008C15.2247 7.87522 15.25 7.93627 15.25 8C15.25 8.06373 15.2247 8.12478 15.1797 8.16992V8.1709L13.1973 10.1533V12.9561C13.1973 12.9877 13.1918 13.0196 13.1797 13.0488C13.1676 13.0781 13.1494 13.1046 13.127 13.127C13.1046 13.1494 13.0781 13.1676 13.0488 13.1797C13.0196 13.1918 12.9877 13.1973 12.9561 13.1973H10.1533L8.1709 15.1797H8.16992C8.12478 15.2247 8.06373 15.25 8 15.25C7.93627 15.25 7.87522 15.2247 7.83008 15.1797H7.8291L5.84668 13.1973H3.04492C2.91113 13.1973 2.80273 13.0889 2.80273 12.9551V10.1533Z" fill="transparent" stroke="currentColor" stroke-width="1.5"></path><path d="M5.875 8.53125L6.9375 9.59375L10.125 6.40625" fill="none" stroke="currentColor" stroke-width="1.5" stroke-linecap="square" stroke-linejoin="round"></path></svg>