<svg xmlns="http://www.w3.org/2000/svg" data-testid="geist-icon" height="16" stroke-linejoin="round" style="color:currentColor" viewBox="0 0 16 16" width="16"><path d="M5.75 7L6.4209 7.33594L4.85254 10.4717C5.38789 10.771 5.75 11.3431 5.75 12V14C5.75 14.9665 4.96648 15.75 4 15.75H2C1.03352 15.75 0.25 14.9665 0.25 14V12C0.25 11.0335 1.03352 10.25 2 10.25H3.28711L5.0791 6.66504L5.75 7ZM14 10.25C14.9665 10.25 15.75 11.0335 15.75 12V14C15.75 14.9665 14.9665 15.75 14 15.75H12C11.1185 15.75 10.3909 15.098 10.2695 14.25H7V12.75H10.25V12C10.25 11.0335 11.0335 10.25 12 10.25H14ZM2 11.75C1.86192 11.75 1.75 11.8619 1.75 12V14C1.75 14.1381 1.86192 14.25 2 14.25H4C4.13808 14.25 4.25 14.1381 4.25 14V12C4.25 11.8619 4.13808 11.75 4 11.75H2ZM12 11.75C11.8619 11.75 11.75 11.8619 11.75 12V14C11.75 14.1381 11.8619 14.25 12 14.25H14C14.1381 14.25 14.25 14.1381 14.25 14V12C14.25 11.8619 14.1381 11.75 14 11.75H12ZM9 0.25C9.96649 0.25 10.75 1.03351 10.75 2V4C10.75 4.44642 10.5808 4.85197 10.3057 5.16113L12.2041 8.6416L10.8877 9.36035L8.91895 5.75H7C6.03351 5.75 5.25 4.96649 5.25 4V2C5.25 1.03351 6.03351 0.25 7 0.25H9ZM7 1.75C6.86193 1.75 6.75 1.86193 6.75 2V4C6.75 4.13807 6.86193 4.25 7 4.25H9C9.13807 4.25 9.25 4.13807 9.25 4V2C9.25 1.86193 9.13807 1.75 9 1.75H7Z" fill="currentColor"></path></svg>