<svg xmlns="http://www.w3.org/2000/svg" width="1584" height="672" style="shape-rendering:geometricPrecision;text-rendering:geometricPrecision;image-rendering:optimizeQuality;fill-rule:evenodd;clip-rule:evenodd">
  <path style="opacity:.996" fill="#1572cb" d="M285.5-.5h1010c1.86 9.772-.47 11.272-7 4.5q2.445.644 4.5.5c2.1-1.215 1.93-2.049-.5-2.5-4.37-.828-8.7-.66-13 .5 2.68 2.71 5.34 5.376 8 8-1.19.929-2.52 1.262-4 1q-492-.25-984 .5-3.779.88-6 3.5-5.935 1.624-10 6a692 692 0 0 0-7 4q-3.74.714-6 4-1.393-1.783-1-4h-4q-2.347 11.68-12 5l4-2q-2.069-2.044.5-3a9.3 9.3 0 0 1 2.5 2l7-7-2-1q-6.942 4.57-3-2l17-13 8-2a10.3 10.3 0 0 0-4-1.5q1.374-.417 2-1.5"/>
  <path style="opacity:.867" fill="#5d99ce" d="M276.5 3.5a326 326 0 0 0-19 16q6.264-11.877 19-16"/>
  <path style="opacity:.996" fill="#3972af" d="m1283.5 11.5 6 4h-4q-1.14-1.152-3-1.5-491.5-1-983 0l-6 1.5q2.221-2.62 6-3.5 492-.75 984-.5"/>
  <path style="opacity:.996" fill="#f0fdfe" d="M1285.5 15.5q-494-.5-988 1-6.772 1.26-11.5 6-1.006-1.128-2.5-1 4.065-4.376 10-6l6-1.5q491.5-1 983 0 1.86.348 3 1.5"/>
  <path style="opacity:.424" fill="#5392ca" d="M1297.5-.5h3q14.31 6.552 25.5 18a31.5 31.5 0 0 1 5.5 9c-.06.543-.39.876-1 1a168 168 0 0 0-3-4c-4.63-7.974-11.3-13.307-20-16 .22-1.175-.11-2.175-1-3a15.4 15.4 0 0 0-7-1c-.03-1.7-.69-3.033-2-4"/>
  <path style="opacity:.996" fill="#f0fcfd" d="M283.5 21.5q-1.87 3.846-6 5.5a64 64 0 0 1 7 6.5q2.15-3.258 1-6.5 2.653-5.265 6.5-1.5l1-2q2.532 2.318 6 3a62 62 0 0 1 10.5-1.5q-3.143-.834-.5-1.5 9.04.282 18.5 2a204 204 0 0 0 20-2 371 371 0 0 0 36 2q60.024-.57 120 0a74.6 74.6 0 0 0 12-2 1951 1951 0 0 0 36 2q39.773-3.855 80 0a291 291 0 0 1 24-2 228 228 0 0 0 37 0q9.591 2.355 25.5 2a302 302 0 0 0 25.5-2q18.069 1.17 36 0a103.7 103.7 0 0 0 30 1.5q2-3 4 0l17 .5a310 310 0 0 1 49 0l16-.5-8-1a313 313 0 0 1 41 1.5l15-.5-24-1 20-.5a434 434 0 0 0 51.5 0c16.15.99 32.32 1.656 48.5 2 20-.231 37.33-.898 52-2a970 970 0 0 0 88 2l20-.5-16-1q27.045-.398 54-.5l6 .5-3 1 11.5.5a744 744 0 0 1 23.5-2l2 .5-3 1q9.705-1.384 15 6.5a19 19 0 0 0-8-2c-.42-.722-1.08-1.222-2-1.5q-488-1-976 0-1.856.348-3 1.5-3.08-.147-5 2-6.317 3.045-11.5 8a157 157 0 0 0-8.5 14 83 83 0 0 0-3.5-6 4.46 4.46 0 0 1-1.5 2l-4-4-2 6a50189 50189 0 0 0-1 448q2.988-.258 5 2a25.9 25.9 0 0 1 1 10q-1.437-.679-2.5-2a91.6 91.6 0 0 1-6-14q-.75-220.5-.5-441 4.07-16.595 16-29a692 692 0 0 1 7-4"/>
  <path style="opacity:.996" fill="#1874c5" d="M300.5 29.5h981c2.83.084 5.49.75 8 2q7.485 4.491 12 12a101.6 101.6 0 0 0-16-11q-485.03-1.002-970-2a459 459 0 0 0-16 2q-1.833 3.717-6 3l2-4q1.92-2.147 5-2"/>
  <path style="opacity:.996" fill="#1674cb" d="M1301.5 43.5q-.81 5.785 3 10c1 33.994 1.33 67.993 1 102h-1028a2501 2501 0 0 1 1-100q5.877-1.722 6-8a29 29 0 0 0 2.5 5 39.7 39.7 0 0 0 2.5-15q2.975.514 4-2 4.167.717 6-3a459 459 0 0 1 16-2q484.97.998 970 2c5.74 3.193 11.07 6.86 16 11"/>
  <path style="opacity:.996" fill="#fafefd" d="M1285.5 15.5h3a5.56 5.56 0 0 0 1 3c8.42 1.427 14.09 6.094 17 14 1.55.952 3.21 1.285 5 1 1.14 3.51 2.81 6.844 5 10 .67 2.667 1.33 5.333 2 8a2450 2450 0 0 1 2 60q-1.8 171.937 0 344a595 595 0 0 1-3 50q-4.005 2.445-6 7c-2.86.93-5.19 2.597-7 5a18.7 18.7 0 0 0-7-5.5q1.26-2.5-1.5-.5c-.46-.594-.63-1.261-.5-2a25.5 25.5 0 0 0 6-6 22.8 22.8 0 0 0 4-5q1.815-1.095 3-3c.33-53.667.67-107.333 1-161 0-54.004-.67-107.671-2-161 .22-1.175-.11-2.175-1-3a34.3 34.3 0 0 1-11 1v-4c-37.34.333-74.67 0-112-1 37.32-.904 74.65-1.238 112-1v-4q-498.594-.665-996 0-11.535-.21-23-1.5-.834-.575-1-1.5 516.25.5 1032-1c1.48.262 2.81-.071 4-1a1523 1523 0 0 1-2.5-95q-.315-2.338-1.5-4-1.005-8.037-6-14-4.515-7.509-12-12-5.295-7.884-15-6.5l3-1-2-.5a744 744 0 0 0-23.5 2l-11.5-.5 3-1-6-.5q-26.955.102-54 .5l16 1-20 .5a970 970 0 0 1-88-2c-14.67 1.102-32 1.769-52 2-16.18-.344-32.35-1.01-48.5-2a434 434 0 0 1-51.5 0l-20 .5 24 1-15 .5a313 313 0 0 0-41-1.5l8 1-16 .5a310 310 0 0 0-49 0l-17-.5q-2-3-4 0a103.7 103.7 0 0 1-30-1.5q-17.931 1.17-36 0a302 302 0 0 1-25.5 2q-15.909.355-25.5-2a228 228 0 0 1-37 0 291 291 0 0 0-24 2q-40.227-3.855-80 0a1951 1951 0 0 1-36-2 74.6 74.6 0 0 1-12 2 6309 6309 0 0 0-120 0 371 371 0 0 1-36-2 204 204 0 0 1-20 2q-9.46-1.718-18.5-2-2.643.666.5 1.5a62 62 0 0 0-10.5 1.5q-3.468-.682-6-3l-1 2q-3.847-3.765-6.5 1.5 1.15 3.242-1 6.5a64 64 0 0 0-7-6.5q4.13-1.654 6-5.5 1.494-.128 2.5 1 4.728-4.74 11.5-6 494-1.5 988-1"/>
  <path style="opacity:.996" fill="#3f77b1" d="M1281.5 29.5h-981q1.144-1.152 3-1.5 488-1 976 0c.92.278 1.58.778 2 1.5"/>
  <path style="opacity:.996" fill="#fefefe" d="M275.5 53.5v4a1276 1276 0 0 0 0 101q.166.925 1 1.5 11.465 1.29 23 1.5 497.406-.665 996 0v4c-37.35-.238-74.68.096-112 1 37.33 1 74.66 1.333 112 1v4h-608v340q303.499 2.499 608 3a34.2 34.2 0 0 1-8 1.5c3.27.995 6.6 1.828 10 2.5 1.09 1.503 2.26 1.836 3.5 1 .46.594.63 1.261.5 2a38 38 0 0 1-6 4h-4a33.3 33.3 0 0 0-10-2.5q1.995-1 0-2c2.1-.556 2.26-1.056.5-1.5-1.06.13-1.89.63-2.5 1.5-13.27.218-25.1 1.052-35.5 2.5l-14.5-.5 26-1a784 784 0 0 0-56 0l26 1a946 946 0 0 1-89-1.5l-15 .5c3.44.649 3.6 1.149.5 1.5q-11.205-3.822-22.5 0a74.4 74.4 0 0 0-12-2 438 438 0 0 1-64 2.5q-4.005-1 0-2-24-1-48 0l8 1a145 145 0 0 1-24 1.5v-3a268 268 0 0 0-40 2 291 291 0 0 0-24-2q-50.98 2.25-102 3a220 220 0 0 0-23 0q-11.622-1.96 1-2.5-6-1-12 0l3 1-25.5.5a259 259 0 0 1-29.5-2 55 55 0 0 0-7 2 31.8 31.8 0 0 0-13-2v3q-32.01.167-64-1a14599 14599 0 0 1-333 2 54 54 0 0 1-11-4 42.7 42.7 0 0 0-6-4.5q-2.946-2.176-4-5.5a25.9 25.9 0 0 0-1-10q-2.012-2.258-5-2-.5-224.002 1-448l2-6 4 4a4.46 4.46 0 0 0 1.5-2 83 83 0 0 1 3.5 6"/>
  <path style="opacity:.996" fill="#1f71bb" d="M811.5 65.5q-5.274-4.134-12-5-14.728-1.49-30-1 7.938-1.993 17-2 9.072.03 18 1 3.896-4.722 9-1.5a8.44 8.44 0 0 1-4 .5z"/>
  <path style="opacity:.996" fill="#3273b1" d="M1123.5 69.5c-1.33-2.594-2.66-5.26-4-8a49.9 49.9 0 0 0-14-1v-3h16c1.3 3.87 1.97 7.87 2 12"/>
  <path style="opacity:.996" fill="#2971ad" d="M1263.5 63.5c-9.04-4.482-18.37-5.148-28-2v-4q12.045-.497 24 1c1.76 1.417 3.09 3.083 4 5"/>
  <path style="opacity:.996" fill="#678faa" d="M993.5 60.5q-9.438-.83-18 2v-3q9.285-.485 18 1"/>
  <path style="opacity:.996" fill="#bbdee6" d="M527.5 71.5h-20q9.217-1.485 19-1v-9h-51v8q9.639-.93 18 2h-20v-12h54z"/>
  <path style="opacity:.996" fill="#fbfdfc" d="M507.5 71.5q-2.98 25.452-2 52h-10q.98-26.548-2-52-8.361-2.93-18-2v-8h51v9q-9.783-.485-19 1"/>
  <path style="opacity:.996" fill="#f2fafa" d="M731.5 99.5a299 299 0 0 0 9 26q-7.207 1.481-15 1a140 140 0 0 0-3-13h-25a82 82 0 0 0-2 10q-1.356 1.064-1 3h-15a372 372 0 0 0 10-29 1017 1017 0 0 0 12-34q1.15-1.008 2-2.5 6.88-1.199 13.5.5a998 998 0 0 0 14.5 38"/>
  <path style="opacity:.996" fill="#f7fcfb" d="M914.5 61.5h3q9.331 3.334 14 12 2.64 16.61-11 26 4.802 10.623 11 20a29.4 29.4 0 0 1 2 7h-14a35.7 35.7 0 0 1-4-7 196 196 0 0 0-8-17q-5.193-1.473-11-1-.726 5.586-3 11 .42 5.32 0 11h-8v-10q8-1 0-2v-50z"/>
  <path style="opacity:.996" fill="#f4fafa" d="M1105.5 60.5a49.9 49.9 0 0 1 14 1c1.34 2.74 2.67 5.406 4 8q3.015 10.023 6 20a83.6 83.6 0 0 1 2 18h4c.93 5.442 2.26 10.775 4 16a41.3 41.3 0 0 1-10 2c-.67-4-1.33-8-2-12h-3q-12.045-.497-24 1a69 69 0 0 0-3 11q-7.65 1.95-15 0a148 148 0 0 0 7-22q3.855-7.555 6-16 3.855-7.555 6-16a76 76 0 0 0 4-11"/>
  <path style="opacity:.996" fill="#b7dee5" d="M1307.5 57.5q1.185 1.662 1.5 4c-.15 31.82.68 63.487 2.5 95-1.19.929-2.52 1.262-4 1z"/>
  <path style="opacity:.996" fill="#ddf6fa" d="M1189.5 115.5h28v11h-42v-66h14z"/>
  <path style="opacity:.996" fill="#fcfdfc" d="M1189.5 115.5c8.27 1.97 16.94 2.636 26 2v8c-12.76.411-25.42-.256-38-2v-62h10c-.65 18.364.01 36.364 2 54"/>
  <path style="opacity:.996" fill="#3f73a8" d="M341.5 69.5q-2.358-4.073-3-9h-15v3q-2.514-1.025-2-4a930 930 0 0 0 17-.5q3.643 4.561 3 10.5"/>
  <path style="opacity:.996" fill="#f7fcfb" d="M627.5 60.5a60.7 60.7 0 0 1 12 3q9.618 8.844 8 22-2.656 8.425-10.5 13-.705 1.615.5 3a16.3 16.3 0 0 1 2 5 180 180 0 0 0 6 17 25.9 25.9 0 0 1-10-1 82.7 82.7 0 0 1-9-19q-1.536-2.03-4-2h-11v25h-13v-66z"/>
  <path style="opacity:.996" fill="#e0fcfd" d="M1037.5 61.5q1.5 6.008 6 10v2c-5.09-2.416-7.76-6.416-8-12h-12v62h10c-.65-13.044.02-25.71 2-38v41h-13v-66a61.3 61.3 0 0 1 15 1"/>
  <path style="opacity:.996" fill="#dbf4f8" d="M1061.5 126.5a16.3 16.3 0 0 1-2-5c3.96 3.335 8.62 4.668 14 4v-64h-10c.17 12.671 0 25.338-.5 38a6.8 6.8 0 0 1-1.5 3c-.61-.124-.94-.457-1-1 1-13.49 1.33-27.156 1-41h14v66z"/>
  <path style="opacity:.996" fill="#3a75a6" d="M1231.5 63.5a25.8 25.8 0 0 1-6 6q0-6 6-6"/>
  <path style="opacity:.996" fill="#eafcfd" d="M1288.5 15.5h1q27.075 11.106 33 40c.33 147.374 0 294.707-1 442-.82 2.98-2.16 5.647-4 8a595 595 0 0 0 3-50q-1.8-172.063 0-344a2450 2450 0 0 0-2-60c-.67-2.667-1.33-5.333-2-8-2.19-3.156-3.86-6.49-5-10-1.79.285-3.45-.048-5-1-2.91-7.906-8.58-12.573-17-14a5.56 5.56 0 0 1-1-3"/>
  <path style="opacity:.996" fill="#fafcfb" d="m1043.5 73.5 12 18v1a59 59 0 0 1 5 9c.06.543.39.876 1 1a6.8 6.8 0 0 0 1.5-3c.5-12.662.67-25.329.5-38h10v64c-5.38.668-10.04-.665-14-4a390 390 0 0 1-18-28 47.5 47.5 0 0 0-4.5-8q-1.035-1.857-1.5 0c-1.98 12.29-2.65 24.956-2 38h-10v-62h12c.24 5.584 2.91 9.584 8 12"/>
  <path style="opacity:.996" fill="#2672b9" d="M575.5 63.5q-32.862-13.565-44 20a154 154 0 0 0 2-20q2.987-.258 5 2 1.02-4.29 4-7.5 15.492-.75 31-.5.17 3.327 2 6"/>
  <path style="opacity:.996" fill="#2472ba" d="M459.5 63.5q-32.888-14.8-44.5 19a103 103 0 0 0 .5 23q-2.164-1.252-3-4-2.108-9.637 1-19a67.6 67.6 0 0 1-2-21h4q-1.913 4.254-2 9a4.93 4.93 0 0 0 3-.5l-1-1q3.509-2.985 4-7.5a4474 4474 0 0 0 22-4 188 188 0 0 1 22 3q-2.748.835-4 3"/>
  <path style="opacity:.996" fill="#295c8c" d="M883.5 59.5v1a1057 1057 0 0 0-1 65h-1q-.984-33.538 2-66"/>
  <path style="opacity:.996" fill="#def6fe" d="M883.5 60.5q15.77-.492 31 1h-29v50q8 1 0 2v10h8q.42-5.68 0-11 2.274-5.414 3-11v25h-13q-1 0-1-1-.496-32.76 1-65"/>
  <path style="opacity:.996" fill="#2e70ad" d="M1255.5 73.5q-7.86-.805-15 2c-.62 3.783 1.05 6.45 5 8q2.745-1.881 6-2v6q-8.73-.812-13.5-8-1.125-5.99 4.5-8.5c3.33-.667 6.67-.667 10 0q2.16.565 3 2.5"/>
  <path style="opacity:.996" fill="#1d71c1" d="M389.5 59.5v68q-2.824-10.934-4-23 2.642-9.377-1.5-18a19.2 19.2 0 0 0-2.5 7.5q.194 2.97 2 5-2.038 1.806-3 4.5-6.365-8.014-6.5 3a6.8 6.8 0 0 0-1.5-3q-2.846 4.78-7 8a1018 1018 0 0 1 17-48q1.401-1.602 1-4-8.29-.482-16 1a274 274 0 0 1-8 25h-2a89 89 0 0 0-2-4 78 78 0 0 0 3-7q2.5-.5 3-3-1.66-2.34 0-4.5a9.3 9.3 0 0 0-2-2.5 14.6 14.6 0 0 0 4-6 122 122 0 0 1 22-1 9.86 9.86 0 0 0 1 6q.836-2.748 3-4"/>
  <path style="opacity:.996" fill="#5b8aa4" d="M367.5 60.5q7.71-1.482 16-1 .401 2.398-1 4v-3z"/>
  <path style="opacity:.996" fill="#f3fbfb" d="M459.5 63.5a25.7 25.7 0 0 0 6 6 44.9 44.9 0 0 1 4 12 49.9 49.9 0 0 1-14 1q-3.828-16.667-20-10.5-8.433 8.448-7 20.5-.945 11.731 6 21 6.71 2.952 14 1.5 4.976-2.22 6-7.5 1.356-1.064 1-3h13v3q-3.086 15.837-19 19.5a98.4 98.4 0 0 1-14 .5q-15.802-5.799-20-22a103 103 0 0 1-.5-23q11.612-33.8 44.5-19"/>
  <path style="opacity:.996" fill="#90c8f5" d="M612.5 71.5v19h13q-6.705 1.48-14 1-.486-10.281 1-20"/>
  <path style="opacity:.996" fill="#1872c8" d="M613.5 71.5h8q4.774 2.157 9 6l1 4q-.755 4.718-4 8h-14z"/>
  <path style="opacity:.996" fill="#2a6cae" d="M855.5 65.5q-1.259-1.711-2-4-7-2-14 0a888 888 0 0 1-12 32q.354-9.564 5-18a54.8 54.8 0 0 1 3.5-14l1 1q.74-2.45.5-5a65 65 0 0 1 16 1q2.51 3.034 2 7"/>
  <path style="opacity:.996" fill="#1c72c1" d="M931.5 73.5q-4.669-8.666-14-12-16.426-2.966-34-2-2.984 32.462-2 66-2.302 2.016-4 5a49.9 49.9 0 0 1-14 1v-4q7.295.479 14-1l-8-21q1.852.332 3 2l6 14q2.161-4.837-1-9 1.823-3.693 2-8-.177-4.307-2-8 2.937-20.234 2-41a139 139 0 0 0 20.5 2q14.256.357 23.5-2v4h4v-6h-4q-.115-3.768 3-6a41.3 41.3 0 0 1 4 12q2.83 2.289 3 6a705 705 0 0 0-2 8"/>
  <path style="opacity:.996" fill="#5d849d" d="M883.5 60.5v-1q17.574-.966 34 2h-3q-15.23-1.492-31-1"/>
  <path style="opacity:.996" fill="#f4fbfa" d="M575.5 63.5h1q17.84 18.67 10.5 44-9.056 22.662-33.5 19.5a109 109 0 0 1-8-3.5h-1q-3-4-7-7v-1q-7.395-13.974-6-30v-2q11.138-33.565 44-20"/>
  <path style="opacity:.996" fill="#1774cb" d="M573.5 99.5v2q-2.514 1.025-2 4-4.244.263-5-4-2.001 4.511 1 8.5-1.466 3.215-5 3.5a26 26 0 0 0-11-2q.22-4.581-4-6v-24q.24-2.48 2-4 11.352-8.695 21 2a205 205 0 0 0 3 20"/>
  <path style="opacity:.996" fill="#f4fbfa" d="M769.5 60.5h30q6.726.866 12 5 10.017 7.553 7.5 20-1.032 5.35-3.5 10-6.502 6.748-16 7h-18v23h-12z"/>
  <path style="opacity:.996" fill="#2e70ac" d="M857.5 71.5q1.852.332 3 2a219 219 0 0 0 8 22 16.9 16.9 0 0 1 1 8 900 900 0 0 1-12-32"/>
  <path style="opacity:.996" fill="#296eb4" d="M782.5 71.5q8.514-.25 17 .5 9.1 5.576 4.5 15.5a11.5 11.5 0 0 1-4.5 3.5q-8.486.75-17 .5z"/>
  <path style="opacity:.996" fill="#2773b6" d="M1043.5 71.5a61 61 0 0 0 7.5 5c1.05-1.017 2.22-1.184 3.5-.5-.33.333-.67.667-1 1 .81.308 1.47.808 2 1.5-1.12 1.45-1.78 3.116-2 5 .69 2.698 1.36 5.365 2 8l-12-18z"/>
  <path style="opacity:.996" fill="#3a71a5" d="M621.5 71.5q15.609.348 10.5 15-1.694 2.462-4.5 3 3.245-3.282 4-8l-1-4q-4.226-3.843-9-6"/>
  <path style="opacity:.996" fill="#266db0" d="M639.5 63.5q4.772.363 9 0l1 1q-1.783 1.393-4 1a59.8 59.8 0 0 1 4 14q-.059 3.678-2 6 1.618-13.156-8-22"/>
  <path style="opacity:.996" fill="#2870b6" d="M731.5 99.5a998 998 0 0 1-14.5-38q-6.62-1.699-13.5-.5-.85 1.492-2 2.5-1.63-.18-2-2 3.146-4.838 9-6a74 74 0 0 0 11 4v4h4a16.9 16.9 0 0 0 1 8q1.702.904 3 1-2.64 4.068-2 9 1.983-.255 3.5 1 1.137 3.404-.5 6.5 1.422.725 3 .5z"/>
  <path style="opacity:.996" fill="#1673cc" d="M785.5 73.5q6.503-.75 12 2.5l-2 1a8.44 8.44 0 0 0 4 .5q-.237 4.291 2 8l-1 2q-6.123 2.77-13 2 .51-3.966-2-7 8-2 0-4l2-2q-1.668-1.148-2-3"/>
  <path style="opacity:.996" fill="#2c71ad" d="M1101.5 71.5q-2.145 8.445-6 16 .075-7.28 3-14 1.155-1.668 3-2"/>
  <path style="opacity:.996" fill="#265f8d" d="M612.5 71.5h1v18h14q-.513 1.257-2 1h-13z"/>
  <path style="opacity:.996" fill="#1671c9" d="M1255.5 73.5c-.49 3.21.18 6.044 2 8.5-.33.333-.67.667-1 1 2.4.186 4.73.686 7 1.5a10.25 10.25 0 0 1-4 1.5c.33.333.67.667 1 1-2.65.497-5.31.664-8 .5h-1v-6q-3.255.119-6 2c-3.95-1.55-5.62-4.217-5-8q7.14-2.805 15-2"/>
  <path style="opacity:.996" fill="#2372bd" d="M323.5 63.5a1151 1151 0 0 1 16 46q-2.922-3.843-4.5-9l-1 1q-.119-5.484-3-10-1.112 1.71-2.5 0-7.18 7.482-7-4 2.988.257 5-2a16.9 16.9 0 0 0 1-8q-2.976-.175-5 2l-1-1q2.805-7.141 2-15"/>
  <path style="opacity:.996" fill="#3470ac" d="M915.5 75.5q.925.165 1.5 1 1.61 6.914-2.5 12.5-8.819 2.115-18 1.5v-19q7.516-.25 15 .5 3.067.747 4 3.5"/>
  <path style="opacity:.996" fill="#1873cc" d="M915.5 75.5q1.187 7.633-4 13-6.602 2.475-11-3a36.9 36.9 0 0 1-1-12 49.9 49.9 0 0 1 16 2"/>
  <path style="opacity:.996" fill="#2871b8" d="M1269.5 69.5q1.845.332 3 2 1.935 5.82 0 11.5c-2.4.186-4.73.686-7 1.5q4.005 3 0 6c2.65 1.632 3.98 3.965 4 7-5.04-4.451-10.7-7.785-17-10 2.69.164 5.35-.003 8-.5-.33-.333-.67-.667-1-1 1.44-.219 2.77-.719 4-1.5a26.7 26.7 0 0 0-7-1.5c.33-.333.67-.667 1-1-1.82-2.456-2.49-5.29-2-8.5q3.06 2.117 3 6h13c.19-3.532-.48-6.865-2-10"/>
  <path style="opacity:.996" fill="#225c90" d="M403.5 60.5v-1q1.998 15.969 2 33l-.5 33a2098 2098 0 0 0-1.5-65"/>
  <path style="opacity:.996" fill="#23649c" d="M1163.5 60.5v-1c1.99 21.641 2.66 43.641 2 66-.67-21.667-1.33-43.333-2-65"/>
  <path style="opacity:.996" fill="#286eb5" d="M709.5 77.5a161 161 0 0 1 8 24h-15q3.51-12.015 7-24"/>
  <path style="opacity:.996" fill="#2972b5" d="M983.5 75.5q-1.006 2.02 0 3.5-4.376 5.505-6 12.5a40.5 40.5 0 0 1 2 10 53.4 53.4 0 0 1-7-12 56.1 56.1 0 0 1 11-14"/>
  <path style="opacity:.996" fill="#789db0" d="M1021.5 59.5c5.77-.613 11.1.054 16 2a61.3 61.3 0 0 0-15-1v66h13c-4.47.986-9.14 1.319-14 1z"/>
  <path style="opacity:.996" fill="#286cad" d="M1112.5 77.5c2.15 5.891 4.32 11.891 6.5 18 .5 1.973.66 3.973.5 6h-14a248 248 0 0 1 7-24"/>
  <path style="opacity:.996" fill="#296db0" d="M961.5 81.5q-1.65 1.657-2 4a14.7 14.7 0 0 0-3.5 3 393 393 0 0 1-.5-28h-14v66h14q-7.71 1.482-16 1a498 498 0 0 0-2-62q1.881-2.751 2-6h18v22z"/>
  <path style="opacity:.996" fill="#f5fbfb" d="M341.5 69.5q.125 4.24 2 8a1060 1060 0 0 1 9.5 31 301 301 0 0 0 6.5-23 274 274 0 0 0 8-25h15v3a1018 1018 0 0 0-17 48q-1.845 2.695-2 6-2.358 4.072-3 9h-15q-1.852-9.065-6-17a1151 1151 0 0 0-16-46v-3h15q.642 4.927 3 9"/>
  <path style="opacity:.996" fill="#2b6fb1" d="M531.5 85.5q-1.395 16.026 6 30h-6a224 224 0 0 0-2-21q.026-5.12 2-9"/>
  <path style="opacity:.996" fill="#2370b9" d="M767.5 63.5a961 961 0 0 0 1 62q6.705 1.479 14 1v-23q8.787.483 17-1 9.498-.252 16-7l-2 8a242 242 0 0 0-26 3 4.46 4.46 0 0 1-2 1.5q2.901 9.316 2 19.5a27.6 27.6 0 0 0-10 2.5l2 1a16.24 16.24 0 0 1-8 0l2-1q-5.026-.425-9-3.5 1.779-14.784 0-30 .393-17.044 3-33"/>
  <path style="opacity:.996" fill="#3c6b89" d="M769.5 59.5q15.272-.49 30 1h-30a1057 1057 0 0 0-1 65 961 961 0 0 1-1-62q-.514-2.975 2-4"/>
  <path style="opacity:.996" fill="#f9fcfb" d="m993.5 60.5-10 15a56.1 56.1 0 0 0-11 14 53.4 53.4 0 0 0 7 12 885 885 0 0 1 15 24.5q-.342.598-1 .5a69.3 69.3 0 0 1-16-1l-6-12a58.8 58.8 0 0 1-4-14q-8.473-1.258-13 6a82 82 0 0 0-1 18h-10v-62q5.776-.794 10.5 2 .75 12.99.5 26h5v-4q.35-2.343 2-4a8194 8194 0 0 1 14-19q8.562-2.83 18-2"/>
  <path style="opacity:.996" fill="#4077a8" d="M547.5 81.5v23q-2.16-5.86-2-12.5-.294-5.708 2-10.5"/>
  <path style="opacity:.996" fill="#f3fafa" d="M855.5 65.5a31.7 31.7 0 0 0 2 6 900 900 0 0 0 12 32v2l8 21q-8.452.805-16-2v-1q-1.216-13.395-15-10l-12 1a134 134 0 0 0-3 11q-7.423 1.918-15 0a73 73 0 0 0 5-16q3.857-7.555 6-16a888 888 0 0 0 12-32q7-2 14 0 .741 2.289 2 4"/>
  <path style="opacity:.996" fill="#296fb1" d="M357.5 85.5h2a301 301 0 0 1-6.5 23 1060 1060 0 0 0-9.5-31q1.083-.627 1.5-2a10.3 10.3 0 0 0 1.5 4q1.344-1.509 2 0a19.4 19.4 0 0 0-1 8h4a36.9 36.9 0 0 0 1 12l2-2a64 64 0 0 1 3-12"/>
  <path style="opacity:.996" fill="#3a74ac" d="M573.5 99.5a205 205 0 0 1-3-20q-9.648-10.695-21-2 1.776-5.023 7-6.5 12.224-2.297 16.5 9.5 2.504 9.666.5 19"/>
  <path style="opacity:.996" fill="#cdf8ff" d="M672.5 60.5v66h-14v-66z"/>
  <path style="opacity:.996" fill="#fafdfc" d="M659.5 61.5h12v64h-12z"/>
  <path style="opacity:.996" fill="#176bc4" d="M1111.5 90.5q7.08 1.656 6 9h-8c-.41-3.356.26-6.356 2-9"/>
  <path style="opacity:.996" fill="#1d6db0" d="M1021.5 59.5v68c-1.33-10.98-2-22.313-2-34s.67-23.02 2-34"/>
  <path style="opacity:.996" fill="#2d6fa6" d="M1095.5 87.5q-2.145 8.445-6 16-.255-9.447 6-16"/>
  <path style="opacity:.996" fill="#507b92" d="M657.5 59.5q7.793-.48 15 1h-14v66h14v-63q1.496 31.74 1 64h-16z"/>
  <path style="opacity:.996" fill="#3373aa" d="M1041.5 93.5q-1.845-.332-3-2a585 585 0 0 0-1.5 34q-.57.834-1.5 1v-41q.465-1.857 1.5 0a47.5 47.5 0 0 1 4.5 8"/>
  <path style="opacity:.996" fill="#d7f3f7" d="M959.5 85.5v4h-5q.25-13.01-.5-26-4.724-2.794-10.5-2v62h10a82 82 0 0 1 1-18q4.527-7.258 13-6a58.8 58.8 0 0 0 4 14l-7-10a7.5 7.5 0 0 0-2-3 715 715 0 0 0-6.5 7 163 163 0 0 0-.5 18v1h-14v-66h14q-.25 14.01.5 28a14.7 14.7 0 0 1 3.5-3"/>
  <path style="opacity:.996" fill="#216aae" d="M507.5 71.5h20q-8.361 2.93-18 2 .98 26.548-2 52z"/>
  <path style="opacity:.996" fill="#2471bc" d="M1223.5 81.5c1.82 3.616 4.15 6.95 7 10q7.47 4.476 15 8c-2.63.642-5.3 1.309-8 2a40.4 40.4 0 0 0-10-2v4h16a41.3 41.3 0 0 1-2 10h14c-5.95 4.202-11.78 3.869-17.5-1a68 68 0 0 1-2.5-6 43.1 43.1 0 0 0-13-1q-.33 6.498 3 12-1.845-.332-3-2c-.33-3.333-.67-6.667-1-10a254 254 0 0 0 2-24"/>
  <path style="opacity:.996" fill="#2e6eac" d="M849.5 87.5a146 146 0 0 1 5 13 57.2 57.2 0 0 1-15 1q1.809-12.177 7.5-23a19.9 19.9 0 0 1 2.5 9"/>
  <path style="opacity:.996" fill="#1370ca" d="M849.5 87.5q-.718 5.901 2 11a16.9 16.9 0 0 1-8 1q-.486-6.306 3-11.5a4.93 4.93 0 0 1 3-.5"/>
  <path style="opacity:.996" fill="#e9fdfd" d="M403.5 60.5v66h-13v-66z"/>
  <path style="opacity:.996" fill="#fcfefc" d="M391.5 61.5h10v62h-10z"/>
  <path style="opacity:.996" fill="#7b9cb1" d="M597.5 59.5q15.272-.49 30 1h-29v66h13v1q-7.678.904-14-2z"/>
  <path style="opacity:.996" fill="#1d70c0" d="M689.5 97.5a372 372 0 0 1-10 29q7.71 1.482 16 1-1.903 4.34-7 4-7.227-.987-13.5-4-9.051 7.634-18.5.5.342-.598 1-.5h16q.496-32.26-1-64v-3q-7.207-1.48-15-1 8.361-2.93 18-2v42a4.93 4.93 0 0 1 3 .5q-1.794.981 0 1.5 3.115-2.232 3-6h4q-.393 2.217 1 4 1.148-1.668 3-2"/>
  <path style="opacity:.996" fill="#3071af" d="M1217.5 115.5h-28v-55h-14v66h42a485 485 0 0 1-44 1c-.64-23.162.02-46.162 2-69q7.8-2.307 15 1c1 17.988 1.33 35.988 1 54 9.06-.636 17.73.03 26 2"/>
  <path style="opacity:.996" fill="#1e6db2" d="M657.5 59.5v66q-1.998-15.969-2-33 .002-17.031 2-33"/>
  <path style="opacity:.996" fill="#2a70ae" d="M1061.5 126.5h14v-66h-14c.33 13.844 0 27.51-1 41a59 59 0 0 0-5-9q1.935-1.902 3 1a290 290 0 0 0 1-34h18v68c-5.53.321-10.86-.012-16-1"/>
  <path style="opacity:.996" fill="#91b5cb" d="M454.5 103.5h15q.401 2.398-1 4v-3h-13q.356 1.936-1 3z"/>
  <path style="opacity:.996" fill="#3574ab" d="M491.5 71.5h2v55h14q-7.71 1.482-16 1z"/>
  <path style="opacity:.996" fill="#83a4b9" d="M389.5 59.5h14v1h-13v66h13q-6.705 1.479-14 1z"/>
  <path style="opacity:.996" fill="#b6e6fa" d="M769.5 60.5v65h12v-23h18q-8.213 1.483-17 1v23q-7.295.479-14-1-.496-32.76 1-65"/>
  <path style="opacity:.996" fill="#dbf7fb" d="M1129.5 89.5c3.9 8.367 7.24 17.034 10 26a77 77 0 0 1 4 11c-5.63.537-10.97-.13-16-2a34.4 34.4 0 0 0-3-11h3c.67 4 1.33 8 2 12 3.43-.257 6.77-.924 10-2a108 108 0 0 1-4-16h-4c-.02-6.09-.68-12.09-2-18"/>
  <path style="opacity:.996" fill="#dcf7fc" d="M622.5 102.5v-1q2.464-.03 4 2a82.7 82.7 0 0 0 9 19 25.9 25.9 0 0 0 10 1 180 180 0 0 1-6-17l10 18v2a57.2 57.2 0 0 1-15-1 58 58 0 0 0-5-9v-1a120 120 0 0 0-7-13"/>
  <path style="opacity:.996" fill="#336fa5" d="M964.5 103.5q-3.74.715-6 4-.542 9.583-3 18-.249-9.013.5-18a715 715 0 0 1 6.5-7 7.5 7.5 0 0 1 2 3"/>
  <path style="opacity:.996" fill="#3172ae" d="M821.5 109.5a73 73 0 0 1-5 16q7.577 1.918 15 0-7.344 2.92-16 2a36.9 36.9 0 0 1 1-12l2-2 2-10a4.46 4.46 0 0 1 2 1.5q-1.32 2.034-1 4.5"/>
  <path style="opacity:.996" fill="#82a5b7" d="M1149.5 59.5h14v1h-13v66h13c-4.47.986-9.14 1.319-14 1z"/>
  <path style="opacity:.996" fill="#3371ac" d="M465.5 69.5q2.02 1.007 3.5 0a52 52 0 0 1 2.5 14h-18q-.754-5.01-4-9a49.9 49.9 0 0 0-14-1v6h-4v28h4q-.258 2.987 2 5 6 2 12 0a61 61 0 0 0 5-9v4q-1.024 5.28-6 7.5-7.29 1.452-14-1.5-6.945-9.269-6-21-1.433-12.052 7-20.5 16.172-6.167 20 10.5 7.07.49 14-1a44.9 44.9 0 0 0-4-12"/>
  <path style="opacity:.996" fill="#3670a5" d="M637.5 101.5q1.852.332 3 2 5.784 10.056 9 21l-10-18a16.3 16.3 0 0 0-2-5"/>
  <path style="opacity:.996" fill="#1c73c7" d="M1245.5 99.5c4.97.375 9.13 2.375 12.5 6 .97 3.405.13 6.071-2.5 8h-14a41.3 41.3 0 0 0 2-10h-16v-4c3.4.24 6.73.907 10 2 2.7-.691 5.37-1.358 8-2"/>
  <path style="opacity:.996" fill="#296fb2" d="M573.5 101.5q-2.06 17.042-19 13.5-5.871-2.99-7-9.5 4.22 1.419 4 6a26 26 0 0 1 11 2q3.534-.285 5-3.5-3.001-3.989-1-8.5.756 4.263 5 4-.514-2.975 2-4"/>
  <path style="opacity:.996" fill="#2a649d" d="M622.5 102.5a120 120 0 0 1 7 13l-6-3q3.894-2.696-1-4-1.428-2.318-1-5h-8q.95 12.604-2 24v-1q1.488-11.724 1-24z"/>
  <path style="opacity:.996" fill="#658fa5" d="M896.5 101.5q5.807-.473 11 1h-10v25q-7.295.479-14-1h13z"/>
  <path style="opacity:.996" fill="#82b9ed" d="M622.5 101.5v1h-10q.488 12.276-1 24v-25z"/>
  <path style="opacity:.996" fill="#e0f7fa" d="M493.5 71.5q2.98 25.452 2 52h10q-.98-26.548 2-52v55h-14z"/>
  <path style="opacity:.996" fill="#246eb2" d="M907.5 102.5a196 196 0 0 1 8 17q-3.334.483-5.5-2a34.3 34.3 0 0 0-1.5-8q-3.115-2.232-3-6h-6q-.51 3.966 2 7a413 413 0 0 1-4 17v-25z"/>
  <path style="opacity:.996" fill="#f2faf9" d="M1263.5 63.5a25.7 25.7 0 0 1 6 6c1.52 3.135 2.19 6.468 2 10h-13q.06-3.883-3-6-.84-1.935-3-2.5a25.25 25.25 0 0 0-10 0q-5.625 2.51-4.5 8.5 4.77 7.188 13.5 8h1c6.3 2.215 11.96 5.549 17 10 4.6 8.508 3.93 16.508-2 24q-17.445 11.066-36 1.5a46 46 0 0 0-6-5.5q-3.33-5.502-3-12a43.1 43.1 0 0 1 13 1 68 68 0 0 0 2.5 6c5.72 4.869 11.55 5.202 17.5 1 2.63-1.929 3.47-4.595 2.5-8-3.37-3.625-7.53-5.625-12.5-6a166 166 0 0 1-15-8c-2.85-3.05-5.18-6.384-7-10-.31-4.2.36-8.2 2-12a25.8 25.8 0 0 0 6-6c1.56-.233 2.9-.9 4-2 9.63-3.148 18.96-2.482 28 2"/>
  <path style="opacity:.996" fill="#2d71a9" d="M415.5 105.5q4.198 16.201 20 22a16.9 16.9 0 0 1-8-1l-11-11a25.9 25.9 0 0 1-1-10"/>
  <path style="opacity:.996" fill="#366ea2" d="M537.5 116.5q4 3 7 7-5.5-1.5-7-7"/>
  <path style="opacity:.996" fill="#2a6dae" d="M861.5 123.5q-2.59-3.565-6-7-9.95-1.495-20-1a16.9 16.9 0 0 1-1 8q-1.148 1.668-3 2a134 134 0 0 1 3-11l12-1q13.784-3.395 15 10"/>
  <path style="opacity:.996" fill="#40739e" d="M363.5 117.5v10q-9.285.485-18-1h15q.642-4.928 3-9"/>
  <path style="opacity:.996" fill="#3a72a5" d="M629.5 116.5a58 58 0 0 1 5 9 57.2 57.2 0 0 0 15 1q-8.715 1.485-18 1a99 99 0 0 0-2-11"/>
  <path style="opacity:.996" fill="#4177a5" d="M931.5 119.5q4.813 2.361 4 8-8.29.482-16-1h14a29.4 29.4 0 0 0-2-7"/>
  <path style="opacity:.996" fill="#527d94" d="M695.5 123.5v4q-8.29.482-16-1h15q-.356-1.936 1-3"/>
  <path style="opacity:.996" fill="#577f91" d="M740.5 125.5q.814.09 1 1-8.23 1.972-16 0 7.793.481 15-1"/>
  <path style="opacity:.996" fill="#507d93" d="M861.5 124.5q7.548 2.805 16 2-6.705 1.479-14 1-2.322-.481-2-3"/>
  <path style="opacity:.996" fill="#597c8e" d="M977.5 125.5a69.3 69.3 0 0 0 16 1q-3.717.996-8 1-4.635-.033-8-2"/>
  <path style="opacity:.996" fill="#557f96" d="M1082.5 125.5q7.35 1.95 15 0c-4.21 1.936-8.88 2.603-14 2-1.92-.211-2.26-.877-1-2"/>
  <path style="opacity:.996" fill="#2170ba" d="M597.5 59.5v66q-2.71-11.406-2.5-24l-1 1-1-3q-3.757 6.006-5.5 13 .434 2.316 2 4-7.567 1.554-12 8-1.783 1.393-4 1 .21 2.435-2 3.5-9.756 3.719-20 1.5-3.63-3.118-6-7a109 109 0 0 0 8 3.5q24.444 3.162 33.5-19.5 7.34-25.33-10.5-44 5.28 2.253 9 7 1.783 1.393 4 1v12h3a8.4 8.4 0 0 0 .5 4l1-10 1 1q-.197-10.119 2.5-19"/>
  <path style="opacity:.996" fill="#2a75bf" d="M1149.5 59.5v68c4.86.319 9.53-.014 14-1v-66c.67 21.667 1.33 43.333 2 65 .22 1.235.89 2.235 2 3-.67.667-1.33 1.333-2 2-6.71 1.092-13.38.758-20-1q-11.355 3.784-22.5 0c-.19-1.561.65-2.228 2.5-2-.03-4.13-.7-8.13-2-12h-22a98 98 0 0 1-.5 14c-.33-.333-.67-.667-1-1a11.3 11.3 0 0 1-3.5 1.5c.33.333.67.667 1 1a98.4 98.4 0 0 1-14 .5v-4c5.12.603 9.79-.064 14-2a69 69 0 0 1 3-11q11.955-1.497 24-1a34.4 34.4 0 0 1 3 11v3c5.53.321 10.86-.012 16-1a77 77 0 0 0-4-11h4v6h4c-.66-21.027.01-41.694 2-62"/>
  <path style="opacity:.996" fill="#517c90" d="M1127.5 124.5c5.03 1.87 10.37 2.537 16 2-5.14.988-10.47 1.321-16 1z"/>
  <path style="opacity:.996" fill="#ebfdfd" d="M1163.5 60.5v66h-13v-66z"/>
  <path style="opacity:.996" fill="#fcfefc" d="M1151.5 61.5h10v62h-10z"/>
  <path style="opacity:.996" fill="#2072bd" d="M1225.5 117.5a46 46 0 0 1 6 5.5q18.555 9.566 36-1.5c.21 1.644-.12 3.144-1 4.5q-10.425 2.085-19.5 6.5a48 48 0 0 1-16.5-7 4.5 4.5 0 0 0-1.5 2q-1.5-2-3 0c-.5-3.317-.67-6.65-.5-10"/>
  <path style="opacity:.996" fill="#2273b8" d="m295.5 31.5-2 4q-1.025 2.514-4 2a39.7 39.7 0 0 1-2.5 15 29 29 0 0 1-2.5-5q-.123 6.278-6 8a2501 2501 0 0 0-1 100h1028l-1026 2h-4v-104a157 157 0 0 1 8.5-14q5.183-4.955 11.5-8"/>
  <path style="opacity:.996" fill="#1466aa" d="M1301.5 43.5q4.995 5.963 6 14v100h-1028l1026-2c.33-34.007 0-68.006-1-102q-3.81-4.215-3-10"/>
  <path style="opacity:.996" fill="#7599aa" d="M275.5 57.5v100h1032q-515.75 1.5-1032 1a1276 1276 0 0 1 0-101"/>
  <path style="opacity:.996" fill="#d7f4fc" d="M1307.5 173.5q-310.005-.999-619 2v336h-1v-340h608a34.3 34.3 0 0 0 11-1c.89.825 1.22 1.825 1 3"/>
  <path style="opacity:.996" fill="#216db2" d="M1307.5 173.5c.17 106.667 0 213.334-.5 320a42 42 0 0 0-1.5 5 22.8 22.8 0 0 1-4 5v-2a64 64 0 0 0 3-12c1-104.665 1.33-209.331 1-314h-617a47887 47887 0 0 1 619-2"/>
  <path style="opacity:.996" fill="#1673cc" d="M691.5 175.5h614c.33 104.669 0 209.335-1 314a64 64 0 0 1-3 12 5.6 5.6 0 0 0-3 1 15.7 15.7 0 0 1-2-4q1.545.306 3-1.5-2.295-4.362-3-9.5c-.47 4.77-.8 9.436-1 14q-3.15.449-6-1c.67-.667 1.33-1.333 2-2a36.9 36.9 0 0 0-12-1v4c-2.69.164-5.35-.003-8-.5.52-2.033-.15-2.033-2 0a671 671 0 0 1-78-1.5 275.3 275.3 0 0 1-48 1.5c-.33-.333-.67-.667-1-1q4.575-.268 9-1.5a116 116 0 0 0-16-2.5q1.23-2.532 3-.5c.93-1.189 1.26-2.522 1-4v-2c1.32-2.928 1.99-6.261 2-10a476 476 0 0 1 0-40c0-8.362-.67-16.362-2-24q-9.645-.93-18 2a292 292 0 0 0-4 15c1.12 1.449 1.78 3.116 2 5-.69 2.698-1.36 5.365-2 8q-3.33-.17-6-2a492 492 0 0 1-12-22v-4c-1.69-5.505-5.52-7.505-11.5-6l-8.5.5a36.8 36.8 0 0 1-7.5 2.5c-2.45-.067-4.78-1.067-7-3-.33.667-.67 1.333-1 2-5.48-2.822-10.82-2.488-16 1-4.57-.508-9.4-.842-14.5-1-3.74.014-7.07.68-10 2h-2c-2.77 2.147-5.1 4.814-7 8-2.1-2.034-4.43-2.368-7-1 2.65 1.632 3.98 3.965 4 7q-6 0-6 6h-4c.62-6.426-.05-12.426-2-18v-1q-4.221-.997-9-1-5.12.026-9 2-2.487 22.467-3 46-3.286-2.072-4-6-2.148 7.124-8 12l-3-9q1.292-4.303 5-7 1.428-2.318 1-5v-1q1.967-3.365 2-8-.004-4.283-1-8-5.217-12.705-19-14-18-2-36 0-2.985 34.464-2 70h-4q.813-5.639-4-8a2800 2800 0 0 1-20-56q.51-3.966-2-7l-9-1q-5.12.026-9 2-7.5 9.48-8 22l-16 48q-2 1.5 0 3 8.769 1.976 18 0a63.4 63.4 0 0 0 4-13q12.3-.79 24 2 .051 6.195 2 12 10.281.486 20-1v-1h6v1q8.715 1.485 18 1v-27h6v3h4l10 24q10.281.486 20-1 .925-.166 1.5-1 .743-2.96.5-6h4l-2 8q11.278.488 22-1v-1q2.46-9.425 3-20c1.34-1.505 3.01-2.172 5-2q-.435 4.724 1.5 9 .3-2.634 1.5-5 1.155 1.668 3 2a130 130 0 0 1 10 16c6.92 1.963 14.26 2.63 22 2a16.9 16.9 0 0 1 1-8c.67 2.131 1.34 4.131 2 6q9 2 18 0c.67-3.189 1.33-6.523 2-10 .67-20 1.33-40 2-60 1.34-1.505 3.01-2.172 5-2 .62 21.437-.05 42.771-2 64a77 77 0 0 1 3 14c.93-1.189 1.26-2.522 1-4 3.4-.32 6.73.013 10 1-1.33.667-2.67 1.333-4 2l3 1 6-2c2.28.978 4.61 1.645 7 2 .47-2.582-.19-4.582-2-6v-6q1.845.332 3 2c.67-2 1.33-4 2-6 .67 3.333 1.33 6.667 2 10 .43-4.928 1.59-9.594 3.5-14 .33.333.67.667 1 1 .83 4.371.66 8.705-.5 13-2.74 2.82-4.41 6.153-5 10q10.62.36 21-2a329 329 0 0 1 17 3.5 7139 7139 0 0 0-102 4.5c-15.91-.325-31.74.009-47.5 1a5284 5284 0 0 1-136.5-3 3060 3060 0 0 1-152 2v-4q23.005.25 46-.5 2.21-1.064 2-3.5h-52v10h-8q-2 0-2-2 .925-.166 1.5-1 .75-164.5.5-329"/>
  <path style="opacity:.996" fill="#b7dee4" d="M1307.5 173.5c1.33 53.329 2 106.996 2 161-.33 53.667-.67 107.333-1 161q-1.185 1.905-3 3 .585-2.519 1.5-5c.5-106.666.67-213.333.5-320"/>
  <path style="opacity:.996" fill="#1e69af" d="M975.5 199.5a40.9 40.9 0 0 0-12-2q-1.602-1.401-4-1a530 530 0 0 0-46-1q11.959-1.997 25-2 18.55.482 37 2z"/>
  <path style="opacity:.996" fill="#1967ab" d="M1079.5 195.5h-72c21.47-1.354 43.14-2.687 65-4 2.6 1.17 4.94 2.503 7 4"/>
  <path style="opacity:.996" fill="#1a68ab" d="M1161.5 195.5h-70q34.2-2.03 69-4c.93 1.189 1.26 2.522 1 4"/>
  <path style="opacity:.996" fill="#7ea1b4" d="M831.5 196.5v-1h70q.486 10.281-1 20v-19z"/>
  <path style="opacity:.996" fill="#1e6fb6" d="M1323.5 495.5v-440q1.845-.332 3-2a8.97 8.97 0 0 1 3 4l-3 6q-.495 216.504-3 432"/>
  <path style="opacity:.996" fill="#fbfdfc" d="M855.5 215.5v24a401 401 0 0 0 40 1v19h-40q-1.258.512-1 2-1.287 6.293-7 7 1.783 1.393 4 1 1.941 14.708 0 29a302 302 0 0 1-14 2q-5.66-.54-2-4-4-3 0-6a471 471 0 0 1-2-43q.084-24.743 1-49a1074 1074 0 0 1 65-1v16q-22.557-.975-44 2"/>
  <path style="opacity:.996" fill="#f9fdfb" d="M963.5 197.5q6.189.108 12 2a56.5 56.5 0 0 1 10 8q8.536 13.745 5.5 30a20.1 20.1 0 0 0-1.5 6 87 87 0 0 1-10 12q-5.183.942-3.5 6a2305 2305 0 0 0 20.5 40.5q-13.491.75-27 .5a101.3 101.3 0 0 0-10-21 29.4 29.4 0 0 1-2-7q-.32-5.644-4-10-8.73-1.974-17 0a343 343 0 0 0-1 37h-22v-104z"/>
  <path style="opacity:.996" fill="#fbfdfc" d="M1031.5 215.5v24h36a89 89 0 0 1 2 16q-18-.25-36 .5c-.56.383-.89.883-1 1.5v25c15.16.996 30.49 1.33 46 1a78 78 0 0 1-1 17c-22.66 1-45.32 1.333-68 1v-104h68v16c-15.7-.651-31.04.016-46 2"/>
  <path style="opacity:.996" fill="#fcfdfc" d="M1115.5 215.5v23c12.49.995 25.16 1.329 38 1v16c-13.04-.647-25.71.02-38 2q-.93.166-1.5 1c-.33 7-.67 14-1 21-.33-.667-.67-1.333-1-2a24.1 24.1 0 0 0-2.5 10 344 344 0 0 1 50-2v14c-22.35-.754-44.68-.921-67-.5.95-3.057 1.28-6.223 1-9.5 1.48.262 2.81-.071 4-1q-1.23-1.329-3-1c-.25-18.353-.58-37.019-1-56q3.81-17.056 0-34h66v16c-15.04-.65-29.7.017-44 2"/>
  <path style="opacity:.996" fill="#275f92" d="M830.5 197.5q-.498 52.756 1 105v1q-2-25.98-2-53 0-26.755 1-53"/>
  <path style="opacity:.996" fill="#1c6eb9" d="M911.5 199.5v104q-2.988-44.472-2-90h-4q.393-2.217-1-4-2.06 4.246 2 7a9.1 9.1 0 0 0-1 5h-8v-4h-40q-.495 10.05 1 20a3.65 3.65 0 0 0 1.5-1q18.202.487 35.5 3h-40v-24h45q1.486-9.719 1-20h-70q36.206-2.028 73-4l2 16a52 52 0 0 0 1.5-10q1.064 2.21 3.5 2"/>
  <path style="opacity:.996" fill="#3075b8" d="M985.5 207.5a33 33 0 0 0 7 3 105.7 105.7 0 0 1 0 29q-.836 2.748-3 4a20.1 20.1 0 0 1 1.5-6q3.036-16.255-5.5-30"/>
  <path style="opacity:.996" fill="#2c6caa" d="M1032.5 215.5h47c-14.96 1.984-30.3 2.651-46 2v20c-.99-7.148-1.32-14.481-1-22"/>
  <path style="opacity:.996" fill="#256daf" d="M1115.5 215.5h46c-14.3 1.983-28.96 2.65-44 2v18c13.04-.647 25.71.02 38 2h-40z"/>
  <path style="opacity:.996" fill="#d3fcff" d="M959.5 196.5q2.398-.401 4 1h-50v104h22a343 343 0 0 1 1-37v38h-24v-106z"/>
  <path style="opacity:.996" fill="#799eaf" d="M1007.5 195.5h72v20h-1v-19h-70v106h71q-35.745 1.497-72 1z"/>
  <path style="opacity:.996" fill="#8eb0c3" d="M1115.5 238.5v-1h40v20h-1v-19z"/>
  <path style="opacity:.996" fill="#030303" d="M411.5 238.5q79.501-.25 159 .5 15.793 2.318 24.5 15.5a1154 1154 0 0 1 17.5 42l1.5 1q41.036-15.976 29 27-6.317 6.529-15.5 7a160.7 160.7 0 0 1 9.5 34q1.454 46.072-1 92-2.89 7.392-10.5 9.5-16.5 1-33 0-7.403-3.552-9.5-11.5a242 242 0 0 1-.5-22h-181q.25 11.011-.5 22-2.076 6.387-7.5 10.5a179.7 179.7 0 0 1-37 1l-6.5-4.5-3-6a2070 2070 0 0 1 0-91q.477-5.543 1.5-11a456 456 0 0 0 7-23q-12.605-.393-16.5-12a90.5 90.5 0 0 1 0-19q2.883-7.684 11-8a335 335 0 0 1 21.5 5 305 305 0 0 1 20.5-48q8.847-7.293 19.5-11"/>
  <path style="opacity:.996" fill="#1d6eb9" d="M1007.5 195.5v108q-1.23-3.703-1.5-8c-.06-28.027-.89-56.027-2.5-84 .33-4 .67-8 1-12q1.53-2.102 3-4"/>
  <path style="opacity:.996" fill="#d0e9f2" d="M1031.5 215.5h1c-.32 7.519.01 14.852 1 22h38v20h-39c.11-.617.44-1.117 1-1.5q18-.75 36-.5a89 89 0 0 0-2-16h-36z"/>
  <path style="opacity:.996" fill="#e9f7f8" d="M1091.5 195.5h70v20h-46c14.3-1.983 28.96-2.65 44-2v-16h-66q3.81 16.944 0 34c.42 18.981.75 37.647 1 56q1.77-.329 3 1c-1.19.929-2.52 1.262-4 1 .28 3.277-.05 6.443-1 9.5 22.32-.421 44.65-.254 67 .5v-14c-16.78-.546-33.44.121-50 2 .11-3.5.94-6.834 2.5-10 .33.667.67 1.333 1 2 .33-7 .67-14 1-21q.57-.834 1.5-1v26h46v18h-70z"/>
  <path style="opacity:.201" fill="#337cba" d="M1327.5 23.5a168 168 0 0 1 3 4c.61-.124.94-.457 1-1 5.05 9.648 8.21 19.981 9.5 31q1.005 218.5 0 437-.3 2.822-1.5 5c.33-148.834 0-297.501-1-446-2.2-8.41-5.53-16.41-10-24-.97-1.896-1.3-3.896-1-6"/>
  <path style="opacity:.996" fill="#e1f6fd" d="M831.5 196.5h69v19h-45q21.443-2.975 44-2v-16q-32.568-.483-65 1a1426 1426 0 0 0-1 49q.025 21.73 2 43-4 3 0 6-3.66 3.46 2 4a302 302 0 0 0 14-2q1.941-14.292 0-29-2.217.393-4-1 5.713-.707 7-7v41h-23a2757 2757 0 0 1-1-105q0-1 1-1"/>
  <path style="opacity:.996" fill="#2971b4" d="M937.5 215.5q12.107-.544 24 1.5 1.321 1.063 2 2.5 6.82 5.375 4.5 14-2.199 8.455-10.5 10h-20z"/>
  <path style="opacity:.996" fill="#1574cb" d="M963.5 219.5a703 703 0 0 0 2 8 63 63 0 0 1-4 13 122 122 0 0 1-22 1v-24a91.6 91.6 0 0 1 24 2"/>
  <path style="opacity:.996" fill="#2672bb" d="M1033.5 273.5v-16h38v-20h-32q17.43-2.969 36-2v26c-13.23-2.178-26.57-2.511-40-1 .67.667 1.33 1.333 2 2-1.76 2.712-2.43 5.712-2 9 1.48-.262 2.81.071 4 1q-2.85 1.449-6 1"/>
  <path style="opacity:.996" fill="#3c6986" d="M937.5 215.5v28h20q-10.22 1.487-21 1-.49-14.772 1-29"/>
  <path style="opacity:.996" fill="#fdfdfd" d="M418.5 252.5q73.002-.25 146 .5 11.522 6.027 15.5 18.5a1433 1433 0 0 0 19 47q2.052 4.857 1 10-1.25 3.25-4.5 4.5-104 1-208 0a11.5 11.5 0 0 1-4.5-3.5q-1.107-5.642 1-11a3178 3178 0 0 1 26-59q3.942-4.065 8.5-7"/>
  <path style="opacity:.996" fill="#567f94" d="M913.5 195.5q23.263-.495 46 1h-47v106h24v-38a65 65 0 0 1 16 1q.544 1.025 1 2-7.663-2.664-16-2v36q-12.403 2.955-26 2v-104q-.514-2.975 2-4"/>
  <path style="opacity:.996" fill="#d9f6fa" d="M1115.5 238.5h39v19h-39c12.29-1.98 24.96-2.647 38-2v-16c-12.84.329-25.51-.005-38-1"/>
  <path style="opacity:.996" fill="#48748a" d="M1322.5 55.5h1v440c0 1.333-.67 2-2 2 1-147.293 1.33-294.626 1-442"/>
  <path style="opacity:.996" fill="#3577b6" d="M1115.5 257.5h40c-12.29 1.98-24.96 2.647-38 2v22c15.7-.651 31.04.016 46 2h-48z"/>
  <path style="opacity:.996" fill="#74b2eb" d="M895.5 240.5q1.486 9.719 1 20h-41v-1h40z"/>
  <path style="opacity:.996" fill="#2e71b5" d="M855.5 239.5h40a268 268 0 0 1 4 18q-1.881 2.751-2 6a244.4 244.4 0 0 0-40 2q.97 19.566-2 38v-43h41q.486-10.281-1-20a401 401 0 0 1-40-1"/>
  <path style="opacity:.996" fill="#c6eafc" d="M936.5 264.5q8.27-1.974 17 0 3.68 4.356 4 10a35.7 35.7 0 0 1-4-7 44 44 0 0 0-1-2 65 65 0 0 0-16-1"/>
  <path style="opacity:.996" fill="#2972bb" d="M979.5 255.5q-1.83 2.673-2 6 4.118-.19 6 3.5-2.41 1.573-2 4.5 2.987.258 5-2 1.393 1.783 1 4h6a61 61 0 0 1-2 16h4a49.7 49.7 0 0 0 2 14.5q.537 5.606-5 6.5l-21-2q-1.5 2-3 0a235 235 0 0 1-3-11h-4a103 103 0 0 1-2-14 101.3 101.3 0 0 1 10 21q13.509.25 27-.5a2305 2305 0 0 1-20.5-40.5q-1.683-5.058 3.5-6"/>
  <path style="opacity:.996" fill="#dbfcfe" d="M1078.5 215.5h-47c14.96-1.984 30.3-2.651 46-2v-16h-68v104c22.68.333 45.34 0 68-1a78 78 0 0 0 1-17c.99 6.145 1.32 12.478 1 19h-71v-106h70z"/>
  <path style="opacity:.996" fill="#1e6fbb" d="M953.5 267.5a35.7 35.7 0 0 0 4 7 29.4 29.4 0 0 0 2 7q-4.22-1.419-4-6-2.987-.258-5 2a9.86 9.86 0 0 1-1-6q-5.012-.754-9-4-.519 17.544-3 34v-36q8.337-.664 16 2"/>
  <path style="opacity:.996" fill="#275f96" d="M1032.5 257.5h1v24c15.34-.167 30.67 0 46 .5-15.66.5-31.33.667-47 .5z"/>
  <path style="opacity:.996" fill="#ccfaff" d="M1161.5 283.5h1v19h-71v-1h70z"/>
  <path style="opacity:.996" fill="#6c90a1" d="M855.5 259.5v44h-24v-1h23v-41q-.258-1.488 1-2"/>
  <path style="opacity:.996" fill="#507d91" d="M1162.5 283.5h1c.63 7.084-.04 13.75-2 20-23.51.331-46.84-.002-70-1h71z"/>
  <path style="opacity:.996" fill="#3476bb" d="M1091.5 195.5v107c23.16.998 46.49 1.331 70 1q-1.38 4.14-6 4c-21.86-1.464-43.7-2.798-65.5-4-.17-18-.33-36-.5-54 0-18.346.67-36.346 2-54"/>
  <path style="opacity:.996" fill="#2c72b0" d="M773.5 325.5q-14.526-6.797-30-2v-4q12.042-.497 24 1 4.327 1.13 6 5"/>
  <path style="opacity:.996" fill="#226fb7" d="M981.5 335.5h-2v-14h-58q30.46-2.982 62-2a49.9 49.9 0 0 0-2 16"/>
  <path style="opacity:.996" fill="#3f77b2" d="M1251.5 325.5c-2.45-1.394-5.12-2.228-8-2.5q-18-.75-36-.5v-1c12.55-2.002 25.22-2.502 38-1.5q4.125 1.654 6 5.5"/>
  <path style="opacity:.996" fill="#6f95a7" d="M1148.5 322.5v-1h51v14h-1v-13z"/>
  <path style="opacity:.996" fill="#fcfdfc" d="M921.5 323.5h56q.64 4.932-2 9-8.594.549-16 3h-1a901 901 0 0 0-1 60h-14v-62h-22z"/>
  <path style="opacity:.996" fill="#f9fdfc" d="M1165.5 335.5v16h27c.98 4.134 1.32 8.468 1 13h-29v19h33v12h-48v-72h46v10a393 393 0 0 0-28 .5c-.92.278-1.58.778-2 1.5"/>
  <path style="opacity:.996" fill="#fbfdfb" d="M811.5 395.5q-3.304-.155-6-2h-1q-7.619-6.235-9-16v-54h14q-.25 28.005.5 56l1-1q3.48 7.752 12 9 4.921-2.198 10.5-2-.667 4.298 2 7.5-2.9 1.175-4.5-1.5-1.517 1.255-3.5 1v3z"/>
  <path style="opacity:.996" fill="#2a6fb2" d="M1045.5 343.5c-6.75-17.219-19.42-24.385-38-21.5a43 43 0 0 0-8 3.5c.91-1.917 2.24-3.583 4-5q12-2 24 0 3.75 3.47 9 3.5c.84 1.011 1.17 2.178 1 3.5h4a108 108 0 0 1 4 16"/>
  <path style="opacity:.996" fill="#fbfdfc" d="M849.5 376.5q-.189 7.873-6 13h-4a1336 1336 0 0 0-3.5-16q-.75-24.995-.5-50h14z"/>
  <path style="opacity:.996" fill="#2d6fad" d="M773.5 325.5q11.595 3.618 12 16-3.812-9.615-12-16"/>
  <path style="opacity:.996" fill="#f5fcfb" d="M1079.5 322.5a591 591 0 0 1 8 23 89 89 0 0 0 4 10 100.6 100.6 0 0 0 5.5 17 1510 1510 0 0 0 16.5-50h23v74h-17v-33c1.15-5.819 1.32-11.819.5-18a10.07 10.07 0 0 0-1.5 6c-1.06 1.1-1.89 2.434-2.5 4a1028 1028 0 0 1-12.5 40 46.8 46.8 0 0 1-13 1c.24-1.291-.1-2.291-1-3-.38-2.198-1.04-4.198-2-6a933 933 0 0 0-13.5-40c-.5 16.33-.67 32.663-.5 49h-16v-74z"/>
  <path style="opacity:.996" fill="#2f6da7" d="M739.5 325.5q-10.787 8.572-14 22 .543-12.586 10-21 1.783-1.393 4-1"/>
  <path style="opacity:.996" fill="#286eb0" d="M1252.5 325.5c3.86.874 7.53 2.207 11 4a170 170 0 0 1-1 26q-1.155 1.668-3 2c5.87-12.665 3.53-23.332-7-32"/>
  <path style="opacity:.996" fill="#c7e3e9" d="M921.5 321.5h58v14h-20q7.406-2.451 16-3 2.64-4.068 2-9h-56z"/>
  <path style="opacity:.996" fill="#1c71c1" d="M689.5 175.5h2q.25 164.5-.5 329-.575.834-1.5 1z"/>
  <path style="opacity:.996" fill="#f6fcfb" d="M1207.5 322.5q18-.25 36 .5c2.88.272 5.55 1.106 8 2.5h1c10.53 8.668 12.87 19.335 7 32a58 58 0 0 1-9 9c4.68 9.737 9.35 19.403 14 29-.12.607-.46.94-1 1-5.68.166-11.34-.001-17-.5q-5.64-12.9-12-25.5a31.1 31.1 0 0 0-11-1v27h-16z"/>
  <path style="opacity:.996" fill="#3171ae" d="M751.5 335.5q15.91-4.597 17 12a31 31 0 0 0-2 2q-.49-6.528-5-11a55 55 0 0 1-10-3"/>
  <path style="opacity:.996" fill="#1572ca" d="M1199.5 335.5h4a65 65 0 0 1-1 16 53 53 0 0 1-1.5-10 34.2 34.2 0 0 0-1.5 8h-32v-12c11.05.643 21.72-.024 32-2"/>
  <path style="opacity:.996" fill="#7799ac" d="M811.5 321.5v54a703 703 0 0 1-1-53h-16v50a343 343 0 0 1-1-37v-14z"/>
  <path style="opacity:.996" fill="#1673cc" d="M885.5 335.5q-.894 8.506 4 3 1.783-1.393 4-1v6q2.217-.393 4 1-2.912 4.444-8 5-2.287-2.304-6-3-7.897-6.795 2-11"/>
  <path style="opacity:.996" fill="#1d73c4" d="M921.5 321.5v12q8.361 2.93 18 2v4h-20v4h4q.031 4.552 4 7-2.258 2.012-2 5h-4q-.258-2.988 2-5-2.361-1.697-5-.5l1 1q-1.524.779-2 2.5 1.881 2.751 2 6h-6v-8q-2.217.393-4-1a26.7 26.7 0 0 1 7-1.5q2.24-1.735-.5-2.5-7.864.384-14.5 3-9.891 4.063-2-3 8.594-.549 16-3-1.599-16.856-18-21.5a163 163 0 0 0-18-.5q3.88-1.974 9-2a239 239 0 0 1 26 4l2-4q2.013 2.258 5 2"/>
  <path style="opacity:.996" fill="#d2f9fe" d="M1148.5 322.5h50v13h-33c.42-.722 1.08-1.222 2-1.5a393 393 0 0 1 28-.5v-10h-46v72h48v-12h1v13h-50z"/>
  <path style="opacity:.996" fill="#296fb0" d="M878.5 321.5q-8.69 3.485-14.5 11-4.67 9.342-.5 19-1.314.197-2-1-.791-2.754-2-5-1.587-11.075 6-19-2.851-2.153-1-5 1.684 1.565 4 2a23.8 23.8 0 0 1 10-2"/>
  <path style="opacity:.996" fill="#3270a8" d="M893.5 335.5h-8q-9.897 4.205-2 11 3.713.696 6 3v2q-9.046-1.501-12-10 1.245-4.252 5-6.5 5.786-1.215 11 .5"/>
  <path style="opacity:.996" fill="#2671b9" d="M885.5 335.5h8q5.798 1.81 6 8h16q-7.406 2.451-16 3-7.891 7.063 2 3 3.38 1.865 6 5 1.783 1.393 4 1a9.86 9.86 0 0 0 1 6q5.615 5.814 5 14-.271 8.508-4 16h-4q10.895-13.953 1.5-29-9.407-8.079-21.5-11v-2q5.088-.556 8-5-1.783-1.393-4-1v-6q-2.217-.393-4 1-4.894 5.506-4-3"/>
  <path style="opacity:.996" fill="#3073ad" d="M769.5 347.5h16q-3.365 1.968-8 2-4.635-.032-8-2"/>
  <path style="opacity:.996" fill="#266eb1" d="M1165.5 335.5h34c-10.28 1.976-20.95 2.643-32 2v12h24c.33.667.67 1.333 1 2h-27z"/>
  <path style="opacity:.996" fill="#1c72c4" d="M851.5 335.5q2.682-.428 5 1a34.3 34.3 0 0 0-1 11q2.975.514 4-2 1.209 2.246 2 5 .686 1.197 2 1 1.077 5.613 6 9a37.9 37.9 0 0 1 10 6 25.9 25.9 0 0 0 10 1q14.152 3.707 6 15.5-8.173 1.344-16-1-3.603-4.055-4-9.5h-16v11h-4v-4h-4a9.86 9.86 0 0 1-1 6l-7 7q1.783 1.393 4 1v4q-17.847 3.238-36 1-4.327-1.13-6-5 2.696 1.845 6 2 .626 1.083 2 1.5 7.984.749 16 .5 4.12.47 8-1 1.668-1.148 2-3l4-4q5.811-5.127 6-13 1.356-1.063 1-3a362 362 0 0 0 1-38"/>
  <path style="opacity:.996" fill="#306a9e" d="M1087.5 345.5q1.845.332 3 2a16.9 16.9 0 0 1 1 8 89 89 0 0 1-4-10"/>
  <path style="opacity:.996" fill="#3d6b8e" d="M833.5 322.5v-1h18v14a362 362 0 0 1-1 38v-51z"/>
  <path style="opacity:.996" fill="#1a6eb8" d="M959.5 335.5h20v4h-19a494 494 0 0 1 .5 52q-.315 2.337-1.5 4z"/>
  <path style="opacity:.996" fill="#2870b9" d="M1113.5 321.5v1a1510 1510 0 0 1-16.5 50 100.6 100.6 0 0 1-5.5-17h4c-.64-2.635-1.31-5.302-2-8q.165-3.711 3-6a25.8 25.8 0 0 1 1 10c1.48.262 2.81-.071 4-1a27.6 27.6 0 0 0 3.5-6q2.97-11.39 4.5-23z"/>
  <path style="opacity:.996" fill="#2e71b0" d="M1243.5 339.5q.93.166 1.5 1 3.87 11.775-7.5 15.5a98.4 98.4 0 0 1-14 .5v-21c5.68-.166 11.34.001 17 .5q2.34 1.139 3 3.5"/>
  <path style="opacity:.996" fill="#1773ca" d="M1243.5 339.5c.32 4.055-.01 8.055-1 12-2.02 1.673-4.36 2.34-7 2-.02-5.002-1.36-5.335-4-1q-2.85 1.449-6 1v-16q9.285-.174 18 2"/>
  <path style="opacity:.996" fill="#f3fbfa" d="M878.5 321.5h1q9.014-.249 18 .5 16.401 4.644 18 21.5h-16q-.202-6.19-6-8-5.214-1.715-11-.5-3.755 2.248-5 6.5 2.954 8.499 12 10 12.093 2.921 21.5 11 9.395 15.047-1.5 29-3.442 1.462-6 4-13.443 3.512-27 .5-12.276-4.529-17-16.5v-7h16q.397 5.445 4 9.5 7.827 2.344 16 1 8.152-11.793-6-15.5a245 245 0 0 1-19-8.5 73 73 0 0 1-7-7.5q-4.17-9.658.5-19 5.81-7.515 14.5-11"/>
  <path style="opacity:.729" fill="#3c82bf" d="M243.5 52.5v409a511 511 0 0 0 1 42q-2.399-7.603-2.5-16l-.5-29q.354-195.952 0-391.5.57-7.528 2-14.5"/>
  <path style="opacity:.996" fill="#2b6fad" d="M833.5 321.5v1q.25 26.505-.5 53-.348 1.856-1.5 3-.98-29.044 2-57"/>
  <path style="opacity:.996" fill="#226eaf" d="M939.5 335.5q2.982 29.458 2 60-2.98-27.455-2-56z"/>
  <path style="opacity:.996" fill="#5b7f94" d="M1119.5 363.5c.32-4.202-.02-8.202-1-12a10.07 10.07 0 0 1 1.5-6c.82 6.181.65 12.181-.5 18"/>
  <path style="opacity:.996" fill="#316da6" d="M863.5 351.5a73 73 0 0 0 7 7.5 245 245 0 0 0 19 8.5 25.9 25.9 0 0 1-10-1 37.9 37.9 0 0 0-10-6q-4.923-3.387-6-9"/>
  <path style="opacity:.996" fill="#4279ae" d="M1079.5 322.5h-22v74h16v1q-9.645.93-18-2v-74q12.27-.489 24 1"/>
  <path style="opacity:.996" fill="#fafafa" d="M382.5 367.5q24.505-.25 49 .5a17.8 17.8 0 0 1 4.5 5.5q1 10.5 0 21-1.1 5.601-6.5 7.5-22.5 1-45 0-4.75-1.75-6.5-6.5a132.4 132.4 0 0 1 0-23 33 33 0 0 1 4.5-5"/>
  <path style="opacity:.996" fill="#fbfbfb" d="M552.5 367.5a429 429 0 0 1 50 1.5l2.5 2.5q1 13 0 26l-4.5 4.5a307.4 307.4 0 0 1-49-1 11.5 11.5 0 0 1-3.5-4.5q-1-12 0-24 1.79-2.996 4.5-5"/>
  <path style="opacity:.996" fill="#547b90" d="M958.5 335.5h1v60q-3.365 1.968-8 2-4.283-.004-8-1h15z"/>
  <path style="opacity:.996" fill="#91b7d4" d="M1193.5 364.5v1h-28v17q16.77-.492 33 1h-34v-19z"/>
  <path style="opacity:.996" fill="#2778cc" d="M1207.5 321.5v75q-1.245-36.245-1.5-73c-.5 21.331-.67 42.664-.5 64q-1.845-.332-3-2c-.67 4.667-1.33 9.333-2 14-.8-.457-1.13-1.124-1-2v-14c-10.28-1.976-20.95-2.643-32-2v-14c9.06.636 17.73-.03 26-2v-1c.32-4.532-.02-8.866-1-13-.33-.667-.67-1.333-1-2h8q.27-4.074 1.5-8 .27 5.073 1.5 10a65 65 0 0 0 1-16h-4v-14h-52q26.46-2.98 54-2a49.9 49.9 0 0 0 1 14 37 37 0 0 0 1-12z"/>
  <path style="opacity:.996" fill="#2d6ea8" d="M743.5 346.5q-.249 8.514.5 17l1-2a90 90 0 0 0 2.5 18q4.401 1.182 9 2l5-1a79 79 0 0 0 7-9q-1.763 15.493-17 11.5-8.13-3.485-8.5-12.5-1.234-12.265.5-24"/>
  <path style="opacity:.996" fill="#3075ba" d="M1087.5 387.5c-1.92-.906-3.58-2.239-5-4a41.2 41.2 0 0 0-4-12c-1.23 9.03-2.9 17.696-5 26v-1c-.17-16.337 0-32.67.5-49a933 933 0 0 1 13.5 40"/>
  <path style="opacity:.996" fill="#397db6" d="M785.5 371.5h-16q3.365-1.968 8-2 4.635.032 8 2"/>
  <path style="opacity:.996" fill="#2771b7" d="M725.5 347.5a133.6 133.6 0 0 0 2 30h-4q-.961-15.583 2-30"/>
  <path style="opacity:.996" fill="#417296" d="M1113.5 322.5v-1h24v76h-18v-1h17v-74z"/>
  <path style="opacity:.996" fill="#2168a7" d="M1193.5 365.5c-8.27 1.97-16.94 2.636-26 2v14c11.05-.643 21.72.024 32 2h-1q-16.23-1.492-33-1v-17z"/>
  <path style="opacity:.996" fill="#276fb3" d="M793.5 335.5a343 343 0 0 0 1 37q-.426 2.872 1 5 1.381 9.765 9 16-6.91-2.91-10-10l-4 4-1-2a5598 5598 0 0 1 4-50"/>
  <path style="opacity:.996" fill="#e5f9fc" d="M811.5 375.5q3.956 11.514 16 7.5 2.736-.99 4-3.5v-1q1.152-1.144 1.5-3 .75-26.495.5-53h17v51q.356 1.937-1 3v-53h-14q-.25 25.005.5 50a1336 1336 0 0 1 3.5 16h4l-4 4a88 88 0 0 0-10 4 129 129 0 0 1-16-.5q-1.374-.417-2-1.5h16v-3q1.983.255 3.5-1 1.6 2.675 4.5 1.5-2.667-3.202-2-7.5-5.579-.198-10.5 2-8.52-1.248-12-9l-1 1q-.75-27.995-.5-56h-14v54q-1.426-2.128-1-5v-50h16a703 703 0 0 0 1 53"/>
  <path style="opacity:.996" fill="#336498" d="M1207.5 396.5h16q-8.715 1.485-18 1v-10c-.17-21.336 0-42.669.5-64q.255 36.755 1.5 73"/>
  <path style="opacity:.996" fill="#236cb0" d="M811.5 321.5q1.997 10.955 2 23a301 301 0 0 1-1 24 177 177 0 0 0 2 9q8.157 2.831 17 2-1.264 2.51-4 3.5-12.044 4.014-16-7.5z"/>
  <path style="opacity:.996" fill="#f4fbfa" d="M773.5 325.5q8.188 6.385 12 16v6h-17q-1.09-16.597-17-12-7.266 3.002-8 11-1.734 11.735-.5 24 .37 9.015 8.5 12.5 15.237 3.993 17-11.5h17v4q-9.53 26.537-38 21.5-14.775-5.026-20-19.5a133.6 133.6 0 0 1-2-30q3.213-13.428 14-22 2.343-.35 4-2 15.474-4.797 30 2"/>
  <path style="opacity:.996" fill="#f3fafa" d="M1045.5 343.5c-.34 1.983.32 3.317 2 4 .4 9.447-.44 18.781-2.5 28q-9.84 25.808-37.5 22-19.954-8.336-23.5-30-2.612-19.545 8-36 3.996-2.247 6.5-6h1a43 43 0 0 1 8-3.5c18.58-2.885 31.25 4.281 38 21.5"/>
  <path style="opacity:.996" fill="#3372b3" d="M1027.5 343.5c1.43 1.648 2.26 3.648 2.5 6q1.92 14.418-3 28-6.375 8.124-16.5 5.5c-4.1-1.922-6.43-5.088-7-9.5 3.55 5.778 8.89 8.445 16 8 .21-1.644-.12-3.144-1-4.5a40.8 40.8 0 0 0 8-3.5c1-9.978 1.33-19.978 1-30"/>
  <path style="opacity:.996" fill="#2371b9" d="M1027.5 343.5q-3.375-1.865-6-5c-1.19-.929-2.52-1.262-4-1v6h-4v-4c-2.64-.34-4.98.327-7 2a486 486 0 0 1-3 32q-1.08-.626-1.5-2-1.005-12 0-24c3.04-11.936 10.21-15.436 21.5-10.5 1.73 1.972 3.07 4.139 4 6.5"/>
  <path style="opacity:.996" fill="#1573cc" d="M1027.5 343.5c.33 10.022 0 20.022-1 30a40.8 40.8 0 0 1-8 3.5c.88 1.356 1.21 2.856 1 4.5-7.11.445-12.45-2.222-16-8a486 486 0 0 0 3-32c2.02-1.673 4.36-2.34 7-2v4h4v-6c1.48-.262 2.81.071 4 1q2.625 3.135 6 5"/>
  <path style="opacity:.996" fill="#1d71c1" d="M1047.5 347.5c1.32 3.607 1.99 7.607 2 12-.25 5.556-.92 11.056-2 16.5.33 1.5.67 3 1 4.5 1.16-4.387 2.49-8.721 4-13q.54-9.583 3-18v46c-3.4.32-6.73-.013-10-1q1.965-4.357 1.5-9c-2 2.109-4.33 3.776-7 5a27 27 0 0 1-1.5 7c-1.44-1.901-3.1-2.234-5-1q3.585 1.964 0 3a23 23 0 0 0-5-2 56 56 0 0 1-12 2q-5.115-.026-9-2 27.66 3.808 37.5-22c2.06-9.219 2.9-18.553 2.5-28"/>
  <path style="opacity:.996" fill="#1e71c1" d="M1118.5 351.5c.98 3.798 1.32 7.798 1 12v34c-2.65-1.156-4.49-3.156-5.5-6-1.13 1.104-1.96.771-2.5-1-1.19-.929-2.52-1.262-4-1q2.28 11.221-9 10c-2.77-.029-5.1-.695-7-2q6.705.884 12-2a1028 1028 0 0 0 12.5-40c.61-1.566 1.44-2.9 2.5-4"/>
  <path style="opacity:.996" fill="#c9ebf1" d="M921.5 333.5h22v62h14a901 901 0 0 1 1-60v61h-15q-1.487.258-2-1 .982-30.542-2-60-9.639.93-18-2"/>
  <path style="opacity:.996" fill="#3576b7" d="M1263.5 396.5c-6.45 1.617-13.11 2.617-20 3-.12-3.36-.45-6.693-1-10h-5c.17-1.992-.5-3.658-2-5 1.9-1.435 2.23-3.102 1-5-1.22-1.211-2.39-1.211-3.5 0l-1.5-1.5c1.75-1.754 2.42-3.921 2-6.5h-8c.17 8.007 0 16.007-.5 24q-.57.834-1.5 1v-27c3.73-.323 7.39.011 11 1q6.36 12.6 12 25.5c5.66.499 11.32.666 17 .5"/>
  <path style="opacity:.996" fill="#1b71bb" d="M259.5 63.5v432q-2.03-66.617-4-134a64.5 64.5 0 0 0 0-18l2-16-2-16q1.933-124.47 4-248"/>
  <path style="opacity:.996" fill="#2871b4" d="M859.5 379.5q4.724 11.971 17 16.5 13.557 3.012 27-.5-.332 1.852-2 3a85 85 0 0 1-26 0 24.8 24.8 0 0 0-8-5 7.3 7.3 0 0 0-3 2 139 139 0 0 1-5-12z"/>
  <path style="opacity:.996" fill="#2273bf" d="M998.5 325.5q-2.504 3.753-6.5 6-10.612 16.455-8 36 3.546 21.664 23.5 30c-2.58-.417-4.75.25-6.5 2-.63-2.491-1.459-2.491-2.5 0q-2.013-2.258-5-2a41.3 41.3 0 0 1-2-10h-4a115.5 115.5 0 0 1-5-16l-2 1a22.5 22.5 0 0 0-3-4q1.881-5.213 2-11a83 83 0 0 0-2-14q2.987-.258 5 2 1.919-5.295-1-10 2.987-.258 5 2l3-6q-.476-1.721-2-2.5a470 470 0 0 1 11-3.5"/>
  <path style="opacity:.996" fill="#40749f" d="M839.5 393.5q-.332 1.852-2 3a16.9 16.9 0 0 1-8 1 88 88 0 0 1 10-4"/>
  <path style="opacity:.996" fill="#5987a4" d="M1089.5 393.5c.9.709 1.24 1.709 1 3 4.43.269 8.76-.064 13-1q-5.295 2.884-12 2c-1.68-.683-2.34-2.017-2-4"/>
  <path style="opacity:.996" fill="#588296" d="M1147.5 321.5h1v75h50v-13h1v14h-52z"/>
  <path style="opacity:.996" fill="#2871b5" d="M785.5 375.5a65 65 0 0 1-1 16l-2-4q-10.013 12.507-26 12a69 69 0 0 1-14-2 688 688 0 0 1-7 2q-.258-2.988 2-5l-7-7q-3.026-4.575-3-10 5.225 14.474 20 19.5 28.47 5.037 38-21.5"/>
  <path style="opacity:1" fill="#1b6fbc" d="M282.5-.5h3q-.626 1.083-2 1.5 2.157.329 4 1.5l-8 2-17 13q-3.942 6.57 3 2l2 1-7 7a9.3 9.3 0 0 0-2.5-2q-2.569.956-.5 3l-4 2q9.653 6.68 12-5h4q-.393 2.217 1 4 2.26-3.286 6-4-11.93 12.405-16 29 0-1-1-1a36.9 36.9 0 0 0-1-12q-3.034 2.51-7 2 .224-5.733 6-7l-3-3q-2.013 2.258-5 2a55.4 55.4 0 0 1-4 17 236 236 0 0 0-1 16q-.012 134.49 1 269l-.5 114q-.269 5.288-1.5 10v-409q.748-11.001 5.5-21 3.178-6.891 8.5-12a326 326 0 0 1 19-16z"/>
  <path style="opacity:.996" fill="#2a6faf" d="M1195.5 417.5c-20.19-6.553-34.85-.553-44 18 1.14-8.823 5.81-15.156 14-19a167 167 0 0 1 22-5c3.83.508 6.5 2.508 8 6"/>
  <path style="opacity:.996" fill="#3c6a8d" d="M885.5 423.5a254 254 0 0 1-3-6q-8.58-1.928-17 0 3.88-1.974 9-2l9 1q2.51 3.034 2 7"/>
  <path style="opacity:.996" fill="#3e7090" d="M1021.5 415.5h22c.15 3.054-1.19 5.054-4 6q.54-2.806 3-4.5-10.62-1.192-21 .5z"/>
  <path style="opacity:.996" fill="#366a8b" d="M1079.5 416.5q4.215-.997 9-1c3.85.162 7.51.829 11 2v4q-2.19-1.359-3-4a73 73 0 0 0-17-1"/>
  <path style="opacity:.996" fill="#f7fcfb" d="M823.5 417.5a82 82 0 0 1 10 2q17.077 13.769 8 34-5.632 8.585-16 10.5a197 197 0 0 0-20 1.5q-1.488 11.724-1 24h-15v-72z"/>
  <path style="opacity:.996" fill="#f5fbfa" d="M885.5 423.5a2800 2800 0 0 0 20 56 71 71 0 0 1 3 9q-8.213 1.483-17 1a88 88 0 0 0-4-10v-4h-26a107.5 107.5 0 0 1-4 14q-8.656.92-16-2l16-48a143.5 143.5 0 0 0 8-22q8.42-1.928 17 0a254 254 0 0 0 3 6"/>
  <path style="opacity:.996" fill="#f8fdfb" d="M951.5 417.5q13.783 1.295 19 14a75.5 75.5 0 0 1-1 16v1q-4.117 6.378-10 11.5a1183 1183 0 0 1 14 29.5 163 163 0 0 1-18-.5 830 830 0 0 0-12-24.5 31.1 31.1 0 0 0-11-1v26h-16v-72z"/>
  <path style="opacity:.996" fill="#f8fcfb" d="M1039.5 421.5a553 553 0 0 0-17.5 21 20.4 20.4 0 0 0-3.5 6.5 1284 1284 0 0 0 21 34.5 44 44 0 0 0 3 5.5c-6.32.5-12.66.666-19 .5a130 130 0 0 0-10-16v-2q-1.35-5.481-3-11-2.895-1.53-6-.5a34.2 34.2 0 0 1-6 7.5q-1.495 9.95-1 20h-14v-70h15q-.49 15.271 1 30a495 495 0 0 0 22-30q10.38-1.692 21-.5-2.46 1.694-3 4.5"/>
  <path style="opacity:.996" fill="#f9fdfc" d="M1079.5 416.5c5.71-.329 11.37.005 17 1q.81 2.641 3 4a492 492 0 0 0 12 22c2.33 4 4.67 8 7 12a32 32 0 0 0 3.5 6c.49-1.293.66-2.627.5-4 1-13.156 1.33-26.49 1-40 4.58-.513 8.92.154 13 2 .33 11.333.67 22.667 1 34a343 343 0 0 1-2 36c-4.35.166-8.68-.001-13-.5a517 517 0 0 1-11-17.5 48.2 48.2 0 0 0-6-10 106.7 106.7 0 0 0-9.5-17c-.5 14.996-.67 29.996-.5 45h-16z"/>
  <path style="opacity:.996" fill="#dbfcff" d="M1138.5 489.5h-3a343 343 0 0 0 2-36c-.33-11.333-.67-22.667-1-34-4.08-1.846-8.42-2.513-13-2 .33 13.51 0 26.844-1 40v-41h16z"/>
  <path style="opacity:.996" fill="#c8f9fe" d="M817.5 416.5q3.352-.442 6 1h-34v72h-1v-73z"/>
  <path style="opacity:.996" fill="#2f6fa7" d="M833.5 419.5q7.773 2.263 11 10a61 61 0 0 1 0 22q-1.148 1.668-3 2 9.077-20.231-8-34"/>
  <path style="opacity:.996" fill="#aed3e6" d="M951.5 417.5h-35v72h16q-8.213 1.483-17 1v-73q18-2 36 0"/>
  <path style="opacity:.996" fill="#70ace3" d="M1049.5 416.5v73h16v-73c1 24.161 1.33 48.494 1 73q-9 2-18 0v-72c0-.667.33-1 1-1"/>
  <path style="opacity:.996" fill="#fafdfc" d="M1049.5 416.5h16v73h-16z"/>
  <path style="opacity:.996" fill="#1973c9" d="M825.5 447.5q-1.264 2.51-4 3.5a32.5 32.5 0 0 1-8 .5q-2.127-2.712-6-2v-18h10a16.9 16.9 0 0 0 1 8q-.168-2.503 3-4a7.3 7.3 0 0 1 3 2 25.9 25.9 0 0 1 1 10"/>
  <path style="opacity:.996" fill="#1672c9" d="M935.5 431.5a85 85 0 0 1 13 .5 4.46 4.46 0 0 0 2 1.5q.837 4.905 3 9v1q-8.236 4.88-18 4z"/>
  <path style="opacity:.996" fill="#2e70ab" d="M865.5 417.5a143.5 143.5 0 0 1-8 22q.5-12.52 8-22"/>
  <path style="opacity:.996" fill="#256db0" d="M825.5 447.5a25.9 25.9 0 0 0-1-10 7.3 7.3 0 0 0-3-2q-3.168 1.497-3 4a16.9 16.9 0 0 1-1-8h-10v18q3.873-.712 6 2h-8v-22q9.181-.615 18 1.5 5.708 6.136 3.5 14.5-.417 1.374-1.5 2"/>
  <path style="opacity:.996" fill="#608aa1" d="M970.5 431.5q.996 3.717 1 8-.033 4.635-2 8a75.5 75.5 0 0 0 1-16"/>
  <path style="opacity:.996" fill="#216fba" d="M1121.5 417.5v38h-3c-2.33-4-4.67-8-7-12q2.67 1.83 6 2c.64-2.635 1.31-5.302 2-8-.22-1.884-.88-3.551-2-5a292 292 0 0 1 4-15"/>
  <path style="opacity:.996" fill="#3774ac" d="M935.5 429.5q8.408-.888 16 2.5 4.182 4.857 2 10.5-2.163-4.095-3-9a4.46 4.46 0 0 1-2-1.5 85 85 0 0 0-13-.5z"/>
  <path style="opacity:.996" fill="#256fb2" d="M1021.5 415.5v2a495 495 0 0 1-22 30v-30c1.95 5.574 2.62 11.574 2 18h4q0-6 6-6c-.02-3.035-1.35-5.368-4-7 2.57-1.368 4.9-1.034 7 1 1.9-3.186 4.23-5.853 7-8"/>
  <path style="opacity:.996" fill="#2273c3" d="M1099.5 417.5c-3.49-1.171-7.15-1.838-11-2q-4.785.003-9 1v73h18c1.81 1.418 2.47 3.418 2 6a28.2 28.2 0 0 1-7-2l-6 2-3-1c1.33-.667 2.67-1.333 4-2-3.27-.987-6.6-1.32-10-1 .26 1.478-.07 2.811-1 4a77 77 0 0 0-3-14 531 531 0 0 0 2-64c-1.99-.172-3.66.495-5 2-.67 20-1.33 40-2 60-.67 3.477-1.33 6.811-2 10 .33-24.506 0-48.839-1-73h-16c-.67 0-1 .333-1 1-1 21.16-1.33 42.493-1 64l-8 2a1284 1284 0 0 1-21-34.5c.78-2.39 1.94-4.557 3.5-6.5a553 553 0 0 1 17.5-21c2.81-.946 4.15-2.946 4-6h-20c2.93-1.32 6.26-1.986 10-2 5.1.158 9.93.492 14.5 1 5.18-3.488 10.52-3.822 16-1 .33-.667.67-1.333 1-2 2.22 1.933 4.55 2.933 7 3a36.8 36.8 0 0 0 7.5-2.5l8.5-.5c5.98-1.505 9.81.495 11.5 6"/>
  <path style="opacity:.996" fill="#4c7790" d="M935.5 429.5v2q-2.93 8.361-2 18h13q-6.705 1.479-14 1v-21z"/>
  <path style="opacity:.996" fill="#44758c" d="M817.5 416.5h-29v73h-1v-72q6.928-1.991 15-2 7.767.001 15 1"/>
  <path style="opacity:.996" fill="#236cb2" d="M915.5 417.5v72h-6q0-1-1-1a71 71 0 0 0-3-9q4.813 2.361 4 8h4q-.985-35.536 2-70"/>
  <path style="opacity:.996" fill="#1967ab" d="M1139.5 415.5c1.33 7.638 2 15.638 2 24a476 476 0 0 0 0 40c-.01 3.739-.68 7.072-2 10z"/>
  <path style="opacity:.996" fill="#1e6db2" d="M935.5 431.5v16q9.764.88 18-4-1.668 5.169-7 6h-13q-.93-9.639 2-18"/>
  <path style="opacity:.996" fill="#2c628b" d="M1209.5 450.5c-9.85-.327-19.51.006-29 1h-1q6.93-1.991 15-2 7.77.001 15 1"/>
  <path style="opacity:.996" fill="#246db1" d="M1151.5 435.5q-3.99 16.971 0 34-1.08.626-1.5 2a145.5 145.5 0 0 1-2.5-36z"/>
  <path style="opacity:.996" fill="#63899e" d="M1139.5 415.5v74h-1v-73h-16v41a8.4 8.4 0 0 1-.5 4 32 32 0 0 1-3.5-6h3v-38q8.355-2.93 18-2"/>
  <path style="opacity:.996" fill="#2b6eae" d="M881.5 459.5q-2.846 1.957-7 2-4.154-.043-7-2-.361-3.597 2-6a72.8 72.8 0 0 1 5-16 147 147 0 0 1 7 22"/>
  <path style="opacity:.996" fill="#1770c9" d="M869.5 453.5q2.514-1.025 2-4h6q.258 2.988-2 5 2.258 2.012 2 5h-8z"/>
  <path style="opacity:.996" fill="#1c6fba" d="M787.5 417.5v68q-1.998-16.47-2-34 .002-17.53 2-34"/>
  <path style="opacity:.996" fill="#4b778d" d="M999.5 416.5h-17v73a1296 1296 0 0 1-1-72q3.88-1.974 9-2 4.779.003 9 1"/>
  <path style="opacity:.996" fill="#3071b2" d="M1105.5 461.5c-2.42-1.468-5.08-2.135-8-2v30h-2c-.17-15.004 0-30.004.5-45 3.7 5.398 6.86 11.065 9.5 17"/>
  <path style="opacity:.996" fill="#4378a8" d="M841.5 453.5q-1.077 5.613-6 9a40.2 40.2 0 0 1-12 3h-18a197 197 0 0 1 20-1.5q10.368-1.915 16-10.5"/>
  <path style="opacity:.996" fill="#91b2bf" d="M867.5 459.5q2.846 1.957 7 2 4.154-.043 7-2 1.356 1.063 1 3h-16q-.356-1.937 1-3"/>
  <path style="opacity:.996" fill="#1d71bf" d="M981.5 417.5q-.497 36.258 1 72 8.213 1.483 17 1-10.722 1.488-22 1l2-8h-4a18.5 18.5 0 0 1-.5 6q-.575.834-1.5 1v-1a1183 1183 0 0 0-14-29.5q5.883-5.122 10-11.5.428 2.682-1 5-3.708 2.697-5 7l3 9q5.852-4.876 8-12 .714 3.928 4 6 .513-23.533 3-46"/>
  <path style="opacity:.996" fill="#336fa6" d="M1171.5 433.5c-2.04 11.259-2.37 22.593-1 34 .93 2.862 2.6 5.195 5 7 4.67 1.333 9.33 1.333 14 0 1.81-3.399 2.48-7.066 2-11 .98 3.462 1.31 7.129 1 11q-19.56 10.346-25.5-11-1.005-10.5 0-21 1.53-5.058 4.5-9"/>
  <path style="opacity:.996" fill="#b5d7ef" d="M1180.5 451.5c9.49-.994 19.15-1.327 29-1v31h-1v-30z"/>
  <path style="opacity:.996" fill="#1f6eb0" d="M1209.5 451.5c1.33 4.619 1.99 9.619 2 15-.01 5.381-.67 10.381-2 15z"/>
  <path style="opacity:.996" fill="#3974ab" d="M973.5 489.5v1q-9.719 1.486-20 1l-10-24h-4v-3h-6v27q-9.285.485-18-1 8.787.483 17-1v-26a31.1 31.1 0 0 1 11 1 830 830 0 0 1 12 24.5q8.986.749 18 .5"/>
  <path style="opacity:.996" fill="#d4f1f9" d="M999.5 416.5v31q-1.49-14.729-1-30h-15v70h14q-.495-10.05 1-20a34.2 34.2 0 0 0 6-7.5q3.105-1.03 6 .5 1.65 5.519 3 11a75 75 0 0 1-6.5-10l-6 6a87 87 0 0 0-1.5 22v1q-8.787.483-17-1v-73z"/>
  <path style="opacity:.996" fill="#1972c1" d="M805.5 465.5h18q-5.293 2.884-12 2 .258 2.988-2 5l16 2a19 19 0 0 1-5 3q-5.32-.42-11 0a77.7 77.7 0 0 0 1 17q-1.238 1.329-3 1v-4q-4.534-.592-3 3a13.1 13.1 0 0 1-7 1v-4q-5.744.853-10-2h1q8.213 1.483 17 1z"/>
  <path style="opacity:.996" fill="#276aa9" d="M887.5 479.5q-11.7-2.79-24-2a63.4 63.4 0 0 1-4 13q-9.231 1.976-18 0 8.29.482 16-1a107.5 107.5 0 0 0 4-14h26z"/>
  <path style="opacity:.996" fill="#3a79b8" d="M1111.5 471.5a517 517 0 0 0 11 17.5c4.32.499 8.65.666 13 .5h4v2a82 82 0 0 1-18-1c-3.97-2.638-6.31-6.305-7-11-.67.667-1.33 1.333-2 2a25.8 25.8 0 0 1-1-10"/>
  <path style="opacity:.996" fill="#f4fbfa" d="M1195.5 417.5c8.16 4.969 12.83 12.303 14 22a65 65 0 0 1-16-1c-3.47-8.692-9.8-11.525-19-8.5a14.7 14.7 0 0 0-3 3.5q-2.97 3.942-4.5 9-1.005 10.5 0 21 5.94 21.346 25.5 11c.98-3.798 1.32-7.798 1-12h-13v-11h28v30a21.5 21.5 0 0 1-5 4q-17.205 9.518-36 3.5c-7.3-4.129-12.63-9.962-16-17.5v-2q-3.99-17.029 0-34c9.15-18.553 23.81-24.553 44-18"/>
  <path style="opacity:.996" fill="#698fa7" d="M1179.5 451.5h1v11h13c.32 4.202-.02 8.202-1 12 .31-3.871-.02-7.538-1-11h-12z"/>
  <path style="opacity:.996" fill="#286eb0" d="M1013.5 471.5v2q-1.845-.332-3-2-1.2 2.366-1.5 5-1.935-4.276-1.5-9c-1.99-.172-3.66.495-5 2q-.54 10.575-3 20a87 87 0 0 1 1.5-22l6-6a75 75 0 0 0 6.5 10"/>
  <path style="opacity:.995" fill="#1e6fbc" d="M1338.5 53.5c1 148.499 1.33 297.166 1 446-5.64 23.64-20.31 38.307-44 44v-4c2.86.436 5.2-.397 7-2.5l-3-2.5c.67-.333 1.33-.667 2-1q11.145 5.27 18-5c1.19-.929 2.52-1.262 4-1-.9-3.741.43-5.741 4-6v-4h4a60.7 60.7 0 0 1 3-18 7.2 7.2 0 0 0 2.5-2c.17-19 .33-38 .5-57a999 999 0 0 0-2-61 452 452 0 0 0 2-40c-.3-17.349-.96-34.682-2-52 .34-8.029 1-16.029 2-24q-3.69-21.555 0-43a273.7 273.7 0 0 1-2-45h3q-.15-61.184 0-122"/>
  <path style="opacity:.996" fill="#94c2e9" d="M805.5 465.5v25q-8.787.483-17-1h16q-.488-12.276 1-24"/>
  <path style="opacity:.996" fill="#85bff1" d="M841.5 487.5q7.344 2.92 16 2-7.71 1.482-16 1-2-1.5 0-3"/>
  <path style="opacity:.996" fill="#85bcee" d="M908.5 488.5q1 0 1 1v1q-9.285.485-18-1 8.787.483 17-1"/>
  <path style="opacity:.996" fill="#2b659a" d="M887.5 479.5a88 88 0 0 1 4 10q8.715 1.485 18 1-9.719 1.486-20 1a38.5 38.5 0 0 1-2-12"/>
  <path style="opacity:.996" fill="#3275b0" d="M1048.5 417.5v72c-.66-1.869-1.33-3.869-2-6a16.9 16.9 0 0 0-1 8c-7.74.63-15.08-.037-22-2 6.34.166 12.68 0 19-.5a44 44 0 0 1-3-5.5l8-2c-.33-21.507 0-42.84 1-64"/>
  <path style="opacity:.996" fill="#1774c9" d="M1105.5 461.5a48.2 48.2 0 0 1 6 10c-.32 3.398.01 6.732 1 10 .67-.667 1.33-1.333 2-2 .69 4.695 3.03 8.362 7 11a82 82 0 0 0 18 1c.26 1.478-.07 2.811-1 4q-1.77-2.032-3 .5c5.4.463 10.73 1.296 16 2.5a43 43 0 0 1-9 1.5c.33.333.67.667 1 1q24.075 1.347 48-1.5a671 671 0 0 0 78 1.5c1.85-2.033 2.52-2.033 2 0 2.65.497 5.31.664 8 .5v-4q6.075-.486 12 1c-.67.667-1.33 1.333-2 2q2.85 1.449 6 1c.2-4.564.53-9.23 1-14q.705 5.138 3 9.5-1.455 1.806-3 1.5a15.7 15.7 0 0 0 2 4 5.6 5.6 0 0 1 3-1v2q-5.61 3.035-12 5l-299 1q-150.003 0-299-2h8q290.003.5 580-1-120-1.5-240-1 50.775-2.606 102-4.5a329 329 0 0 0-17-3.5 81.8 81.8 0 0 1-21 2c.59-3.847 2.26-7.18 5-10a28.7 28.7 0 0 0 .5-13c-.33-.333-.67-.667-1-1-1.91 4.406-3.07 9.072-3.5 14-.67-3.333-1.33-6.667-2-10-.67 2-1.33 4-2 6q-1.155-1.668-3-2v-24c2.92-.135 5.58.532 8 2"/>
  <path style="opacity:.996" fill="#2470b5" d="M1151.5 471.5c3.37 7.538 8.7 13.371 16 17.5q18.795 6.018 36-3.5c-.91 1.917-2.24 3.583-4 5q-10.515 1.41-21 3a112 112 0 0 0-17-2.5 9.3 9.3 0 0 1-1.5-2.5q-2.04 1.32-4.5 1v-4h-8v-4q3.15.449 6-1c-1.76-2.712-2.43-5.712-2-9"/>
  <path style="opacity:.996" fill="#3a74a2" d="M259.5 53.5q1 0 1 1-.25 220.5.5 441a91.6 91.6 0 0 0 6 14q1.063 1.321 2.5 2 1.054 3.324 4 5.5a42.7 42.7 0 0 1 6 4.5q-6.537-1.02-11-6l-8-12a16.9 16.9 0 0 1-1-8z"/>
  <path style="opacity:.996" fill="#1373d1" d="M1039.5 505.5q120-.5 240 1-289.997 1.5-580 1v-10h52q.21 2.436-2 3.5-22.995.75-46 .5v4q76.047.888 152-2a5284 5284 0 0 0 136.5 3 571 571 0 0 1 47.5-1"/>
  <path style="opacity:.996" fill="#2c6fad" d="M688.5 175.5h1v330q0 2 2 2 148.997 2 299 2l299-1q6.39-1.965 12-5a25.5 25.5 0 0 1-6 6q-3.09.28-6 1.5-300.497.75-601 .5z"/>
  <path style="opacity:.996" fill="#eefcfd" d="M1317.5 505.5c-3 7.667-8.33 13-16 16 .13-.739-.04-1.406-.5-2-1.24.836-2.41.503-3.5-1-3.4-.672-6.73-1.505-10-2.5 2.73-.182 5.39-.682 8-1.5q-304.501-.501-608-3h1q300.503.25 601-.5a20.2 20.2 0 0 1 6-1.5c-.13.739.04 1.406.5 2q2.76-2 1.5.5a18.7 18.7 0 0 1 7 5.5c1.81-2.403 4.14-4.07 7-5q1.995-4.555 6-7"/>
  <path style="opacity:.996" fill="#edfdfd" d="M1291.5 525.5c-1.07.934-2.4 1.268-4 1h-996q-1 0-1-1 166.523.899 333-2 31.99 1.167 64 1v-3q6.703-.36 13 2a55 55 0 0 1 7-2 259 259 0 0 0 29.5 2l25.5-.5-3-1q6-1 12 0-12.622.54-1 2.5 11.414-.603 23 0 51.02-.75 102-3a291 291 0 0 1 24 2 268 268 0 0 1 40-2v3q12.062.246 24-1.5l-8-1q24-1 48 0-4.005 1 0 2c21.33.731 42.66-.103 64-2.5a74.4 74.4 0 0 1 12 2q11.295-3.822 22.5 0c3.1-.351 2.94-.851-.5-1.5l15-.5a946 946 0 0 0 89 1.5l-26-1c18.67-.667 37.33-.667 56 0l-26 1 14.5.5c10.4-1.448 22.23-2.282 35.5-2.5.61-.87 1.44-1.37 2.5-1.5 1.76.444 1.6.944-.5 1.5q1.995 1 0 2c3.49.32 6.82 1.153 10 2.5"/>
  <path style="opacity:.996" fill="#1268b4" d="M1291.5 525.5h4v2a167335 167335 0 0 1-1000 .5q496.25-.25 992-1.5c1.6.268 2.93-.066 4-1"/>
  <path style="opacity:.996" fill="#3a78b1" d="M291.5 526.5h996q-495.75 1.25-992 1.5 500.021 1.244 1000-.5c-174 1.999-348.33 2.665-523 2h-37q-68.049-.874-136 2a12185 12185 0 0 0-308-2z"/>
  <path style="opacity:.996" fill="#1574cb" d="M259.5 53.5v10a206962 206962 0 0 0-4 248l2 16-2 16a64.5 64.5 0 0 1 0 18q1.97 67.383 4 134a16.9 16.9 0 0 0 1 8l8 12q4.463 4.98 11 6a54 54 0 0 0 11 4q0 1 1 1v3q154.039-.946 308 2a2468 2468 0 0 1 136-2q-15.422 2.964-32 2v4a67.6 67.6 0 0 0 21-2 55 55 0 0 0 7 2q9.893-2.988 20-1a32.5 32.5 0 0 1-7 3l-4-2a103 103 0 0 1-9 3 174 174 0 0 1 4 3q-221.5.25-443-.5l1-1a129 129 0 0 0-16-.5q-.41-2.927 2-4.5-6.536-3.634-14-3.5v-6q-3.061-.531-5.5 0a8.4 8.4 0 0 1-.5-4h-4q-1.132-4.517-4-8h-3q-3.442-4.305-4-10a511 511 0 0 1-1-42q1.231-4.712 1.5-10l.5-114q-1.012-134.51-1-269 .228-8.019 1-16a55.4 55.4 0 0 0 4-17q2.987.258 5-2l3 3q-5.776 1.267-6 7 3.966.51 7-2a36.9 36.9 0 0 1 1 12"/>
  <path style="opacity:.996" fill="#1674ca" d="M1295.5-.5h2c1.31.967 1.97 2.3 2 4 2.42-.208 4.75.126 7 1 .89.825 1.22 1.825 1 3 8.7 2.693 15.37 8.026 20 16-.3 2.104.03 4.104 1 6 4.47 7.59 7.8 15.59 10 24q-.15 60.816 0 122h-3c-.57 15.088.1 30.088 2 45q-3.69 21.445 0 43c-1 7.971-1.66 15.971-2 24 1.04 17.318 1.7 34.651 2 52a452 452 0 0 1-2 40 999 999 0 0 1 2 61c-.17 19-.33 38-.5 57a7.2 7.2 0 0 1-2.5 2 60.7 60.7 0 0 0-3 18h-4v4c-3.57.259-4.9 2.259-4 6-1.48-.262-2.81.071-4 1q-6.855 10.27-18 5c-.67.333-1.33.667-2 1l3 2.5c-1.8 2.103-4.14 2.936-7 2.5v4c-46.71-.323-93.38.01-140 1a641 641 0 0 0-36-1.5l6-1q-90-.75-180-.5-8.361-2.93-18-2v-5a32.5 32.5 0 0 0 8-.5 135 135 0 0 0-16-2.5 122 122 0 0 1-29 1.5l5-1q-7.248-1.374-14 1.5-3.844-.355 0-1.5-13.092-1.264-18 .5v5q-12.072.009-24 2a291 291 0 0 0-24-2 578 578 0 0 1-48 2v-4q20.076.495 40-2 24.069 4.245 48-.5a2950 2950 0 0 0-104-2 217 217 0 0 0 21-1.5c174.67.665 349-.001 523-2v-2a38 38 0 0 0 6-4c7.67-3 13-8.333 16-16 1.84-2.353 3.18-5.02 4-8 1.33 0 2-.667 2-2q2.505-215.496 3-432l3-6a8.97 8.97 0 0 0-3-4q-1.155 1.668-3 2h-1q-5.925-28.894-33-40l-6-4c1.48.262 2.81-.071 4-1-2.66-2.624-5.32-5.29-8-8 4.3-1.16 8.63-1.328 13-.5 2.43.451 2.6 1.285.5 2.5q-2.055.144-4.5-.5c6.53 6.772 8.86 5.272 7-4.5"/>
  <path style="opacity:.996" fill="#1574cd" d="M735.5 529.5h37a217 217 0 0 1-21 1.5q52.04.083 104 2-23.931 4.745-48 .5a268 268 0 0 1-40 2v4a578 578 0 0 0 48-2 291 291 0 0 1 24 2 146 146 0 0 1 24-2v-5q4.908-1.764 18-.5-3.844 1.145 0 1.5 6.752-2.874 14-1.5l-5 1q14.576.981 29-1.5a135 135 0 0 1 16 2.5 32.5 32.5 0 0 1-8 .5v5q9.639-.93 18 2h-66a4.93 4.93 0 0 0 .5 3q.981-1.794 1.5 0-4.61 3.329-4 9-1.083-.626-1.5-2a8.4 8.4 0 0 0-.5 4h-4q.393 2.217-1 4a62.6 62.6 0 0 0-10 16l-4 4q-2.013-2.258-5-2v4q2.217-.393 4 1-10.684 10.89-16 25a9.86 9.86 0 0 0-6 1q2.851 2.153 1 5l-2-2a9.86 9.86 0 0 0-1 6h-4v6q-2.217-.393-4 1 1.966 1.137 1.5 3-6.288 8.554-14.5 16a9.86 9.86 0 0 0-1 6q-1.762.329-3-1-.595-6.596-7-7v-8h-6q-.333-5.101-5-7.5a3.65 3.65 0 0 0 1-1.5q-2.258-2.013-2-5h-5q-1 0-1-1a31 31 0 0 1 2-2q-5.851-5.202-6-13-3.334.483-5.5-2-5.043-6.183-6.5-14h-4a225 225 0 0 0-5-10 9.86 9.86 0 0 1-1-6h-4v-4q-1.983.255-3.5-1a28.1 28.1 0 0 0-3.5-9 45.5 45.5 0 0 1-8-10 9.86 9.86 0 0 1-1-6 174 174 0 0 0-4-3 103 103 0 0 0 9-3l4 2a32.5 32.5 0 0 0 7-3q-10.107-1.988-20 1a55 55 0 0 1-7-2 67.6 67.6 0 0 1-21 2v-4q16.578.964 32-2"/>
  <path style="opacity:.994" fill="#1e70bb" d="M945.5 541.5q90-.25 180 .5l-6 1q18.255.254 36 1.5c-87.83-.333-175.502.001-263 1a41 41 0 0 0-9 .5 69 69 0 0 1-6 7.5q-.61-5.671 4-9-.519-1.794-1.5 0a4.93 4.93 0 0 1-.5-3z"/>
  <path style="opacity:.99" fill="#2472bb" d="M248.5 513.5h3q2.868 3.483 4 8h4a8.4 8.4 0 0 0 .5 4q2.439-.531 5.5 0v6q7.464-.134 14 3.5-2.41 1.573-2 4.5 8.016-.249 16 .5l-1 1q221.5.75 443 .5a9.86 9.86 0 0 0 1 6 45.5 45.5 0 0 0 8 10 28.1 28.1 0 0 1 3.5 9q1.517 1.255 3.5 1v4h4a9.86 9.86 0 0 0 1 6 225 225 0 0 1 5 10h4q1.457 7.817 6.5 14 2.166 2.483 5.5 2 .149 7.798 6 13a31 31 0 0 0-2 2 7610 7610 0 0 1-50-72.5 50.5 50.5 0 0 0-10-.5 1829 1829 0 0 0-86-2l-86 .5q-.834.575-1 1.5-127.501.25-255-.5-30.531-4.728-45-31.5"/>
  <path style="opacity:1" fill="#3075b2" d="M721.5 545.5h-173q.166-.925 1-1.5l86-.5q43.512 0 86 2"/>
  <path style="opacity:1" fill="#3479b5" d="M1295.5 543.5c-1.11.79-2.44 1.29-4 1.5q-199.5.75-399 .5a17294 17294 0 0 1 263-1c46.62-.99 93.29-1.323 140-1"/>
  <path style="opacity:.993" fill="#1d6cb5" d="M877.5 553.5a8623 8623 0 0 1-69.5 102 273 273 0 0 1-25.5-36h5q-.258 2.987 2 5a3.65 3.65 0 0 1-1 1.5q4.667 2.399 5 7.5h6v8q6.405.404 7 7 1.238 1.329 3 1a9.86 9.86 0 0 1 1-6q8.212-7.446 14.5-16 .466-1.863-1.5-3 1.783-1.393 4-1v-6h4a9.86 9.86 0 0 1 1-6l2 2q1.851-2.847-1-5a9.86 9.86 0 0 1 6-1q5.316-14.11 16-25-1.783-1.393-4-1v-4q2.987-.258 5 2l4-4a62.6 62.6 0 0 1 10-16q1.393-1.783 1-4h4a8.4 8.4 0 0 1 .5-4q.417 1.374 1.5 2"/>
</svg>
