<?xml version="1.0" encoding="UTF-8"?>
<!-- Generator: Adobe Illustrator 12.0.0, SVG Export Plug-In . SVG Version: 6.00 Build 51448)  -->
<!DOCTYPE svg PUBLIC "-//W3C//DTD SVG 1.0//EN" "http://www.w3.org/TR/2001/REC-SVG-20010904/DTD/svg10.dtd" [
	<!ENTITY ns_svg "http://www.w3.org/2000/svg">
	<!ENTITY ns_xlink "http://www.w3.org/1999/xlink">
]>
<svg version="1.0" id="Layer_1" xmlns="http://www.w3.org/2000/svg" xmlns:xlink="http://www.w3.org/1999/xlink" width="242.855" height="54.008" viewBox="0 0 242.855 54.008" overflow="visible" enable-background="new 0 0 242.855 54.008" xml:space="preserve">
<g>
	<path fill="#63B5E6" d="M234.647,40.428c0.935,0.038,1.649,0.829,1.61,1.763c-0.039,0.95-0.814,1.672-1.756,1.635   c-0.934-0.039-1.664-0.823-1.626-1.772c0.039-0.934,0.831-1.664,1.765-1.626 M234.619,40.766c-0.708-0.029-1.306,0.559-1.336,1.312   c-0.031,0.761,0.516,1.379,1.232,1.408c0.715,0.036,1.319-0.543,1.351-1.303c0.03-0.754-0.524-1.388-1.239-1.416L234.619,40.766z    M234.236,43.097l-0.398-0.017l0.077-1.884c0.151-0.016,0.317-0.039,0.604-0.026c0.325,0.013,0.519,0.073,0.643,0.176   c0.102,0.087,0.157,0.218,0.148,0.414c-0.009,0.226-0.174,0.378-0.379,0.422l-0.001,0.015c0.164,0.037,0.264,0.192,0.283,0.473   c0.026,0.295,0.059,0.41,0.087,0.471l-0.415-0.017c-0.043-0.069-0.066-0.236-0.094-0.494c-0.021-0.205-0.139-0.292-0.342-0.3   l-0.181-0.009L234.236,43.097z M234.282,42.012l0.188,0.008c0.233,0.009,0.417-0.058,0.425-0.254   c0.008-0.158-0.102-0.283-0.372-0.294c-0.098-0.005-0.166-0.008-0.219-0.002L234.282,42.012z"/>
	<path fill="#63B5E6" d="M230.167,39.354c-9.037,9.035-21.89,10.837-28.709,4.017c-6.818-6.816-5.02-19.675,4.019-28.713   c9.037-9.04,21.896-10.838,28.71-4.02C241.007,17.456,239.208,30.314,230.167,39.354"/>
	<path fill="#FFFFFF" d="M226.535,42.465h-18.202c-0.791,0-1.491-0.508-1.736-1.262c-0.241-0.751,0.021-1.574,0.658-2.043   l5.589-4.069c1.162-0.846,2.899-0.056,2.899,1.475c0,0.566-0.258,1.119-0.748,1.479c0,0-0.73,0.532-1.056,0.767   c3.766,0,6.44,0,10.109,0c-5.347-4.101-16.183-12.421-16.183-12.421c-0.405-0.315-0.715-0.788-0.715-1.517   c0-0.938,0.851-1.758,1.745-1.758h20.479c0.981,0,1.791,0.836,1.791,1.823c0,0.656-0.339,1.13-0.671,1.407l-5.362,4.463   c-0.776,0.647-1.925,0.54-2.574-0.237c-0.284-0.337-0.421-0.753-0.421-1.162c0-0.526,0.225-1.045,0.657-1.407   c0,0,0.892-0.742,1.484-1.234c-3.707,0-6.063,0-9.926,0c4.842,3.716,14.368,10.974,16.095,12.301   C229.824,39.827,227.47,41.95,226.535,42.465 M208.977,17.839h20.362c1.009,0,1.826,0.816,1.826,1.829   c0,1.007-0.817,1.821-1.826,1.821h-20.362c-1.009,0-1.826-0.814-1.826-1.821C207.151,18.655,207.968,17.839,208.977,17.839z"/>
	<path fill="#FFFFFF" d="M223.576,13.413l3.12-2.049c0.851-0.557,1.995-0.321,2.552,0.533c0.559,0.847,0.322,1.99-0.53,2.55   l-3.122,2.044c-0.85,0.561-1.992,0.322-2.551-0.528C222.482,15.112,222.721,13.971,223.576,13.413"/>
	<path fill="#D62025" d="M78.359,32.669h4.117c1.573,0.012,3.956,0.039,5.602,1.151c1.337,0.913,1.85,2.287,1.85,3.657   c0,0.843-0.167,1.472-0.329,1.885c-1.192,3.024-4.798,3.076-6.151,3.093h-5.088 M81.616,34.733v5.754h0.993   c1.717-0.028,4.097-0.099,4.097-2.912c0-0.68-0.091-1.358-0.678-1.97c-0.882-0.888-2.125-0.872-3.112-0.872H81.616z"/>
	<path fill="#D62025" d="M91.75,32.674h6.371c3.374,0,4.7,1.47,4.7,3.126c0,1.969-1.774,2.503-2.651,2.753l2.982,3.908h-3.57   l-2.562-3.489h-2.032v3.489H91.75 M94.988,34.502v2.65h2.671c0.459-0.017,1.942-0.041,1.942-1.345c0-1.249-1.19-1.289-1.866-1.306   H94.988z"/>
	<path fill="#D62025" d="M164.962,32.674h6.372c3.373,0,4.702,1.47,4.702,3.126c0,1.969-1.773,2.503-2.654,2.753l2.982,3.908h-3.569   l-2.562-3.489h-2.032v3.489h-3.239 M168.202,34.502v2.65h2.675c0.454-0.017,1.94-0.041,1.94-1.345c0-1.249-1.192-1.289-1.867-1.306   H168.202z"/>
	<path fill="#D62025" d="M115.525,32.669v5.462c-0.019,0.943-0.038,1.886-0.753,2.773c-1.39,1.689-4.265,1.774-4.813,1.774   c-0.971,0-2.124-0.181-3.002-0.53c-2.486-0.97-2.486-2.688-2.472-4.018v-5.462h3.26v6.099c0,0.501,0.017,0.915,0.237,1.222   c0.403,0.51,1.281,0.662,2.088,0.662c2.194,0,2.194-1.136,2.214-1.899v-6.083"/>
	<path fill="#D62025" d="M126.89,41.541c-0.527,0.375-1.624,1.138-3.799,1.138c-3.604,0-5.82-2.22-5.82-5.104   c0-3.144,2.693-5.243,6.368-5.243c3.418,0,5.08,1.67,5.685,2.265l-2.448,1.122c-0.461-0.526-1.21-1.388-2.999-1.388   c-2.452,0-3.386,1.539-3.386,3.176c0,1.111,0.402,2.01,1.028,2.496c0.494,0.402,1.37,0.706,2.357,0.706   c0.58,0,1.239-0.108,1.772-0.374c0.842-0.414,0.95-0.943,1.039-1.458h-2.886v-1.854h5.617v5.434h-2.529"/>
	<path fill="#D62025" d="M149.765,32.669v9.786h-3.094l0.201-6.974l0.034-0.984l-0.106,0.346c-0.168,0.556-0.185,0.626-0.333,1.041   l-2.435,6.571h-2.779l-2.342-6.294l-0.566-1.745c0.055,0.776,0.055,0.94,0.107,1.869l0.164,6.17h-3.09v-9.786h4.685l1.977,5.487   l0.458,1.568c0.18-0.681,0.201-0.748,0.344-1.209l2.071-5.847"/>
	<path fill="#D62025" d="M159.034,32.67l4.761,9.785h-3.442l-0.644-1.565h-4.756l-0.642,1.565h-3.438l4.795-9.785 M157.292,34.995   c-0.163,0.501-0.347,1.014-0.53,1.513c-0.272,0.733-0.767,1.884-1.06,2.618h3.278L157.292,34.995z"/>
	<polyline fill="#D62025" points="176.449,32.669 187.516,32.669 187.516,34.61 183.608,34.61 183.608,42.469 180.365,42.469 180.365,34.61 176.449,34.61"/>
	<polyline fill="#D62025" points="28.762,11.09 35.828,11.09 35.828,17.355 42.578,17.355 42.578,11.09 49.71,11.09 49.71,28.302 42.578,28.302 42.578,21.673 35.828,21.673 35.828,28.302 28.762,28.302"/>
	<path fill="#D62025" d="M76.046,19.528c0,4.361-3.327,9.335-12.104,9.335c-9.161,0-11.917-5.217-11.917-9.143   c0-4.925,3.96-9.267,12.04-9.267C72.911,10.454,76.046,15.431,76.046,19.528 M59.122,19.695c0,2.999,1.584,4.801,4.943,4.801   c2.854,0,4.849-1.729,4.849-4.968c0-0.832-0.09-1.588-0.408-2.271c-1.08-2.391-3.803-2.461-4.44-2.461   C61.532,14.796,59.122,16.138,59.122,19.695z"/>
	<path fill="#D62025" d="M78.356,11.09h12.801c2.441,0.07,4.566,0.145,6.371,1.581c1.648,1.344,1.871,2.927,1.871,4.025   c0,1.437-0.38,2.999-2.126,4.39c-1.868,1.485-3.931,1.562-6.369,1.607h-5.452v5.608h-7.096 M85.452,14.696v4.389h4.061   c0.381-0.025,0.789-0.025,1.171-0.121c1.077-0.268,1.71-1.048,1.71-2.095c0-2.022-2.058-2.123-2.947-2.173H85.452z"/>
	<path fill="#D62025" d="M101.376,11.09h12.803c2.443,0.07,4.566,0.145,6.369,1.581c1.652,1.344,1.873,2.927,1.873,4.025   c0,1.437-0.377,2.999-2.123,4.39c-1.869,1.485-3.931,1.562-6.37,1.607h-5.452v5.608h-7.1 M108.476,14.696v4.389h4.056   c0.38-0.025,0.793-0.025,1.175-0.121c1.078-0.268,1.711-1.048,1.711-2.095c0-2.022-2.061-2.123-2.948-2.173H108.476z"/>
	<polyline fill="#D62025" points="124.391,11.09 142.094,11.09 142.094,14.866 131.487,14.866 131.487,17.429 141.395,17.429 141.395,21.159 131.487,21.159 131.487,24.571 143.045,24.571 143.045,28.302 124.391,28.302"/>
	<path fill="#D62025" d="M145.283,11.089h11.153c2.124,0,4.151,0.074,5.516,0.514c2.979,0.976,3.864,3.317,3.864,4.969   c0,2.532-1.68,3.992-4.594,4.783l5.454,6.946h-7.862l-4.343-6.069h-2.091v6.069h-7.098 M152.38,14.672v4.024h2.951   c1.17,0,3.42-0.051,3.42-2c0-1.974-2.223-2.024-3.456-2.024H152.38z"/>
	<path fill="#D62025" d="M171.61,22.351c1.32,1.929,4.357,2.269,6.396,2.269c1.201,0,3.209-0.27,3.209-1.292   c0-0.538-0.403-0.92-1.391-1.081c-0.742-0.118-4.576-0.757-5.677-0.94c-3.907-0.656-6.09-2.424-6.09-5.023   c0-3.602,4.067-5.756,9.89-5.756c4.184,0,7.906,1.033,10.051,3.05l-4.439,2.854c-1.085-1.258-3.521-1.757-5.861-1.757   c-1.207,0-2.539,0.248-2.539,1.118c0,0.832,1.151,1.006,3.078,1.32c4.959,0.821,9.922,1.34,9.922,5.607   c0,3.501-3.721,6.098-10.558,6.098c-4.622,0-8.54-0.915-11.411-3.781"/>
	<path fill="#D62025" d="M9.952,22.351c1.32,1.929,4.353,2.269,6.394,2.269c1.201,0,3.208-0.27,3.208-1.292   c0-0.538-0.402-0.92-1.386-1.081c-0.745-0.118-4.577-0.757-5.677-0.94c-3.909-0.656-6.093-2.424-6.093-5.023   c0-3.602,4.065-5.756,9.893-5.756c4.178,0,7.901,1.033,10.047,3.05L21.9,16.43c-1.086-1.258-3.525-1.757-5.861-1.757   c-1.206,0-2.539,0.248-2.539,1.118c0,0.832,1.151,1.006,3.078,1.32c4.961,0.821,9.918,1.34,9.918,5.607   c0,3.501-3.717,6.098-10.555,6.098c-4.621,0-8.537-0.915-11.41-3.781"/>
</g>
</svg>